<svg width="80" height="80" viewBox="0 0 80 80" fill="none" xmlns="http://www.w3.org/2000/svg">
<path d="M21.959 27.3223H18.3242" stroke="#222222" stroke-miterlimit="10"/>
<path d="M20.9883 29.749H17.5977" stroke="#222222" stroke-miterlimit="10"/>
<path fill-rule="evenodd" clip-rule="evenodd" d="M17.1095 30.7165H15.4517C14.226 30.7165 13.2305 29.7209 13.2305 28.4953V25.8701H19.049L17.1095 30.7165Z" stroke="#222222" stroke-miterlimit="10"/>
<path d="M21.8396 49.3799H15.1758V52.0473H21.8396V49.3799Z" stroke="#222222" stroke-width="0.8" stroke-miterlimit="10"/>
<path d="M19.4176 43.8041H23.4187V39.4414H16.6328L17.2104 42.029C17.4405 43.0668 18.361 43.8041 19.4223 43.8041H19.4176Z" stroke="#222222" stroke-width="0.8" stroke-miterlimit="10"/>
<path d="M25.9883 51.5635H54.5924" stroke="#222222" stroke-width="0.8" stroke-miterlimit="10"/>
<path d="M27.6914 42.8379H52.8956" stroke="#222222" stroke-width="0.8" stroke-miterlimit="10"/>
<path d="M20.7812 31.2012H59.8014" stroke="#222222" stroke-width="0.8" stroke-miterlimit="10"/>
<path d="M25.8925 55.6826V60.1721C25.8925 60.9047 25.2961 61.5011 24.5635 61.5011H16.0165C15.2839 61.5011 14.6875 60.9047 14.6875 60.1721V55.6826" stroke="#222222" stroke-width="1.5" stroke-miterlimit="10"/>
<path d="M54.9736 20.2459L54.8679 20.0088H54.6083H25.976H25.7164L25.6106 20.2459L20.6516 31.3662L20.6515 31.3664L20.5672 31.5552L20.4159 31.6964L20.4152 31.6971L14.0808 37.5807L13.953 37.6994V37.8738V40.976L13.6708 41.2683L13.6699 41.2692L12.1249 42.88L12.0135 42.9961V43.1569V54.916V55.316H12.4135H68.1707H68.5707V54.916V43.1569V42.9961L68.4594 42.88L66.9144 41.2692L66.9134 41.2683L66.6312 40.976V37.8738V37.6994L66.5034 37.5807L60.1691 31.6971L60.1683 31.6964L60.017 31.5552L59.9327 31.3664L59.9327 31.3662L54.9736 20.2459ZM25.3198 19.4H55.2551L60.4842 31.1193L60.5174 31.1939L60.5772 31.2494L67.2353 37.433V40.5693V40.7303L67.3469 40.8464L69.1749 42.7497V55.9249H11.4V42.7497L13.228 40.8464L13.3395 40.7303V40.5693V37.433L19.9976 31.2494L20.0574 31.1939L20.0907 31.1193L25.3198 19.4Z" fill="#222222" stroke="#222222" stroke-width="0.8"/>
<path d="M58.7227 27.3223H62.3575" stroke="#222222" stroke-miterlimit="10"/>
<path d="M59.6875 29.749H63.0828" stroke="#222222" stroke-miterlimit="10"/>
<path fill-rule="evenodd" clip-rule="evenodd" d="M63.5684 30.7165H65.2261C66.4518 30.7165 67.4474 29.7209 67.4474 28.4953V25.8701H61.6289L63.5684 30.7165Z" stroke="#222222" stroke-miterlimit="10"/>
<path d="M58.6096 52.0469H65.2734V49.3795H58.6096V52.0469Z" stroke="#222222" stroke-width="0.8" stroke-miterlimit="10"/>
<path d="M40.8153 39.4414H39.7681H26.5156L29.446 46.7157H39.7681H40.8153H51.1374L54.0678 39.4414H40.8153Z" stroke="#222222" stroke-width="0.8" stroke-miterlimit="10"/>
<path d="M61.2667 43.8041H57.2656V39.4414H64.0515L63.4739 42.029C63.2438 43.0668 62.3234 43.8041 61.262 43.8041H61.2667Z" stroke="#222222" stroke-width="0.8" stroke-miterlimit="10"/>
<path d="M54.7891 55.6826V60.1721C54.7891 60.9047 55.3855 61.5011 56.1181 61.5011H64.665C65.3976 61.5011 65.994 60.9047 65.994 60.1721V55.6826" stroke="#222222" stroke-width="1.5" stroke-miterlimit="10"/>
</svg>
