<svg width="80" height="80" viewBox="0 0 80 80" fill="none" xmlns="http://www.w3.org/2000/svg">
<g clip-path="url(#clip0_3619_75269)">
<path d="M10 68.333H69.9845" stroke="#222222" stroke-width="1.71429" stroke-miterlimit="10"/>
<path d="M51.6391 42.8196V67.6514H21.8303V42.8196H51.6352M52.86 41.5918H20.6094V68.8792H52.8639V41.5918H52.86Z" fill="#222222"/>
<path d="M33.5671 47.2533V52.4901H26.5815V47.2533H33.5671ZM33.9767 46.8428H26.1758V52.8967H33.9767V46.8428Z" fill="#222222"/>
<path d="M46.9304 47.2533V52.4901H39.9448V47.2533H46.9304ZM47.34 46.8428H39.5391V52.8967H47.34V46.8428Z" fill="#222222"/>
<path d="M65.8873 54.6176V57.5458H62.8002V54.6176H65.8873ZM66.2969 54.207H62.3906V57.9564H66.2969V54.207Z" fill="#222222"/>
<path d="M58.9459 61.1586V64.0868H55.8588V61.1586H58.9459ZM59.3555 60.748H55.4492V64.4974H59.3555V60.748Z" fill="#222222"/>
<path d="M65.8873 61.1586V64.0868H62.8002V61.1586H65.8873ZM66.2969 60.748H62.3906V64.4974H66.2969V60.748Z" fill="#222222"/>
<path d="M33.5671 57.8862V63.1229H26.5815V57.8862H33.5671ZM33.9767 57.4756H26.1758V63.5296H33.9767V57.4756Z" fill="#222222"/>
<path d="M46.9304 57.8862V63.1229H39.9448V57.8862H46.9304ZM47.34 57.4756H39.5391V63.5296H47.34V57.4756Z" fill="#222222"/>
<path d="M11.2483 48.978L15.0116 51.6157L16.9357 52.9675V49.1407L20.6217 52.034V67.7713H11.2483V48.978ZM15.7109 46.623V50.6125L10.0273 46.623V68.9991H21.8504V51.4337L15.7148 46.6191L15.7109 46.623Z" fill="#222222"/>
<path d="M10.6289 55.707H16.7491" stroke="#222222" stroke-width="0.571429" stroke-miterlimit="10"/>
<path d="M10.8359 61.4297H16.9561" stroke="#222222" stroke-width="0.571429" stroke-miterlimit="10"/>
<path d="M68.7726 50.7942V67.5657H52.8772V50.7942H68.7726ZM69.9974 49.5664H51.6523V68.7935H69.9974V49.5664Z" fill="#222222"/>
<path d="M29.5712 27.6829L31.9822 41.592H24.7454L27.3496 27.6829H29.5674M30.5951 26.4551H26.3296L23.2656 42.8159H33.4311L30.5913 26.4551H30.5951Z" fill="#222222"/>
<path d="M26.1328 31.5713H30.692" stroke="#222222" stroke-width="0.571429" stroke-miterlimit="10"/>
<path d="M44.4783 19.9134L48.2377 41.5923H36.1751L40.2359 19.9134H44.4783ZM45.5061 18.6855H39.2159L34.6953 42.8201H49.6905L45.5022 18.6855H45.5061Z" fill="#222222"/>
<path d="M38.918 26.2275H45.6409" stroke="#222222" stroke-width="0.571429" stroke-miterlimit="10"/>
<path d="M26.1343 22.0931C26.1343 22.0931 25.3191 19.3005 27.7648 18.0726C27.7648 18.0726 30.6201 16.8448 30.2145 13.9824" stroke="#222222" stroke-width="0.571429" stroke-miterlimit="10"/>
<path d="M28.9859 24.5492C28.9859 24.5492 28.1707 21.7565 30.6164 20.5287C30.6164 20.5287 33.4717 19.3008 33.066 16.4385" stroke="#222222" stroke-width="0.571429" stroke-miterlimit="10"/>
<path d="M40.4117 15.1371C40.4117 15.1371 39.5964 12.3444 42.0422 11.1166C42.0422 11.1166 44.8975 9.88874 44.4918 7.02637" stroke="#222222" stroke-width="0.571429" stroke-miterlimit="10"/>
<path d="M43.2711 17.5921C43.2711 17.5921 42.4558 14.7995 44.9016 13.5717C44.9016 13.5717 47.7569 12.3438 47.3512 9.48145" stroke="#222222" stroke-width="0.571429" stroke-miterlimit="10"/>
<path d="M58.9459 54.6176V57.5458H55.8588V54.6176H58.9459ZM59.3555 54.207H55.4492V57.9564H59.3555V54.207Z" fill="#222222"/>
</g>
<defs>
<clipPath id="clip0_3619_75269">
<rect width="60" height="62" fill="white" transform="translate(10 7)"/>
</clipPath>
</defs>
</svg>
