<svg width="80" height="80" viewBox="0 0 80 80" fill="none" xmlns="http://www.w3.org/2000/svg">
<path d="M60.5189 11.2587V10.8587H60.1189H20.2587H19.8587V11.2587V68.7413V69.1413H20.2587H60.1189H60.5189V68.7413V11.2587ZM19.4 69.6V10.4H60.9776V69.6H19.4Z" fill="#222222" stroke="#222222" stroke-width="0.8"/>
<mask id="path-2-inside-1_3619_75268" fill="white">
<path d="M46.7404 16.3346C47.0886 16.3346 47.3697 16.6157 47.3697 16.964C47.3697 17.3122 47.0886 17.5934 46.7404 17.5934C46.3921 17.5934 46.111 17.3122 46.111 16.964C46.111 16.6157 46.3921 16.3346 46.7404 16.3346ZM46.7404 15.915C46.1613 15.915 45.6914 16.385 45.6914 16.964C45.6914 17.543 46.1613 18.0129 46.7404 18.0129C47.3194 18.0129 47.7893 17.543 47.7893 16.964C47.7893 16.385 47.3194 15.915 46.7404 15.915Z"/>
</mask>
<path d="M46.7404 16.3346C47.0886 16.3346 47.3697 16.6157 47.3697 16.964C47.3697 17.3122 47.0886 17.5934 46.7404 17.5934C46.3921 17.5934 46.111 17.3122 46.111 16.964C46.111 16.6157 46.3921 16.3346 46.7404 16.3346ZM46.7404 15.915C46.1613 15.915 45.6914 16.385 45.6914 16.964C45.6914 17.543 46.1613 18.0129 46.7404 18.0129C47.3194 18.0129 47.7893 17.543 47.7893 16.964C47.7893 16.385 47.3194 15.915 46.7404 15.915Z" fill="#222222"/>
<path d="M46.7404 17.1346C46.6468 17.1346 46.5697 17.0576 46.5697 16.964H48.1697C48.1697 16.1739 47.5304 15.5346 46.7404 15.5346V17.1346ZM46.5697 16.964C46.5697 16.8704 46.6468 16.7934 46.7404 16.7934V18.3934C47.5304 18.3934 48.1697 17.7541 48.1697 16.964H46.5697ZM46.7404 16.7934C46.8339 16.7934 46.911 16.8704 46.911 16.964H45.311C45.311 17.7541 45.9503 18.3934 46.7404 18.3934V16.7934ZM46.911 16.964C46.911 17.0576 46.8339 17.1346 46.7404 17.1346V15.5346C45.9503 15.5346 45.311 16.1739 45.311 16.964H46.911ZM46.7404 15.115C45.7195 15.115 44.8914 15.9431 44.8914 16.964H46.4914C46.4914 16.8268 46.6032 16.715 46.7404 16.715V15.115ZM44.8914 16.964C44.8914 17.9848 45.7195 18.8129 46.7404 18.8129V17.2129C46.6032 17.2129 46.4914 17.1012 46.4914 16.964H44.8914ZM46.7404 18.8129C47.7612 18.8129 48.5893 17.9848 48.5893 16.964H46.9893C46.9893 17.1012 46.8776 17.2129 46.7404 17.2129V18.8129ZM48.5893 16.964C48.5893 15.9431 47.7612 15.115 46.7404 15.115V16.715C46.8776 16.715 46.9893 16.8268 46.9893 16.964H48.5893Z" fill="#222222" mask="url(#path-2-inside-1_3619_75268)"/>
<mask id="path-4-inside-2_3619_75268" fill="white">
<path d="M50.9357 16.3346C51.2839 16.3346 51.565 16.6157 51.565 16.964C51.565 17.3122 51.2839 17.5934 50.9357 17.5934C50.5874 17.5934 50.3063 17.3122 50.3063 16.964C50.3063 16.6157 50.5874 16.3346 50.9357 16.3346ZM50.9357 15.915C50.3566 15.915 49.8867 16.385 49.8867 16.964C49.8867 17.543 50.3566 18.0129 50.9357 18.0129C51.5147 18.0129 51.9846 17.543 51.9846 16.964C51.9846 16.385 51.5147 15.915 50.9357 15.915Z"/>
</mask>
<path d="M50.9357 16.3346C51.2839 16.3346 51.565 16.6157 51.565 16.964C51.565 17.3122 51.2839 17.5934 50.9357 17.5934C50.5874 17.5934 50.3063 17.3122 50.3063 16.964C50.3063 16.6157 50.5874 16.3346 50.9357 16.3346ZM50.9357 15.915C50.3566 15.915 49.8867 16.385 49.8867 16.964C49.8867 17.543 50.3566 18.0129 50.9357 18.0129C51.5147 18.0129 51.9846 17.543 51.9846 16.964C51.9846 16.385 51.5147 15.915 50.9357 15.915Z" fill="#222222"/>
<path d="M50.9357 17.1346C50.8421 17.1346 50.765 17.0576 50.765 16.964H52.365C52.365 16.1739 51.7257 15.5346 50.9357 15.5346V17.1346ZM50.765 16.964C50.765 16.8704 50.8421 16.7934 50.9357 16.7934V18.3934C51.7257 18.3934 52.365 17.7541 52.365 16.964H50.765ZM50.9357 16.7934C51.0292 16.7934 51.1063 16.8704 51.1063 16.964H49.5063C49.5063 17.7541 50.1456 18.3934 50.9357 18.3934V16.7934ZM51.1063 16.964C51.1063 17.0576 51.0292 17.1346 50.9357 17.1346V15.5346C50.1456 15.5346 49.5063 16.1739 49.5063 16.964H51.1063ZM50.9357 15.115C49.9148 15.115 49.0867 15.9431 49.0867 16.964H50.6867C50.6867 16.8268 50.7985 16.715 50.9357 16.715V15.115ZM49.0867 16.964C49.0867 17.9848 49.9148 18.8129 50.9357 18.8129V17.2129C50.7985 17.2129 50.6867 17.1012 50.6867 16.964H49.0867ZM50.9357 18.8129C51.9565 18.8129 52.7846 17.9848 52.7846 16.964H51.1846C51.1846 17.1012 51.0729 17.2129 50.9357 17.2129V18.8129ZM52.7846 16.964C52.7846 15.9431 51.9565 15.115 50.9357 15.115V16.715C51.0729 16.715 51.1846 16.8268 51.1846 16.964H52.7846Z" fill="#222222" mask="url(#path-4-inside-2_3619_75268)"/>
<mask id="path-6-inside-3_3619_75268" fill="white">
<path d="M55.131 16.3346C55.4792 16.3346 55.7604 16.6157 55.7604 16.964C55.7604 17.3122 55.4792 17.5934 55.131 17.5934C54.7827 17.5934 54.5016 17.3122 54.5016 16.964C54.5016 16.6157 54.7827 16.3346 55.131 16.3346ZM55.131 15.915C54.552 15.915 54.082 16.385 54.082 16.964C54.082 17.543 54.552 18.0129 55.131 18.0129C55.71 18.0129 56.1799 17.543 56.1799 16.964C56.1799 16.385 55.71 15.915 55.131 15.915Z"/>
</mask>
<path d="M55.131 16.3346C55.4792 16.3346 55.7604 16.6157 55.7604 16.964C55.7604 17.3122 55.4792 17.5934 55.131 17.5934C54.7827 17.5934 54.5016 17.3122 54.5016 16.964C54.5016 16.6157 54.7827 16.3346 55.131 16.3346ZM55.131 15.915C54.552 15.915 54.082 16.385 54.082 16.964C54.082 17.543 54.552 18.0129 55.131 18.0129C55.71 18.0129 56.1799 17.543 56.1799 16.964C56.1799 16.385 55.71 15.915 55.131 15.915Z" fill="#222222"/>
<path d="M55.131 17.1346C55.0374 17.1346 54.9604 17.0576 54.9604 16.964H56.5604C56.5604 16.1739 55.9211 15.5346 55.131 15.5346V17.1346ZM54.9604 16.964C54.9604 16.8704 55.0374 16.7934 55.131 16.7934V18.3934C55.9211 18.3934 56.5604 17.7541 56.5604 16.964H54.9604ZM55.131 16.7934C55.2246 16.7934 55.3016 16.8704 55.3016 16.964H53.7016C53.7016 17.7541 54.3409 18.3934 55.131 18.3934V16.7934ZM55.3016 16.964C55.3016 17.0576 55.2246 17.1346 55.131 17.1346V15.5346C54.3409 15.5346 53.7016 16.1739 53.7016 16.964H55.3016ZM55.131 15.115C54.1101 15.115 53.282 15.9431 53.282 16.964H54.882C54.882 16.8268 54.9938 16.715 55.131 16.715V15.115ZM53.282 16.964C53.282 17.9848 54.1101 18.8129 55.131 18.8129V17.2129C54.9938 17.2129 54.882 17.1012 54.882 16.964H53.282ZM55.131 18.8129C56.1518 18.8129 56.9799 17.9848 56.9799 16.964H55.3799C55.3799 17.1012 55.2682 17.2129 55.131 17.2129V18.8129ZM56.9799 16.964C56.9799 15.9431 56.1518 15.115 55.131 15.115V16.715C55.2682 16.715 55.3799 16.8268 55.3799 16.964H56.9799Z" fill="#222222" mask="url(#path-6-inside-3_3619_75268)"/>
<path d="M19.4727 62.2383H60.5915" stroke="#222222" stroke-width="0.8" stroke-miterlimit="10"/>
<path d="M19.2617 22.7969H61.2198" stroke="#222222" stroke-width="0.8" stroke-miterlimit="10"/>
<path d="M49.6797 62.2383V69.7907" stroke="#222222" stroke-width="0.8" stroke-miterlimit="10"/>
<path d="M32.4766 10.8398V22.7979" stroke="#222222" stroke-width="0.8" stroke-miterlimit="10"/>
<mask id="path-12-inside-4_3619_75268" fill="white">
<path d="M39.1937 14.237C40.6958 14.237 41.921 15.4621 41.921 16.9642C41.921 18.4663 40.6958 19.6915 39.1937 19.6915C37.6916 19.6915 36.4665 18.4663 36.4665 16.9642C36.4665 15.4621 37.6916 14.237 39.1937 14.237ZM39.1937 13.8174C37.4567 13.8174 36.0469 15.2272 36.0469 16.9642C36.0469 18.7013 37.4567 20.1111 39.1937 20.1111C40.9308 20.1111 42.3406 18.7013 42.3406 16.9642C42.3406 15.2272 40.9308 13.8174 39.1937 13.8174Z"/>
</mask>
<path d="M39.1937 14.237C40.6958 14.237 41.921 15.4621 41.921 16.9642C41.921 18.4663 40.6958 19.6915 39.1937 19.6915C37.6916 19.6915 36.4665 18.4663 36.4665 16.9642C36.4665 15.4621 37.6916 14.237 39.1937 14.237ZM39.1937 13.8174C37.4567 13.8174 36.0469 15.2272 36.0469 16.9642C36.0469 18.7013 37.4567 20.1111 39.1937 20.1111C40.9308 20.1111 42.3406 18.7013 42.3406 16.9642C42.3406 15.2272 40.9308 13.8174 39.1937 13.8174Z" fill="#222222"/>
<path d="M39.1937 15.237C40.1435 15.237 40.921 16.0144 40.921 16.9642H42.921C42.921 14.9099 41.2481 13.237 39.1937 13.237V15.237ZM40.921 16.9642C40.921 17.914 40.1435 18.6915 39.1937 18.6915V20.6915C41.2481 20.6915 42.921 19.0186 42.921 16.9642H40.921ZM39.1937 18.6915C38.2439 18.6915 37.4665 17.914 37.4665 16.9642H35.4665C35.4665 19.0186 37.1393 20.6915 39.1937 20.6915V18.6915ZM37.4665 16.9642C37.4665 16.0144 38.2439 15.237 39.1937 15.237V13.237C37.1393 13.237 35.4665 14.9099 35.4665 16.9642H37.4665ZM39.1937 12.8174C36.9044 12.8174 35.0469 14.6749 35.0469 16.9642H37.0469C37.0469 15.7795 38.009 14.8174 39.1937 14.8174V12.8174ZM35.0469 16.9642C35.0469 19.2536 36.9044 21.1111 39.1937 21.1111V19.1111C38.0089 19.1111 37.0469 18.149 37.0469 16.9642H35.0469ZM39.1937 21.1111C41.4831 21.1111 43.3406 19.2536 43.3406 16.9642H41.3406C41.3406 18.149 40.3785 19.1111 39.1937 19.1111V21.1111ZM43.3406 16.9642C43.3406 14.6749 41.4831 12.8174 39.1937 12.8174V14.8174C40.3785 14.8174 41.3406 15.7795 41.3406 16.9642H43.3406Z" fill="#222222" mask="url(#path-12-inside-4_3619_75268)"/>
<path d="M39.1953 14.0264V19.9005" stroke="#222222" stroke-width="0.8" stroke-miterlimit="10"/>
<path d="M23.2509 18.4346H29.125V15.4975H23.2509V18.4346Z" stroke="#222222" stroke-width="0.8" stroke-miterlimit="10"/>
<mask id="path-16-inside-5_3619_75268" fill="white">
<path d="M40.1891 27.0309C48.2702 27.0309 54.8492 33.6057 54.8492 41.691C54.8492 49.7764 48.2744 56.3512 40.1891 56.3512C32.1038 56.3512 25.529 49.7764 25.529 41.691C25.529 33.6057 32.1038 27.0309 40.1891 27.0309ZM40.1891 26.6113C31.8604 26.6113 25.1094 33.3624 25.1094 41.691C25.1094 50.0197 31.8604 56.7708 40.1891 56.7708C48.5178 56.7708 55.2688 50.0197 55.2688 41.691C55.2688 33.3624 48.5178 26.6113 40.1891 26.6113Z"/>
</mask>
<path d="M40.1891 27.0309C48.2702 27.0309 54.8492 33.6057 54.8492 41.691C54.8492 49.7764 48.2744 56.3512 40.1891 56.3512C32.1038 56.3512 25.529 49.7764 25.529 41.691C25.529 33.6057 32.1038 27.0309 40.1891 27.0309ZM40.1891 26.6113C31.8604 26.6113 25.1094 33.3624 25.1094 41.691C25.1094 50.0197 31.8604 56.7708 40.1891 56.7708C48.5178 56.7708 55.2688 50.0197 55.2688 41.691C55.2688 33.3624 48.5178 26.6113 40.1891 26.6113Z" fill="#222222"/>
<path d="M40.1891 28.0309C47.7181 28.0309 53.8492 34.1582 53.8492 41.691H55.8492C55.8492 33.0533 48.8223 26.0309 40.1891 26.0309V28.0309ZM53.8492 41.691C53.8492 49.2241 47.7221 55.3512 40.1891 55.3512V57.3512C48.8267 57.3512 55.8492 50.3286 55.8492 41.691H53.8492ZM40.1891 55.3512C32.6561 55.3512 26.529 49.2241 26.529 41.691H24.529C24.529 50.3286 31.5515 57.3512 40.1891 57.3512V55.3512ZM26.529 41.691C26.529 34.158 32.6561 28.0309 40.1891 28.0309V26.0309C31.5515 26.0309 24.529 33.0534 24.529 41.691H26.529ZM40.1891 25.6113C31.3081 25.6113 24.1094 32.8101 24.1094 41.691H26.1094C26.1094 33.9147 32.4127 27.6113 40.1891 27.6113V25.6113ZM24.1094 41.691C24.1094 50.572 31.3081 57.7708 40.1891 57.7708V55.7708C32.4127 55.7708 26.1094 49.4674 26.1094 41.691H24.1094ZM40.1891 57.7708C49.0701 57.7708 56.2688 50.572 56.2688 41.691H54.2688C54.2688 49.4674 47.9655 55.7708 40.1891 55.7708V57.7708ZM56.2688 41.691C56.2688 32.8101 49.0701 25.6113 40.1891 25.6113V27.6113C47.9655 27.6113 54.2688 33.9147 54.2688 41.691H56.2688Z" fill="#222222" mask="url(#path-16-inside-5_3619_75268)"/>
<path d="M40.1853 30.5329C46.3363 30.5329 51.3378 35.5385 51.3378 41.6853C51.3378 47.8322 46.3322 52.8378 40.1853 52.8378C34.0384 52.8378 29.0329 47.8322 29.0329 41.6853C29.0329 35.5385 34.0384 30.5329 40.1853 30.5329ZM40.1853 30.1133C33.7951 30.1133 28.6133 35.2951 28.6133 41.6853C28.6133 48.0755 33.7951 53.2573 40.1853 53.2573C46.5755 53.2573 51.7573 48.0755 51.7573 41.6853C51.7573 35.2951 46.5755 30.1133 40.1853 30.1133Z" fill="#222222"/>
<path d="M40.1853 30.5329C46.3363 30.5329 51.3378 35.5385 51.3378 41.6853C51.3378 47.8322 46.3322 52.8378 40.1853 52.8378C34.0384 52.8378 29.0329 47.8322 29.0329 41.6853C29.0329 35.5385 34.0384 30.5329 40.1853 30.5329ZM40.1853 30.1133C33.7951 30.1133 28.6133 35.2951 28.6133 41.6853C28.6133 48.0755 33.7951 53.2573 40.1853 53.2573C46.5755 53.2573 51.7573 48.0755 51.7573 41.6853C51.7573 35.2951 46.5755 30.1133 40.1853 30.1133Z" stroke="#222222"/>
<path d="M50.2805 47.0274C48.8497 46.0456 47.9141 44.3966 47.9141 42.5295V40.8512C47.9141 39.0134 48.8245 37.3854 50.2176 36.3994" stroke="#222222" stroke-miterlimit="10"/>
</svg>
