<svg xmlns="http://www.w3.org/2000/svg" width="405.28653mm" height="82.241997mm" viewBox="0 0 405.28653 82.241997"><path d="M414.508 351.34c-.266.21-.54.418-.82.613a9.745 9.745 0 0 0-1.387 1.336l-.328.45a2.65 2.65 0 0 0-.227.359 1.575 1.575 0 0 0-.137.297c-.047.156-.09.312-.129.468l-.023.239-.012.156c-.004.094 0 .191.004.289.043.586.16 1.164.348 1.723.281.582.578 1.152.895 1.714a55.76 55.76 0 0 1 1.632 1.832c.446-.527.875-1.066 1.297-1.613l.434-.734c.3-.496.52-1.04.644-1.606l.078-.605c.04-.274.028-.547-.03-.817a4.137 4.137 0 0 0-.06-.304l-.132-.43a4.392 4.392 0 0 0-.43-.945c-.226-.36-.441-.727-.64-1.102a2.011 2.011 0 0 1-.125-.191l-.852-1.13M406.344 355.238a10.594 10.594 0 0 1-.785-.218 3.92 3.92 0 0 1-.309-.06 1.355 1.355 0 0 0-.012.18l.078.68.032.29.05.363a7.11 7.11 0 0 0 .954 2.773c.425.617.957 1.16 1.57 1.602.633.343 1.32.586 2.035.71a10.84 10.84 0 0 0 2.668-.43 3.346 3.346 0 0 0-.027-.202l-.125-.61a6.316 6.316 0 0 0-1.078-2.336l-.52-.585a5.475 5.475 0 0 0-1.43-1.2l-.261-.133a7.08 7.08 0 0 0-.684-.296 9.343 9.343 0 0 0-1.566-.344 4.52 4.52 0 0 0-.215-.067 2.091 2.091 0 0 1-.375-.117M421.035 355.984a3.518 3.518 0 0 0-1.754.118 3.334 3.334 0 0 0-.644.328 8.028 8.028 0 0 0-1.442 1.257c-.199.254-.367.54-.492.836a5.365 5.365 0 0 1-.379.766l-.12.285a4.82 4.82 0 0 0-.153.457l-.297 1.215c.098.02.191.04.289.05l1.098.145c.238.04.484.055.726.051a6.958 6.958 0 0 0 2.82-.758c.06-.023.118-.046.172-.074a10.02 10.02 0 0 0 1.278-.762c.52-.347.96-.796 1.304-1.32.106-.148.2-.308.274-.48.164-.414.265-.852.3-1.297l-1.382-.477a16.262 16.262 0 0 0-1.598-.34M408.977 366.14c.312-.124.597-.312.836-.554l.519-.516c.402-.433.77-.894 1.102-1.382l.152-.231c.101-.16.21-.316.324-.469a18.049 18.049 0 0 0-2.265-.867 19.615 19.615 0 0 0-1.415-.344 4.437 4.437 0 0 0-.558-.05l-.953-.055c-.258-.008-.52.02-.77.086a8.32 8.32 0 0 0-2.945 1.484l-.414.336c.37.578.777 1.133 1.223 1.664.066.082.136.16.214.234l.485.489.605.277c.395.211.828.34 1.274.379l.285.027a8.656 8.656 0 0 0 1.894-.343c.14-.043.274-.098.407-.164M420.371 361.719a1.558 1.558 0 0 0-.3-.004c-.223.023-.446.054-.669.09-.316.105-.632.222-.941.355-.73.274-1.41.664-2.016 1.152l.27.5c.156.29.332.567.523.836.2.25.426.477.676.68.055.035.11.074.16.113.102.078.207.145.32.2l.168.101c.075.047.153.09.235.125l.504.203.226.086c.25.082.512.14.774.168.32.031.637.05.957.05h.168c.09.009.18.005.265-.01.137-.005.274-.009.407-.02l.207-.016c.226-.02.453-.047.675-.078l.262-.04c.45-.073.899-.163 1.348-.269.086-.035.18-.07.27-.097l.378-.117c.11-.04.219-.09.32-.149a17.594 17.594 0 0 0-.816-1.766 4.562 4.562 0 0 1-.176-.296 6.128 6.128 0 0 0-.546-.602l-.372-.297a2.927 2.927 0 0 0-.328-.21 7.852 7.852 0 0 0-2.242-.645 4.267 4.267 0 0 0-.707-.043M419.137 367.066a5.58 5.58 0 0 0-.914-.828 12.35 12.35 0 0 0-3.215-1.574l-.043.2c-.246.73-.414 1.484-.508 2.245-.02.192-.023.38-.016.57 0 .372.047.743.145 1.098.039.13.09.258.148.375.16.254.328.5.5.743.051.074.106.14.168.207.278.273.57.523.88.753.57.403 1.175.743 1.812 1.028l1.558.554.149.047c.246.098.496.188.746.274l.035-1.543a7.84 7.84 0 0 0-.086-1 7.746 7.746 0 0 0-.12-.899 3.134 3.134 0 0 0-.427-1.136c-.25-.383-.52-.758-.812-1.114M413.203 364.691a43.944 43.944 0 0 0-2.988 1.297c-.168.11-.336.219-.508.325-.305.312-.621.617-.945.91a2.779 2.779 0 0 0-.703 1.074 1.588 1.588 0 0 0-.075.469 7.98 7.98 0 0 0 .106 1.722c.129.617.297 1.223.504 1.817l.136.566.176-.016a21.39 21.39 0 0 0 2.164-.843 5.696 5.696 0 0 0 1.46-1.02c.095-.094.181-.195.26-.3a.954.954 0 0 0 .105-.114l.105-.133c.54-.742.84-1.632.86-2.547-.005-.136 0-.273.007-.41a11.18 11.18 0 0 0-.12-.797l-.024-.183a8.357 8.357 0 0 1-.133-.516l-.387-1.3" style="fill:#d91e26;fill-opacity:1;fill-rule:nonzero;stroke:none" transform="matrix(3.81966 0 0 3.81966 -1537.755 -1341.998)"/><path d="M495.629 367.871h13.066v-1.055H495.63zM498.371 363.2h9.035v-1.052h-9.035zM498.371 357.152h9.035v-1.054h-9.035zm0 0" style="fill:#68737a;fill-opacity:1;fill-rule:nonzero;stroke:none" transform="matrix(3.81966 0 0 3.81966 -1537.755 -1341.998)"/><path d="M497.332 363.203h1.27v-7.105h-1.27zM482.934 361.953h1.273V356.5h-1.273zm0 0" style="fill:#68737a;fill-opacity:1;fill-rule:nonzero;stroke:none" transform="matrix(3.81966 0 0 3.81966 -1537.755 -1341.998)"/><path d="M481.34 357.152h11.36v-1.054h-11.36zM481.336 362.176h11.367v-1.047h-11.367zM480.188 365.27h13.66v-1.055h-13.66Zm0 0" style="fill:#68737a;fill-opacity:1;fill-rule:nonzero;stroke:none" transform="matrix(3.81966 0 0 3.81966 -1537.755 -1341.998)"/><path d="M489.828 361.953h1.274V356.5h-1.274zM486.379 369.316h1.273v-4.539h-1.273zM456.434 359.613h-1.625a7.227 7.227 0 0 0-3.09-3.168c-.23-.129-.465-.25-.707-.363l-.16-.086-4.418 8.363h1.324l3.613-6.859a6.11 6.11 0 0 1 2.621 3.156 5.617 5.617 0 0 1-.082 3.563l1.04.594a6.817 6.817 0 0 0 .406-1.782 6.713 6.713 0 0 0-.168-2.367h1.246v8.512h1.175v-13.078h-1.175v3.515M458.813 369.176h1.164v-13.078h-1.164zM438.613 364.348l1.078.5c.235-.618.38-1.27.422-1.93a6.266 6.266 0 0 0-2.504-5.582 10.667 10.667 0 0 0-1.996-1.215l-.21-.11-4.423 8.364h1.375l3.59-6.875a6.076 6.076 0 0 1 2.766 3.262 5.8 5.8 0 0 1-.098 3.586" style="fill:#68737a;fill-opacity:1;fill-rule:nonzero;stroke:none" transform="matrix(3.81966 0 0 3.81966 -1537.755 -1341.998)"/><path d="M442.96 368.125h-7.339v-3.781h-1.273v4.832h9.875v-13.078h-1.262v12.027M473.871 369.176h1.164v-13.078h-1.164zM462.89 364.98a7.582 7.582 0 0 0 5.907-3.308l2.695-.047v7.55h1.176v-13.077h-1.176v2.363h-1.66a7.466 7.466 0 0 0-.254-2.297l-6.105-.059v1.075h5.152c.043.265.066.535.066.8a5.758 5.758 0 0 1-4.02 5.493 8.33 8.33 0 0 1-2.206.445l.426 1.062m8.601-4.41h-2.152c.129-.332.238-.672.32-1.02l1.832-.03v1.05" style="fill:#68737a;fill-opacity:1;fill-rule:nonzero;stroke:none" transform="matrix(3.81966 0 0 3.81966 -1537.755 -1341.998)"/></svg>