<svg width="440" height="84" viewBox="0 0 440 84" fill="none" xmlns="http://www.w3.org/2000/svg">
<path d="M196.098 80.4789L196.085 37.8636H173.94C173.94 37.8636 174.692 53.2407 173.524 56.2291C171.545 62.7269 155.588 61.8034 155.588 54.2303C155.588 45.4301 171.842 46.9408 171.842 46.9408L170.219 37.8504C170.219 37.8504 132.657 34.3541 130.856 54.4348C130.454 68.4265 155.383 74.2647 173.821 67.3776V83.995L196.098 80.4855V80.4789Z" fill="#111111"/>
<path d="M275.632 61.4974C275.414 61.2731 271.357 62.2824 268.415 61.5634C265.17 60.7718 264.958 58.3441 264.958 55.1117V37.8281H240.623V54.142C240.623 56.0682 240.781 60.752 233.954 60.752C230.886 60.752 227.383 60.4947 227.383 56.0682V37.8281H203.18L203.199 58.6146C203.199 70.4624 223.076 74.0841 243.493 66.3526C243.493 66.3526 253.051 73.906 276.951 68.3515C276.951 68.3515 275.909 61.8009 275.625 61.504" fill="#111111"/>
<path d="M318.733 41.1525C318.891 38.5996 325.237 37.9399 325.627 40.8953C325.627 40.8953 318.568 43.91 318.733 41.1525ZM372.721 59.6367C372.107 59.4322 367.635 60.4349 362.634 58.7066C354.633 55.9359 353.406 45.203 362.905 39.0679L354.012 31.541C338.325 37.5837 335.099 38.0125 333.635 38.3489C332.903 36.2181 329.499 32.6361 322.282 33.0649C318.357 33.2958 312.519 35.5057 310.83 39.5165C309.695 42.2212 310.381 45.2623 313.02 47.3337C316.82 50.3287 324.076 49.5832 324.076 49.5832C321.794 59.1552 301.891 65.7058 301.891 55.4412V37.8409H278.262V58.2844C278.262 68.4962 290.796 71.1415 303.099 70.3301C320.316 69.1955 330.007 59.3135 333.536 48.6465L341.934 46.707C341.934 46.707 330.436 61.6949 344.784 68.5028C352.97 72.3883 368.017 69.3934 374.067 66.1676C374.067 66.1676 373.064 59.7489 372.714 59.6367" fill="#111111"/>
<path d="M78.752 58.8939C78.752 58.8939 84.854 55.0281 91.1341 49.5264C91.1341 49.5264 96.5369 52.6863 99.0107 56.4399C99.0107 56.4399 90.3953 54.8039 78.752 58.8939ZM98.2916 62.311C95.6991 65.5038 85.5467 65.4775 86.2591 63.3863C87.0244 61.1368 97.0976 61.6975 98.2916 62.311ZM124.032 59.6327C126.262 57.37 126.123 54.6191 124.237 51.6176C121.446 47.1912 113.741 44.5986 111.894 41.0891C111.083 39.5455 111.116 37.7116 112.316 35.4555L111.901 33.6018L85.8963 36.478C84.3593 39.9479 85.9293 42.6526 86.0414 42.9692C67.2538 63.0894 36.7899 63.2675 35.9785 56.176C35.2199 49.5264 56.0459 48.0553 56.0459 48.0553L55.6369 41.4256C55.6369 41.4256 41.6056 42.5272 41.3945 38.2129C41.1768 33.7601 54.3044 32.322 61.9104 32.2296L59.971 21.5429C35.332 21.2724 12.3027 26.7015 10.1851 36.0096C9.55185 38.8001 11.4121 43.7147 21.5778 45.7597V46.1159C21.5778 46.1159 0.230608 49.4934 0.375737 58.7553C0.507672 66.9947 18.9193 70.6559 31.9281 70.7483C58.2822 70.933 72.1684 62.1989 72.1684 62.1989C68.4874 72.2721 97.3351 73.4926 117.37 66.2625C118.326 65.9194 126.018 69.198 130.695 71.2628C130.695 71.2628 133.683 64.0987 133.288 63.129C132.925 62.245 124.039 59.6393 124.039 59.6393" fill="#111111"/>
<path d="M406.034 57.809C406.034 53.1385 422.157 51.5684 422.157 51.5684L421.932 46.8913C419.584 46.8253 410.408 47.1618 410.408 44.7078C410.408 41.5017 424.446 40.7233 429.367 40.5452L428.358 33.0645C419.874 33.0908 381.771 33.1898 380.214 43.5006C379.37 49.0683 390.34 50.381 390.34 50.381V50.6449C390.34 50.6449 375.973 53.3034 375.973 60.2564C375.973 74.4461 425.521 70.4682 438.345 66.9389C438.345 66.9389 437.105 60.639 436.538 60.3422C436.023 60.0783 425.627 61.6153 417.367 61.3911C410.652 61.2129 406.034 60.1443 406.034 57.7958" fill="#111111"/>
<path d="M290.269 34.2628C296.18 34.2628 300.976 29.4669 300.976 23.5562C300.976 17.6455 296.18 12.8496 290.269 12.8496C284.358 12.8496 279.562 17.6455 279.562 23.5562C279.562 29.4669 284.358 34.2628 290.269 34.2628Z" fill="#111111"/>
</svg>
