<svg width="280" height="94" viewBox="0 0 280 94" fill="none" xmlns="http://www.w3.org/2000/svg">
<g clip-path="url(#clip0_7170_15292)">
<path d="M279.183 68.7524C279.183 90.1575 270.049 92.4369 259.599 92.4369V46.0376C269.449 46.0376 270.447 52.8904 270.447 62.9851H271.293V27.8816H270.447C270.447 38.0125 269.485 45.1981 259.599 45.1981V1.55581C270.049 1.55581 278.46 3.24187 278.46 25.1173H279.298V0H241.823V0.839417H248.527V93.1533H241.802V94H280V68.7524H279.183ZM178.994 36.2975V0.839417H185.719V0H161.218V0.839417H167.944V93.1533H161.218V94H199.416V68.7524H198.57C198.57 90.1575 189.444 93.1533 178.994 93.1533V36.2975ZM98.3884 36.2975V0.839417H105.114V0H80.6054V0.839417H87.331V93.1533H80.6054V94H118.804V68.7524H117.965C117.965 90.1575 108.838 93.1533 98.3884 93.1533V36.2975ZM37.3594 68.7524C37.3594 90.1575 28.2329 92.4369 17.7829 92.4369V46.0376C27.6254 46.0376 28.5945 52.8904 28.5945 62.9851H29.4044V27.8816H28.5655C28.5655 38.0125 27.5965 45.1981 17.754 45.1981V1.55581C28.2039 1.55581 36.6073 3.24187 36.6073 25.1173H37.4461V0H0V0.839417H6.72556V93.1533H0V94H38.1983V68.7524H37.3594Z" fill="#111111"/>
</g>
<defs>
<clipPath id="clip0_7170_15292">
<rect width="280" height="94" fill="white"/>
</clipPath>
</defs>
</svg>
