<svg width="468" height="92" viewBox="0 0 468 92" fill="none" xmlns="http://www.w3.org/2000/svg">
<path d="M27.558 33.8936C27.558 19.3149 25.8291 13.8761 22.1539 13.8761C19.0481 13.8761 15.9423 16.1048 15.9423 45.9982C15.9423 75.8916 17.5573 78.1204 22.1539 78.1204C27.1025 78.1204 28.2516 69.962 28.4794 57.244L41.1303 57.8574C41.1303 73.1824 39.0598 91.7074 21.5742 91.7074C5.57928 91.7176 0.289062 74.9204 0.289062 46.0084C0.289062 12.3937 9.72034 0.289062 21.5742 0.289062C38.8321 0.289062 40.9026 17.3418 40.9026 33.4029L27.558 33.8936Z" fill="#FF1493"/>
<path d="M56.1803 55.2709C56.1803 74.2968 58.2508 78.1306 61.6983 78.1306C65.1457 78.1306 67.2162 74.2968 67.2162 55.2709L67.2162 36.7357C67.2162 17.7099 65.1457 13.8761 61.6983 13.8761C58.2508 13.8761 56.1803 17.7099 56.1803 36.7357L56.1803 55.2709ZM61.6983 0.289062C74.929 0.289062 83.5528 11.2895 83.5528 46.0084C83.5528 80.7273 74.929 91.7278 61.6983 91.7278C48.4675 91.7278 39.8437 80.7273 39.8437 46.0084C39.8437 11.2895 48.4675 0.289062 61.6983 0.289062Z" fill="#FF1493"/>
<path d="M96.0656 64.5334C96.0656 69.4713 96.0656 78.1203 102.505 78.1203C107.454 78.1203 109.172 73.1824 109.172 69.594C109.172 53.9009 82.0273 50.3227 82.0273 24.2529C82.0377 11.0442 88.7048 0.289062 101.356 0.289062C114.814 0.289062 119.991 11.2895 120.343 27.1052L106.998 27.1052C106.998 22.1673 106.998 13.8863 101.014 13.8863C97.4528 13.8863 95.3719 17.0964 95.3719 21.9219C95.3719 36.8686 122.517 41.9395 122.517 67.5084C122.517 80.9727 115.384 91.7278 101.925 91.7278C85.9303 91.7278 82.7106 76.6584 82.7106 64.5436H96.0552L96.0656 64.5334Z" fill="#FF1493"/>
<path d="M120.725 2.03418L140.633 2.03418L147.3 47.1299H147.528L154.547 2.03418L173.989 2.03418L173.989 90.0072L160.645 90.0072L160.645 25.5073H160.417L150.292 90.0072H142.01L131.999 25.5073L131.771 25.5073L131.771 90.0072H120.725L120.725 2.03418Z" fill="#FF1493"/>
<path d="M190.326 55.2699C190.326 74.2958 192.397 78.1296 195.844 78.1296C199.292 78.1296 201.362 74.2958 201.362 55.2699L201.362 36.7348C201.362 17.7089 199.292 13.8751 195.844 13.8751C192.397 13.8751 190.326 17.7089 190.326 36.7348L190.326 55.2699ZM195.844 0.288086C209.075 0.288086 217.709 11.2885 217.709 46.0075C217.709 80.7264 209.085 91.7268 195.855 91.7268C182.624 91.7268 174 80.7264 174 46.0075C174 11.2885 182.613 0.288086 195.844 0.288086Z" fill="#FF1493"/>
<path d="M232.777 41.9447H234.04C240.137 41.9447 243.471 39.3479 243.471 28.7257C243.471 15.9975 238.874 15.6294 233.926 15.6294H232.777L232.777 41.9447ZM217.703 2.03223L232.663 2.03223C249.569 2.03223 258.431 9.32156 258.431 28.3474C258.431 44.1632 252.674 54.7854 238.647 54.7854H232.663L232.663 89.995H217.703L217.703 2.03223Z" fill="#FF1493"/>
<path d="M273.68 55.2699C273.68 74.2958 275.751 78.1296 279.198 78.1296C282.646 78.1296 284.716 74.2958 284.716 55.2699L284.716 36.7348C284.716 17.7089 282.646 13.8751 279.198 13.8751C275.751 13.8751 273.68 17.7089 273.68 36.7348L273.68 55.2699ZM279.198 0.288086C292.429 0.288086 301.053 11.2885 301.053 46.0075C301.053 80.7264 292.429 91.7268 279.198 91.7268C265.968 91.7268 257.344 80.7264 257.344 46.0075C257.344 11.2885 265.978 0.288086 279.198 0.288086Z" fill="#FF1493"/>
<path d="M301.047 2.0332L315.996 2.0332L315.996 76.4192H335.097L335.097 90.0062H301.047L301.047 2.0332Z" fill="#FF1493"/>
<path d="M350.717 2.03418L335.758 2.03418L335.758 90.0072H350.717L350.717 2.03418Z" fill="#FF1493"/>
<path d="M364.338 15.6304L351.449 15.6304L351.449 2.0332L392.177 2.0332L392.177 15.6304L379.288 15.6304L379.288 90.0062H364.338L364.338 15.6304Z" fill="#FF1493"/>
<path d="M403.91 15.6304H403.682L398.962 57.6387L408.279 57.6387L403.91 15.6304ZM394.365 2.04343L415.992 2.04343L426.117 90.0164H411.737L409.552 70.4896H397.471L395.4 90.0164H382.863L394.365 2.0332V2.04343Z" fill="#FF1493"/>
<path d="M454.583 2.03418L454.583 48.4896H454.355L440.669 2.03418L426.051 2.03418L426.051 90.0072H438.712L438.712 36.7531H438.94L454.924 90.0072H466.426L466.426 2.03418L454.583 2.03418Z" fill="#FF1493"/>
</svg>
