<svg width="441" height="87" viewBox="0 0 441 87" fill="none" xmlns="http://www.w3.org/2000/svg">
<g clip-path="url(#clip0_7170_15388)">
<path d="M223.892 27.3135C219.134 24.3466 213.133 22.5442 205.836 22.5442C196.143 22.5442 188.209 25.8502 182.705 31.5342C177.206 37.2048 174.129 45.2623 174.129 54.7431C174.129 73.7046 186.438 86.942 205.836 86.942C213.133 86.942 219.129 85.1395 223.892 82.1726V85.5678H240.281V0H223.892V27.3135ZM206.952 72.0494C197.675 72.0494 190.522 64.5629 190.522 54.7431C190.522 44.9232 197.68 37.4278 206.952 37.4278C216.224 37.4278 223.892 43.9417 223.892 54.7431C223.892 65.5445 215.835 72.0494 206.952 72.0494Z" fill="#111111"/>
<path d="M306.075 22.5449C288.412 22.5449 273.135 35.2603 273.135 54.6725C273.135 74.0846 288.412 86.9428 306.075 86.9428C323.738 86.9428 339.151 74.0846 339.151 54.6725C339.151 35.2603 323.738 22.5449 306.075 22.5449ZM306.152 71.1266C297.422 71.1266 290.278 64.3138 290.278 54.7394C290.278 45.1649 297.422 38.3611 306.152 38.3611C314.882 38.3611 322.008 45.1649 322.008 54.7394C322.008 64.3138 314.864 71.1266 306.152 71.1266Z" fill="#111111"/>
<path d="M151.388 58.1962C151.388 66.7311 145.319 72.0448 136.544 72.0448C130.435 72.0448 123.382 67.7751 123.382 57.4556V23.8066H106.816V57.2369C106.816 78.6925 120.652 86.9999 134.353 86.9999C140.877 86.9999 146.932 85.2063 151.388 82.2082V85.5633H167.777V23.8066H151.388V58.2006V58.1962Z" fill="#111111"/>
<path d="M30.1841 46.7384C23.8175 45.458 18.9464 44.1998 18.9464 40.7109C18.9464 37.5388 22.4438 35.5668 28.0694 35.5668C34.8925 35.5668 41.8466 38.2481 45.7778 42.3974L46.198 42.8391L53.726 31.5603L52.8539 30.8688C45.8862 25.4212 37.2738 22.5391 27.9429 22.5391C10.4967 22.5391 2.553 32.6489 2.553 42.0404C2.553 56.6074 17.1706 59.3914 26.8404 61.234C33.8894 62.626 38.8824 63.902 38.8824 67.7077C38.8824 70.8664 35.1455 72.8251 29.1268 72.8251C21.2328 72.8251 12.3854 68.8855 8.2916 65.0754L7.87589 64.6872L0 76.488L0.709418 77.2018C7.30655 83.2071 17.8484 86.9369 28.3722 86.9369C44.9147 86.9369 54.9776 79.8163 54.9776 66.8867C54.9776 52.4224 41.7291 48.9291 30.1841 46.734V46.7384Z" fill="#111111"/>
<path d="M266.057 24.8291H249.668V85.5685H266.057V24.8291Z" fill="#111111"/>
<path d="M257.865 18.7612C263.111 18.7612 267.363 14.5624 267.363 9.38304C267.363 4.20363 263.111 0.00488281 257.865 0.00488281C252.62 0.00488281 248.367 4.20363 248.367 9.38304C248.367 14.5624 252.62 18.7612 257.865 18.7612Z" fill="#111111"/>
<path d="M101.651 23.8062V37.2443H87.5217V85.5673H71.1237V37.2443H56.9941V23.8062H71.1237V7.19141H87.5217V23.8062H101.651Z" fill="#111111"/>
<path d="M390.832 58.4245L376.77 54.4805C372.825 65.1212 360.783 72.9334 346.283 74.7314L354.539 86.2288C364.556 84.694 374.054 79.8845 381.081 73.1074C388.993 79.2822 402.151 84.6628 410.845 85.9789L417.171 73.8302C408.834 72.4917 396.019 68.7306 388.821 62.9752C389.603 61.5208 390.317 59.9726 390.836 58.4289L390.832 58.4245Z" fill="#111111"/>
<path d="M390.532 39.2362H361.418V23.8261H390.532V11.4141H347.637V51.617H390.532V39.2362Z" fill="#111111"/>
<path d="M396.879 51.617H410.697V23.8261H418.5V11.4141H396.879V51.617Z" fill="#111111"/>
<path d="M431.488 86.9829C436.739 86.9829 440.996 82.7841 440.996 77.6047C440.996 72.4253 436.739 68.2266 431.488 68.2266C426.237 68.2266 421.98 72.4253 421.98 77.6047C421.98 82.7841 426.237 86.9829 431.488 86.9829Z" fill="#E52737"/>
</g>
<defs>
<clipPath id="clip0_7170_15388">
<rect width="441" height="87" fill="white"/>
</clipPath>
</defs>
</svg>
