<svg width="327" height="84" viewBox="0 0 327 84" fill="none" xmlns="http://www.w3.org/2000/svg">
<path d="M202.683 9.95546C202.683 9.98309 202.711 9.9969 202.766 9.9969H203.885V10.1765H200.068V9.9969H201.062C201.118 9.9969 201.145 9.98309 201.145 9.95546V6.09206H197.498V9.95546C197.498 9.98309 197.521 9.9969 197.577 9.9969H198.571V10.1765H194.754V9.9969H195.873C195.928 9.9969 195.956 9.98309 195.956 9.95546V2.37142C195.956 2.34379 195.928 2.32998 195.873 2.32998H194.754V2.15039H198.571V2.32998H197.577C197.521 2.32998 197.498 2.34379 197.498 2.37142V5.91248H201.145V2.37142C201.145 2.34379 201.118 2.32998 201.062 2.32998H200.068V2.15039H203.885V2.32998H202.766C202.711 2.32998 202.683 2.34379 202.683 2.37142V9.95546Z" fill="#111111"/>
<path d="M213.283 6.66031C212.933 6.66031 212.694 6.49454 212.694 6.22286C212.694 5.9742 212.846 5.98802 212.846 5.80383C212.846 5.61964 212.726 5.53215 212.537 5.53215C212.348 5.53215 211.994 5.59661 211.731 6.40244V9.95271C211.731 9.98034 211.759 9.99415 211.81 9.99415H212.491V10.1737H209.807V9.99415H210.488C210.543 9.99415 210.571 9.98034 210.571 9.95271V5.56898C210.571 5.54135 210.543 5.52754 210.488 5.52754H209.807V5.35256H211.695L211.727 5.38479V6.13537C211.929 5.51373 212.362 5.25586 212.878 5.25586C213.495 5.25586 213.905 5.5828 213.905 6.08932C213.905 6.40705 213.656 6.66491 213.283 6.66491" fill="#111111"/>
<path d="M223.361 10.2725C224.231 10.2725 224.936 9.8489 225.406 9.19963L225.272 9.08911C224.835 9.71076 224.245 10.093 223.361 10.093C223.034 10.093 222.776 10.0331 222.551 9.83048C222.182 9.50354 222.072 9.11674 222.072 7.75834C222.072 7.65703 222.072 7.62941 222.072 7.53731H225.507L225.544 7.50508C225.544 6.58873 224.913 5.24414 223.361 5.24414C221.924 5.24414 220.852 6.3677 220.852 7.75373C220.852 9.13977 221.929 10.2633 223.361 10.2633M223.997 5.68159C224.259 5.9809 224.347 6.43677 224.365 7.35772H222.072C222.099 6.44138 222.215 5.9809 222.551 5.68159C222.776 5.48359 223.034 5.41912 223.361 5.41912C223.637 5.41912 223.817 5.47898 223.997 5.68159Z" fill="#111111"/>
<path d="M206.263 10.0482C206.875 10.0482 207.276 9.61071 207.276 9.19167V7.52015C206.99 7.69052 206.576 7.69052 206.212 7.75499C205.802 7.82867 205.36 8.04509 205.36 9.08576C205.36 9.87778 205.88 10.0482 206.267 10.0482M204.821 6.23081C204.821 5.8302 205.323 5.25 206.299 5.25C207.731 5.25 208.436 5.87625 208.436 7.29451V9.59229C208.436 9.85936 208.57 9.97448 208.754 9.97448C208.975 9.97448 209.154 9.7949 209.2 9.67978L209.32 9.7949C209.246 9.99751 208.878 10.2646 208.418 10.2646C207.888 10.2646 207.423 9.96067 207.34 9.53243C207.17 10.0159 206.705 10.2646 206.042 10.2646C204.936 10.2646 204.223 9.87778 204.223 9.08116C204.223 7.89313 205.489 7.62145 205.972 7.58001C206.659 7.52475 207.271 7.4787 207.271 7.23926V6.57617C207.271 5.77034 206.916 5.42498 206.295 5.42498C205.982 5.42498 205.788 5.57233 205.788 5.90388C205.788 6.09267 205.89 6.15253 205.89 6.33672C205.89 6.53933 205.724 6.74194 205.332 6.74194C204.941 6.74194 204.812 6.48408 204.812 6.22621" fill="#111111"/>
<path d="M218.264 5.68285C218.057 5.48945 217.776 5.42498 217.472 5.42498C217.058 5.42498 216.676 5.70127 216.413 6.00979V9.38047C216.57 9.78108 217.035 10.0896 217.472 10.0896C217.771 10.0896 218.052 10.0297 218.264 9.83173C218.61 9.5094 218.84 8.94302 218.84 7.78262C218.84 6.62222 218.61 6.00058 218.264 5.67824M220.014 7.78262C220.014 9.03511 218.95 10.2646 217.472 10.2646C217.021 10.2646 216.676 9.97909 216.413 9.70741V13.4465C216.413 13.4741 216.441 13.4879 216.491 13.4879H217.177V13.6675H214.493V13.4879H215.174C215.23 13.4879 215.253 13.4741 215.253 13.4465V5.56773C215.253 5.5401 215.23 5.52629 215.174 5.52629H214.488V5.3513H216.376L216.408 5.38354V5.81178C216.671 5.5355 217.016 5.25 217.468 5.25C218.946 5.25 220.009 6.53473 220.009 7.78722" fill="#111111"/>
<path d="M234.674 5.39651C234.803 5.39651 234.872 5.34125 234.886 5.29521H235.08V6.49244H234.886C234.886 5.79713 234.265 5.44256 233.675 5.44256C233.086 5.44256 232.768 5.71424 232.768 6.15169C232.768 6.70887 233.169 6.98976 234.076 7.24762C235.024 7.5147 235.651 7.97978 235.651 8.70733C235.651 9.62368 234.909 10.2868 233.726 10.2868C233.021 10.2868 232.717 9.95983 232.349 9.95983C232.119 9.95983 231.994 10.1164 231.967 10.2039H231.773L231.843 8.61063H232.036C232.004 9.44409 232.782 10.1072 233.726 10.1072C234.44 10.1072 234.845 9.78024 234.845 9.17702C234.845 8.57379 234.366 8.32974 233.496 8.06267C232.644 7.8048 232.05 7.45484 232.05 6.70887C232.05 5.82015 232.911 5.26758 233.675 5.26758C234.173 5.26758 234.219 5.40112 234.674 5.40112" fill="#111111"/>
<path d="M231.126 3.71246C231.126 3.38552 231.402 3.12305 231.738 3.12305C232.102 3.12305 232.378 3.39012 232.378 3.78153C232.378 4.35712 231.858 5.03402 231.144 5.46226L231.029 5.33794C231.545 5.03863 231.918 4.67025 232.139 4.1453C232.042 4.25121 231.913 4.29726 231.743 4.29726C231.402 4.29726 231.131 4.03479 231.131 3.70785" fill="#111111"/>
<path d="M229.574 6.66031C229.224 6.66031 228.984 6.49454 228.984 6.22286C228.984 5.9742 229.136 5.98802 229.136 5.80383C229.136 5.61964 229.016 5.53215 228.828 5.53215C228.639 5.53215 228.284 5.59661 228.022 6.40244V9.95271C228.022 9.98034 228.045 9.99415 228.1 9.99415H228.786V10.1737H226.102V9.99415H226.788C226.843 9.99415 226.866 9.98034 226.866 9.95271V5.56898C226.866 5.54135 226.838 5.52754 226.788 5.52754H226.102V5.35256H227.99L228.026 5.38479V6.13537C228.229 5.51373 228.662 5.25586 229.178 5.25586C229.795 5.25586 230.204 5.5828 230.204 6.08932C230.204 6.40705 229.956 6.66491 229.583 6.66491" fill="#111111"/>
<path d="M59.3305 78.396C58.695 81.0299 58.6075 81.297 57.9583 81.297H50.7012V81.8127H67.1402V81.297H59.616C59.1279 81.297 59.2108 80.9425 59.8002 78.5342L64.8562 58.2456H84.8731L90.9836 81.297H82.8516V81.8127H110.208V81.297H101.703L79.025 0H78.8869L59.3351 78.396H59.3305ZM74.54 19.386L84.7211 57.7299H65.0035L74.54 19.386Z" fill="#111111"/>
<path d="M22.5991 2.74104C33.0058 2.74104 37.2422 10.9191 37.2422 21.7357C37.2422 31.8661 33.0058 39.9613 22.5991 39.9613H17.8654V2.74104H22.5991ZM1.04883 2.2207V2.73644H7.62903C8.10792 2.73644 8.32895 2.87458 8.32895 3.15547V80.8792C8.32895 81.1555 8.10792 81.2982 7.62903 81.2982H1.04883V81.8139H25.5876C41.3957 81.8185 49.827 75.0173 49.827 61.2767C49.827 51.7679 44.8401 42.0887 29.1102 40.1593C42.4778 38.8654 47.0872 30.1946 47.0872 21.7403C47.0872 9.3765 39.8992 2.22991 24.0956 2.22991H1.04883V2.2207ZM22.5991 40.477C34.3366 40.477 38.9874 48.7426 38.9874 61.2767C38.9874 72.0933 34.8339 81.3028 25.0903 81.3028H18.5607C18.0818 81.2982 17.8608 81.1601 17.8608 80.8792V40.4724H22.5945L22.5991 40.477Z" fill="#111111"/>
<path d="M288.507 41.2485H294.764C300.309 41.2485 308.487 43.7167 308.487 53.7413V71.8932C308.487 79.3207 312.456 83.9991 319.455 83.9991C326.809 83.9991 326.694 76.323 326.694 70.7881V64.9538H326.196V70.7881C326.196 77.0874 325.474 82.5532 321.886 82.5532C318.709 82.5532 318.023 80.5179 318.023 71.9761V53.7459C318.023 45.3099 311.406 42.2201 301.188 40.9953C313.916 39.4297 318.709 31.0306 318.709 21.7428C318.709 8.00679 312.571 2.23242 296.763 2.23242H271.699V2.74355H278.279C278.754 2.74355 278.979 2.88169 278.979 3.16258V80.8863C278.979 81.1626 278.758 81.3053 278.279 81.3053H271.699V81.8211H294.746V81.3053H289.211C288.737 81.3053 288.511 81.1672 288.511 80.8863V41.2578L288.507 41.2485ZM288.507 2.74355H295.262C305.668 2.74355 308.606 10.9216 308.606 21.7382C308.606 31.8687 305.668 40.7328 295.262 40.7328H288.507V2.74355Z" fill="#111111"/>
<path d="M169.254 78.388C168.618 81.022 168.531 81.2844 167.886 81.2844H160.629V81.8002H177.063V81.2844H169.539C169.051 81.2844 169.134 80.9299 169.728 78.5216L174.784 58.233H194.796L200.907 81.2798H192.775V81.7956H220.127V81.2798H211.622L188.944 0.00585938H188.805L169.254 78.388ZM184.459 19.3919L194.64 57.7265H174.922L184.454 19.3919H184.459Z" fill="#111111"/>
<path d="M125.808 80.8817C125.729 81.0659 125.822 81.2869 126.204 81.2869H144.158C149.683 81.2915 156.821 72.8464 156.821 45.6277V42.7957H157.318V81.8073H114.457L146.925 3.14416C147.008 2.95997 146.911 2.73895 146.529 2.73895H127.47C122.469 2.74355 115.203 12.1833 115.203 38.412V41.2439H114.706V2.23242H158.317L125.812 80.8817H125.808Z" fill="#111111"/>
<path d="M223.295 78.396C222.659 81.0299 222.572 81.297 221.927 81.297H214.67V81.8127H231.109V81.297H223.585C223.097 81.297 223.18 80.9425 223.769 78.5342L228.825 58.2456H248.842L254.952 81.297H246.82V81.8127H274.177V81.297H265.672L242.985 0H242.846L223.29 78.396H223.295ZM238.504 19.386L248.69 57.7299H228.968L238.504 19.386Z" fill="#111111"/>
</svg>
