<svg width="490" height="377" viewBox="0 0 490 377" fill="none" xmlns="http://www.w3.org/2000/svg">
<path d="M313.539 188.138C313.539 176.379 305.697 172.46 293.932 172.46H160.607C155.407 172.46 150.419 170.395 146.742 166.72C143.065 163.045 141 158.06 141 152.862V19.5977C141 14.4001 143.065 9.41562 146.742 5.74033C150.419 2.06503 155.407 0 160.607 0H293.932C299.132 0 304.119 2.06503 307.796 5.74033C311.473 9.41562 313.539 14.4001 313.539 19.5977V148.943C313.539 160.701 321.382 164.621 333.146 164.621H466.472C472.088 164.542 477.547 166.475 481.862 170.069C486.178 173.663 489.064 178.682 490 184.218V317.483C490 323.72 487.521 329.702 483.108 334.112C478.696 338.522 472.712 341 466.472 341H333.146C327.607 340.065 322.586 337.18 318.99 332.867C315.394 328.554 313.461 323.097 313.539 317.483V188.138Z" fill="#55D8C5"/>
<path d="M133.448 285.989C139.483 285.989 141.494 281.944 141.494 275.876L141.494 207.112C141.494 204.43 142.554 201.858 144.44 199.961C146.326 198.065 148.884 197 151.552 197L219.943 197C222.61 197 225.168 198.065 227.054 199.961C228.94 201.858 230 204.43 230 207.112L230 275.876C230 278.558 228.94 281.13 227.054 283.027C225.168 284.923 222.61 285.989 219.943 285.989L153.563 285.989C147.529 285.989 145.517 290.034 145.517 296.101L145.517 364.865C145.558 367.762 144.566 370.577 142.721 372.803C140.877 375.029 138.301 376.517 135.46 377L67.0688 377C63.8679 377 60.7983 375.721 58.5349 373.445C56.2715 371.17 55 368.083 55 364.865L55 296.101C55.4799 293.244 56.9604 290.655 59.1739 288.8C61.3874 286.945 64.1877 285.948 67.0688 285.989L133.448 285.989Z" fill="#55D8C5" fill-opacity="0.5"/>
</svg>
