<svg width="111" height="111" viewBox="0 0 111 111" fill="none" xmlns="http://www.w3.org/2000/svg">
<path d="M82.957 97.8334C82.957 94.9109 85.3262 92.5417 88.2487 92.5417C91.1712 92.5417 93.5404 94.9109 93.5404 97.8334C93.5404 100.756 91.1712 103.125 88.2487 103.125C85.3262 103.125 82.957 100.756 82.957 97.8334Z" stroke="white" stroke-width="5" stroke-linecap="round" stroke-linejoin="round"/>
<path d="M30.043 97.8334C30.043 94.9109 32.4121 92.5417 35.3346 92.5417C38.2571 92.5417 40.6263 94.9109 40.6263 97.8334C40.6263 100.756 38.2571 103.125 35.3346 103.125C32.4121 103.125 30.043 100.756 30.043 97.8334Z" stroke="white" stroke-width="5" stroke-linecap="round" stroke-linejoin="round"/>
<path d="M8.875 7.875H12.9375C15.4895 7.875 17.6779 9.6964 18.1412 12.206L30.0417 76.6667" stroke="white" stroke-width="5" stroke-linecap="round" stroke-linejoin="round"/>
<path d="M22.1055 23.75H97.4744C100.877 23.75 103.396 26.9157 102.631 30.2315L92.8613 72.5649C92.3073 74.9659 90.1693 76.6667 87.7052 76.6667H30.043" stroke="white" stroke-width="5" stroke-linecap="round" stroke-linejoin="round"/>
</svg>
