<?xml version="1.0" encoding="UTF-8"?>
<svg id="_레이어_2" data-name="레이어 2" xmlns="http://www.w3.org/2000/svg" viewBox="0 0 65.82 67.89">
  <defs>
    <style>
      .cls-1 {
        fill: none;
        stroke: #000;
        stroke-linecap: round;
        stroke-linejoin: round;
        stroke-width: 2px;
      }
    </style>
  </defs>
  <g id="_레이어_1-2" data-name="레이어 1">
    <g>
      <g>
        <circle class="cls-1" cx="34.02" cy="35.98" r="20.98"/>
        <path class="cls-1" d="M28.69,15.69s3.5,5.09,2.37,7.62c-1.13,2.53-3.41,2.06-4.22,2.53s-5.82.93-4.28,2.47,4.21,1.68,5.97,3.44,1.01,4.22,2.76,4.22,2.97-3.35,4.65-1.68-.93,5.9-3.04,8.01-.24,3.41-1.19,4.36-2.33,1.83-2.33,3.66-4.22,3.66-4.78.56c-.56-3.1.92-7.67-.42-9.01s-3.8-4.69-2.82-7.76c.99-3.08-5.86-7.99-5.86-7.99"/>
        <path class="cls-1" d="M54.35,30.79s-5.59.16-7.38-.87-5.63,1.13-4.93,5.07c.7,3.94,3.74,1.72,6.11,4.08s-1.24,4.96,0,6.19,2.01,2.49.84,5.4"/>
        <path class="cls-1" d="M42.54,16.81s-4.72,4.1-3.73,6.22c.99,2.11,2.22,1.4,3.73.53s1.74-1.86,3.45-.88,4.71.58,4.71.58"/>
      </g>
      <g>
        <path class="cls-1" d="M2.62,34.31C3.45,15.33,21.88.43,41.76,5.76"/>
        <path class="cls-1" d="M50.18,62.19c-17.07,10.77-40.94,2.4-46.5-18.35"/>
        <path class="cls-1" d="M50.18,9.37c16.33,10.09,20.18,33.74,5.52,48.4"/>
        <polyline class="cls-1" points="38.74 1 41.76 5.76 36.57 8.68"/>
        <polyline class="cls-1" points="61.33 57.62 55.7 57.77 55.86 51.81"/>
        <polyline class="cls-1" points="1 48.79 3.68 43.83 8.76 46.95"/>
      </g>
    </g>
  </g>
</svg>