<svg xmlns="http://www.w3.org/2000/svg" xmlns:xlink="http://www.w3.org/1999/xlink" width="500" height="500" viewBox="0 0 500 500">
  <defs>
    <clipPath id="clip-path">
      <rect id="사각형_300" data-name="사각형 300" width="500" height="500" transform="translate(12522 -2165)" fill="#fff" stroke="#707070" stroke-width="1"/>
    </clipPath>
  </defs>
  <g id="ico-blog" transform="translate(-12522 2165)" clip-path="url(#clip-path)">
    <g id="그룹_712" data-name="그룹 712" transform="translate(12924.928 -2442.885)">
      <path id="패스_1044" data-name="패스 1044" d="M-2.95,277.87H-302.944a100,100,0,0,0-99.984,100.011V677.893a100,100,0,0,0,99.984,99.992H-2.95A100,100,0,0,0,97.072,677.893V377.881A100,100,0,0,0-2.95,277.87Zm64.1,267.085A67.747,67.747,0,0,1-6.477,612.819h-100.9l-34.436,56.057a7.85,7.85,0,0,1-1.154,1.673,11.6,11.6,0,0,1-9.972,5.731,11.59,11.59,0,0,1-10.006-5.8,12.647,12.647,0,0,1-1.117-1.591l-34.44-56.069H-299.39a67.738,67.738,0,0,1-67.616-67.865V383.965A67.74,67.74,0,0,1-299.39,316.1H-6.477a67.749,67.749,0,0,1,67.624,67.865Z" transform="translate(0 0)" fill="#070203"/>
      <path id="패스_1045" data-name="패스 1045" d="M-332.487,342.346s-11.683,0-22.283,10.318V311.1h-26.216V420.311H-354.5v-8.554s6.246,11.281,22.012,11.281c0,0,36.94-1.357,36.94-40.753C-295.546,382.284-296.9,342.346-332.487,342.346Zm-5.772,57.637a16.853,16.853,0,0,1-16.85-16.849,16.852,16.852,0,0,1,16.85-16.842,16.844,16.844,0,0,1,16.838,16.842A16.846,16.846,0,0,1-338.259,399.983Z" transform="translate(60.565 91.719)" fill="#070203"/>
      <path id="패스_1046" data-name="패스 1046" d="M-356.026,310.449v25.269s11.965-.542,11.965,21.738V422.1H-318.8V351.477S-317.713,310.449-356.026,310.449Z" transform="translate(129.46 89.925)" fill="#070203"/>
      <path id="패스_1047" data-name="패스 1047" d="M-297.9,319.5s-43.31.008-43.31,40.449c0,0-1.4,39.9,43.31,39.9,0,0,44.31-.064,44.31-39.9C-253.589,359.948-252.149,319.5-297.9,319.5Zm0,57.3a16.85,16.85,0,0,1-16.846-16.849A16.849,16.849,0,0,1-297.9,343.106a16.849,16.849,0,0,1,16.846,16.842A16.85,16.85,0,0,1-297.9,376.8Z" transform="translate(170.344 114.905)" fill="#070203"/>
      <path id="패스_1048" data-name="패스 1048" d="M-255.309,329.484a28.649,28.649,0,0,0-22-9.98s-37.083-1.564-37.083,40.174c0,0-.41,38.881,36.064,38.881,0,0,14.875.609,23.016-9.983v6.118s1.843,19.151-16.7,19.151h-6.313v23.223h10.183s38.3.41,38.3-40.953v-73.96h-25.468ZM-270.974,376.8a16.842,16.842,0,0,1-16.842-16.849,16.841,16.841,0,0,1,16.842-16.842,16.842,16.842,0,0,1,16.838,16.842A16.844,16.844,0,0,1-270.974,376.8Z" transform="translate(244.384 114.9)" fill="#070203"/>
    </g>
  </g>
</svg>
