<svg xmlns="http://www.w3.org/2000/svg" xmlns:xlink="http://www.w3.org/1999/xlink" width="100" height="100" viewBox="0 0 100 100">
  <defs>
    <clipPath id="clip-path">
      <rect id="사각형_302" data-name="사각형 302" width="100" height="100" transform="translate(8548 -2183)" fill="#fff" stroke="#707070" stroke-width="1"/>
    </clipPath>
  </defs>
  <g id="mute" transform="translate(-8548 2183)" clip-path="url(#clip-path)">
    <g id="volume-mute-line" transform="translate(8548 -2177)">
      <path id="패스_1055" data-name="패스 1055" d="M7.688,11.064,25.091,28.5H8.9a6.238,6.238,0,0,0-6.238,6.238v24.95A6.238,6.238,0,0,0,8.9,65.924H24.935l23.11,23.3A6.405,6.405,0,0,0,58.8,84.636V62.088l18.37,18.37c-.78.468-1.528.9-2.339,1.31a3.124,3.124,0,0,0,2.807,5.583,44.913,44.913,0,0,0,4.086-2.339l7.111,7.111,4.273-4.366L12.023,6.667ZM52.567,84.636,28.459,60.4a3.119,3.119,0,0,0-2.214-.717H8.9V34.736h17.59a3.119,3.119,0,0,0,2.214-.936l.811-.811L52.567,55.975Z" transform="translate(-2.667 -3.543)"/>
      <path id="패스_1056" data-name="패스 1056" d="M34.24,12.352A38.735,38.735,0,0,1,47.058,72.888l4.429,4.429A44.973,44.973,0,0,0,36.953,6.707a3.119,3.119,0,1,0-2.713,5.614Z" transform="translate(37.149 -3.957)"/>
      <path id="패스_1057" data-name="패스 1057" d="M31.193,20.194a19.555,19.555,0,0,1,9.7,16.779,19.243,19.243,0,0,1-3.867,11.571l4.491,4.429a25.418,25.418,0,0,0,5.614-16A25.824,25.824,0,0,0,34.343,14.8a3.119,3.119,0,1,0-3.119,5.4Z" transform="translate(33.334 6.695)"/>
      <path id="패스_1058" data-name="패스 1058" d="M34.713,11.574V40.111l6.238,6.238V11.574a6.238,6.238,0,0,0-10.666-4.4L16,21.46l4.4,4.4Z" transform="translate(15.188 -5.331)"/>
    </g>
  </g>
</svg>
