<svg xmlns="http://www.w3.org/2000/svg" xmlns:xlink="http://www.w3.org/1999/xlink" width="500" height="500" viewBox="0 0 500 500">
  <defs>
    <clipPath id="clip-path">
      <rect id="사각형_299" data-name="사각형 299" width="500" height="500" transform="translate(11857 -2165)" fill="#fff" stroke="#707070" stroke-width="1"/>
    </clipPath>
  </defs>
  <g id="ico_insta" transform="translate(-11857 2165)" clip-path="url(#clip-path)">
    <g id="instagram-svgrepo-com_1_" data-name="instagram-svgrepo-com (1)" transform="translate(11856 -2166)">
      <path id="패스_1041" data-name="패스 1041" d="M142.364,278.727A136.364,136.364,0,1,0,6,142.364,136.364,136.364,0,0,0,142.364,278.727Zm0-45.455a90.909,90.909,0,1,0-90.909-90.909A90.91,90.91,0,0,0,142.364,233.273Z" transform="translate(108.636 108.636)" fill="#0f0f0f" fill-rule="evenodd"/>
      <path id="패스_1042" data-name="패스 1042" d="M39.727,5A22.727,22.727,0,1,0,62.455,27.727,22.727,22.727,0,0,0,39.727,5Z" transform="translate(347.636 86.909)" fill="#0f0f0f"/>
      <path id="패스_1043" data-name="패스 1043" d="M15.863,75.456C1,104.626,1,142.811,1,219.182v63.636c0,76.37,0,114.557,14.863,143.725a136.355,136.355,0,0,0,59.593,59.593C104.626,501,142.811,501,219.182,501h63.636c76.37,0,114.557,0,143.725-14.864a136.348,136.348,0,0,0,59.593-59.593C501,397.375,501,359.189,501,282.818V219.182c0-76.371,0-114.556-14.864-143.726a136.355,136.355,0,0,0-59.593-59.593C397.375,1,359.189,1,282.818,1H219.182C142.811,1,104.626,1,75.456,15.863A136.362,136.362,0,0,0,15.863,75.456Zm266.955-29H219.182c-38.935,0-65.4.035-85.862,1.707-19.928,1.628-30.119,4.579-37.228,8.2A90.911,90.911,0,0,0,56.363,96.092c-3.622,7.109-6.573,17.3-8.2,37.228-1.671,20.458-1.707,46.926-1.707,85.862v63.636c0,38.936.035,65.4,1.707,85.861,1.628,19.93,4.579,30.12,8.2,37.23a90.913,90.913,0,0,0,39.729,39.727c7.109,3.623,17.3,6.575,37.228,8.2,20.458,1.67,46.926,1.707,85.862,1.707h63.636c38.936,0,65.4-.036,85.861-1.707,19.93-1.627,30.12-4.58,37.23-8.2a90.916,90.916,0,0,0,39.727-39.727c3.623-7.109,6.575-17.3,8.2-37.23,1.67-20.459,1.707-46.925,1.707-85.861V219.182c0-38.935-.036-65.4-1.707-85.862-1.627-19.928-4.58-30.119-8.2-37.228a90.913,90.913,0,0,0-39.727-39.729c-7.109-3.622-17.3-6.573-37.23-8.2C348.22,46.49,321.755,46.455,282.818,46.455Z" fill="#0f0f0f" fill-rule="evenodd"/>
    </g>
  </g>
</svg>
