<svg xmlns="http://www.w3.org/2000/svg" width="172.932" height="118.286" viewBox="0 0 172.932 118.286">
  <g id="그룹_190" data-name="그룹 190" transform="translate(-98.241 -155.344)">
    <g id="그룹_188" data-name="그룹 188" transform="translate(98.241 231.7)">
      <g id="그룹_186" data-name="그룹 186">
        <path id="패스_266" data-name="패스 266" d="M111.706,251.454a5.277,5.277,0,0,0,2.653-1.729,4.244,4.244,0,0,0,.891-2.642,4.516,4.516,0,0,0-1.143-3.046,6.086,6.086,0,0,0-3.312-1.846,16.809,16.809,0,0,0-3.808-.346h-8.48a.268.268,0,0,0,0,.535h.738a2.136,2.136,0,0,1,1.681.637,4,4,0,0,1,.416,2.3V258a4.512,4.512,0,0,1-.331,2.155,1.985,1.985,0,0,1-1.766.783h-.738a.267.267,0,1,0,0,.534h9.265a14.761,14.761,0,0,0,4.926-.614,5.3,5.3,0,0,0,2.537-1.954,4.846,4.846,0,0,0,.931-2.8,4.327,4.327,0,0,0-1.406-3.258A6.32,6.32,0,0,0,111.706,251.454Zm-7.585-8.183h4.906a3.7,3.7,0,0,1,3.7,3.7,3.859,3.859,0,0,1-3.7,3.881h-4.906Zm5.088,16.506h-5.088v-7.831h5.088a3.964,3.964,0,0,1,3.838,3.984A3.846,3.846,0,0,1,109.209,259.777Z" transform="translate(-98.241 -241.396)" fill="#003e86"/>
        <path id="패스_267" data-name="패스 267" d="M157.876,244.241a8.913,8.913,0,0,0-6.622-2.9,9.384,9.384,0,0,0-6.613,2.563,9.929,9.929,0,0,0-3.186,7.627,10.334,10.334,0,0,0,2.758,7.454,9.436,9.436,0,0,0,13.641-.075,10.307,10.307,0,0,0,2.822-7.423A10.036,10.036,0,0,0,157.876,244.241Zm-6.81,16.507c-3.4,0-6.151-4.1-6.151-9.148s2.753-9.148,6.151-9.148,6.151,4.1,6.151,9.148S154.463,260.748,151.066,260.748Z" transform="translate(-103.085 -241.339)" fill="#003e86"/>
      </g>
      <path id="패스_268" data-name="패스 268" d="M201.843,257c.055-.264-.1-.345-.261-.345s-.277.258-.277.258a5.562,5.562,0,0,1-3.286,2.941,9.026,9.026,0,0,1-2.418.23h-3.328a2.49,2.49,0,0,1-1.1-.165c-.19-.11-.519-.489-.519-1.357v-6.614h4.312a4.366,4.366,0,0,1,1.826.289,1.815,1.815,0,0,1,.852.8,4.635,4.635,0,0,1,.361,1.53l.046.323a.278.278,0,0,0,.277.2.271.271,0,0,0,.268-.268v-6.525a.271.271,0,0,0-.268-.267c-.231-.01-.279.247-.279.247-.087,1.687-.675,1.963-.842,2.11a3.561,3.561,0,0,1-2.241.462h-4.312v-7.939h5.383a6.524,6.524,0,0,1,2.042.218,2.313,2.313,0,0,1,1.09.882,5.123,5.123,0,0,1,.675,1.9l.009.032a.242.242,0,0,0,.264.232.269.269,0,0,0,.267-.264l-.011-.719,0-3.342H185.067a.268.268,0,1,0,0,.535h.694a2.238,2.238,0,0,1,1.737.579,4.207,4.207,0,0,1,.379,2.3V258.01a6.789,6.789,0,0,1-.17,1.895,1.215,1.215,0,0,1-.629.7,2.766,2.766,0,0,1-1.317.332h-.694a.267.267,0,1,0,0,.535h15.308Z" transform="translate(-107.943 -241.396)" fill="#003e86"/>
      <path id="패스_269" data-name="패스 269" d="M245.737,241.845h-6.829a.261.261,0,0,0-.229.267.279.279,0,0,0,.229.266h.679a2.147,2.147,0,0,1,1.692.608,4.06,4.06,0,0,1,.408,2.3v11.551l-12-14.991H224.36a.267.267,0,0,0,0,.534,4.526,4.526,0,0,1,1.275.132,4.7,4.7,0,0,1,1.3.594,9.616,9.616,0,0,1,1.3,1.356v13.605a4.393,4.393,0,0,1-.318,2.113,2.008,2.008,0,0,1-1.781.752H225.5l-.052.01a.259.259,0,0,0-.232.25.265.265,0,0,0,.232.276h6.831a.273.273,0,0,0,.277-.289c0-.266-.317-.248-.317-.248h-.655a2.184,2.184,0,0,1-1.693-.606,4.034,4.034,0,0,1-.392-2.26V246.023l12.471,15.444h.99V245.286a4.618,4.618,0,0,1,.319-2.155,1.993,1.993,0,0,1,1.764-.752h.7a.267.267,0,1,0,0-.534Z" transform="translate(-112.348 -241.396)" fill="#003e86"/>
      <path id="패스_270" data-name="패스 270" d="M290.038,260.914a3.055,3.055,0,0,1-1.873-.659,7.485,7.485,0,0,1-1.5-2.554l-6.844-15.855a.251.251,0,0,0-.238-.18.248.248,0,0,0-.239.18l-6.918,15.68a8.835,8.835,0,0,1-1.637,2.823,3.328,3.328,0,0,1-1.592.565h0a.266.266,0,1,0,0,.532h0v0h6.181v0c.009,0,.014,0,.023,0a.266.266,0,0,0,0-.532.106.106,0,0,0-.023,0v0a3.728,3.728,0,0,1-1.847-.443.992.992,0,0,1-.425-.788,4.878,4.878,0,0,1,.493-1.707l1.874-4.21h6.486l1.757,3.936a6.061,6.061,0,0,1,.578,2.01,1.006,1.006,0,0,1-.412.812,2.915,2.915,0,0,1-1.586.391v0a.265.265,0,0,0,0,.53v0h7.742v0a.266.266,0,1,0,0-.532ZM276.1,252.362l2.694-6.486,2.652,6.486Z" transform="translate(-117.374 -241.376)" fill="#003e86"/>
      <g id="그룹_187" data-name="그룹 187" transform="translate(66.032 32.674)">
        <path id="패스_271" data-name="패스 271" d="M202.117,281.6a3.335,3.335,0,0,0-1.9.65,7.283,7.283,0,0,1,.585-1.551,5,5,0,0,1,.887-1.183,3.965,3.965,0,0,1,1.081-.789,2.964,2.964,0,0,1,1.177-.344h0a.044.044,0,0,0,.012,0,.122.122,0,0,0,.12-.123.121.121,0,0,0-.12-.121l-.007,0,0,0h-.379a3.389,3.389,0,0,0-1.279.287,5.042,5.042,0,0,0-1.7,1.122,5.87,5.87,0,0,0-1.367,1.906,5.532,5.532,0,0,0-.479,2.27,3.988,3.988,0,0,0,1.247,3.041,2.162,2.162,0,0,0,1.548.6,2.541,2.541,0,0,0,2.15-1.115,3.345,3.345,0,0,0,.677-2.033,2.7,2.7,0,0,0-.67-1.888A2.066,2.066,0,0,0,202.117,281.6Zm1.011,2.924c0,1.186-.705,2.148-1.572,2.148s-1.573-.962-1.573-2.148.7-2.146,1.573-2.146S203.129,283.336,203.129,284.521Z" transform="translate(-175.539 -278.138)" fill="#003e86"/>
        <path id="패스_272" data-name="패스 272" d="M187.641,283.909a3.334,3.334,0,0,0,1.894-.65,7.034,7.034,0,0,1-.587,1.549,4.944,4.944,0,0,1-.885,1.184,3.969,3.969,0,0,1-1.081.79,2.959,2.959,0,0,1-1.178.344h0l-.01,0a.124.124,0,0,0-.123.123.123.123,0,0,0,.123.122l.008,0,0,0h.382a3.358,3.358,0,0,0,1.279-.288,5.084,5.084,0,0,0,1.7-1.121,5.871,5.871,0,0,0,1.366-1.907,5.509,5.509,0,0,0,.48-2.27,3.993,3.993,0,0,0-1.248-3.042,2.163,2.163,0,0,0-1.547-.6,2.537,2.537,0,0,0-2.151,1.115,3.335,3.335,0,0,0-.677,2.032,2.7,2.7,0,0,0,.671,1.889A2.067,2.067,0,0,0,187.641,283.909Zm-1.014-2.924c0-1.186.7-2.147,1.574-2.147s1.572.961,1.572,2.147-.7,2.145-1.572,2.145S186.627,282.171,186.627,280.986Z" transform="translate(-174.042 -278.138)" fill="#003e86"/>
        <path id="패스_273" data-name="패스 273" d="M213.12,278.344l-.852,2.1.005,0c0,.005-.005.008-.005.012a.1.1,0,0,0,.1.1.1.1,0,0,0,.081-.047l.008,0a2.187,2.187,0,0,1,.886-.931,2.269,2.269,0,0,1,1.055-.178h2.445l-2.655,8.005h.735l2.962-8.825v-.249Z" transform="translate(-177.055 -278.161)" fill="#003e86"/>
        <path id="패스_274" data-name="패스 274" d="M176.144,286.966l-.009,0a2.255,2.255,0,0,1-.792-.114.5.5,0,0,1-.257-.281,4.092,4.092,0,0,1-.062-.931v-7.505h-.217l-2.127,1.038h0l-.034.015,0,0a.119.119,0,0,0-.038.085.115.115,0,0,0,.115.115l.019,0v0l.012,0a.094.094,0,0,0,.027-.012,1.7,1.7,0,0,1,.635-.186.449.449,0,0,1,.293.1.525.525,0,0,1,.168.308,7.126,7.126,0,0,1,.064,1.245v4.8a3.4,3.4,0,0,1-.072.961.524.524,0,0,1-.256.257,2.225,2.225,0,0,1-.795.107l-.006,0-.007,0H172.8a.118.118,0,0,0-.108.118.12.12,0,0,0,.108.12v0h3.345a.122.122,0,1,0,0-.244Z" transform="translate(-172.609 -278.138)" fill="#003e86"/>
      </g>
    </g>
    <g id="그룹_189" data-name="그룹 189" transform="translate(153.911 155.344)">
      <path id="패스_275" data-name="패스 275" d="M219.4,169.533c-5.14-10.642-15.58-14.78-26.231-14.121-15.4.948-32.232,12.447-32.232,29.231,0,13.977,16.609,31.213,30.174,31.433C214.443,216.45,229.343,190.091,219.4,169.533Zm-21.764,28.035a18.437,18.437,0,1,1,18.438-18.438A18.438,18.438,0,0,1,197.637,197.568Z" transform="translate(-160.939 -155.344)" fill="#003e86"/>
    </g>
  </g>
</svg>
