<svg xmlns="http://www.w3.org/2000/svg" width="234" height="64.955" viewBox="0 0 234 64.955">
  <g id="그룹_207" data-name="그룹 207" transform="translate(404.592 -357.796)">
    <g id="그룹_206" data-name="그룹 206" transform="translate(-404.592 357.796)">
      <g id="그룹_205" data-name="그룹 205">
        <path id="패스_284" data-name="패스 284" d="M-253.875,364.009c-9.042,0-13.292,6.836-13.292,15.243,0,8.424,4.25,15.225,13.292,15.225,9.067,0,13.306-6.8,13.306-15.225,0-8.407-4.239-15.243-13.306-15.243m0,26.114c-3.249,0-4.779-4.87-4.779-10.871s1.531-10.866,4.779-10.866c3.272,0,4.794,4.86,4.794,10.866s-1.522,10.871-4.794,10.871m37.305-25.215a23.54,23.54,0,0,0-6.757-.9c-8.958,0-13.453,6.89-13.453,15.369,0,8.5,4.495,15.366,13.453,15.366a22.866,22.866,0,0,0,6.757-1.164,2.243,2.243,0,0,0,1.39-2.046V387.6a7.453,7.453,0,0,1-5.8,2.528c-5.188,0-7.26-5.209-7.26-10.871s2.073-10.866,7.26-10.866a7.474,7.474,0,0,1,5.8,2.522v-3.943a1.941,1.941,0,0,0-1.39-2.058m-55.163,23.262V361.13a3.34,3.34,0,0,0-3.344-3.334h-5.875a9.357,9.357,0,0,1,.787,4.152v26.992c0,4.107,1.612,5.537,6.126,5.537a10.2,10.2,0,0,0,4.14-.856c-1.166-1.115-1.835-2.369-1.835-5.451" transform="translate(414.217 -357.796)" fill="#003e86"/>
        <path id="패스_285" data-name="패스 285" d="M-357.712,361.13a3.348,3.348,0,0,0-3.353-3.334h-5.885a9.284,9.284,0,0,1,.8,4.152v26.992c0,4.107,1.6,5.537,6.112,5.537a10.32,10.32,0,0,0,4.154-.856c-1.162-1.115-1.826-2.369-1.826-5.451Zm29.571,27.04V372.345c0-5.759-4.856-8.336-12.69-8.336a22.02,22.02,0,0,0-6.69.937,3.5,3.5,0,0,0-2.391,3.234v3.134a13.909,13.909,0,0,1,8.853-2.767c2.94,0,4.5,1.359,4.5,3.507v4.095a29.907,29.907,0,0,0-4.031-.166c-5.856,0-12.818,3.194-12.818,9.808,0,5.6,4.486,8.685,8.92,8.685,3.656,0,6.5-1.245,8.009-3.134.692,2.279,2.528,3.134,6.032,3.134a10.158,10.158,0,0,0,4.135-.856c-1.162-1.115-1.826-2.369-1.826-5.451m-8.421-4.6a4.751,4.751,0,0,1-4.97,5.093c-2.034,0-3.49-1.352-3.49-3.807,0-2.7,2.684-4.466,5.6-4.466.911,0,2.12.162,2.865.219ZM-371.17,378a2.316,2.316,0,0,0-2.262-2.585H-386.61v3.506a1.447,1.447,0,0,0,1.512,1.523h5.317v8.19l-.361.121a14.448,14.448,0,0,1-4.822.818,9.3,9.3,0,0,1-7.758-3.673c-1.816-2.4-2.774-5.508-2.774-9.925a13.956,13.956,0,0,1,2.883-8.881c2.006-2.608,5.2-4.107,9.64-4.1a20.052,20.052,0,0,1,10.542,2.64V361.8a3.559,3.559,0,0,0-2.13-2.656,39.987,39.987,0,0,0-10.787-1.347c-12.922.027-19.215,8.757-19.244,18.347.029,9.6,5.672,18.309,18.134,18.333a36.675,36.675,0,0,0,13.515-2.312,3.194,3.194,0,0,0,1.773-2.888Z" transform="translate(404.592 -357.796)" fill="#003e86"/>
        <path id="패스_286" data-name="패스 286" d="M-321.357,371.27c0-2.032,1.794-3.16,4.624-3.16a13.123,13.123,0,0,1,8.535,2.771v-4.263a1.964,1.964,0,0,0-1.071-1.661,19.292,19.292,0,0,0-7.7-1.421c-7.534,0-12.2,3.585-12.2,9.386,0,9.914,14.5,8.9,14.5,13.383,0,2.127-1.968,3.291-5.033,3.291a14.879,14.879,0,0,1-9.356-3.162V391a2.208,2.208,0,0,0,1.31,1.818,22.194,22.194,0,0,0,8.038,1.346c8.028,0,13-3.635,13-9.507,0-9.6-14.649-9.16-14.649-13.39" transform="translate(410.464 -357.349)" fill="#003e86"/>
        <path id="패스_287" data-name="패스 287" d="M-297.612,371.27c0-2.032,1.811-3.16,4.614-3.16a13.157,13.157,0,0,1,8.549,2.771v-4.263a1.921,1.921,0,0,0-1.067-1.661,19.1,19.1,0,0,0-7.668-1.421c-7.568,0-12.239,3.585-12.239,9.386,0,9.914,14.51,8.9,14.51,13.383,0,2.127-1.949,3.291-5.012,3.291a14.828,14.828,0,0,1-9.346-3.162V391a2.061,2.061,0,0,0,1.295,1.818,22.115,22.115,0,0,0,8.033,1.346c8.023,0,13.006-3.635,13.006-9.507,0-9.6-14.676-9.16-14.676-13.39" transform="translate(412.312 -357.349)" fill="#003e86"/>
        <path id="패스_288" data-name="패스 288" d="M-191.527,387.806l-7.991-10.942,11.486-12.787h-5.914a2.821,2.821,0,0,0-2.075.974L-207.1,377.2V360.984a3.306,3.306,0,0,0-3.306-3.176h-5.856a9.831,9.831,0,0,1,.767,4.123V392.28a1.872,1.872,0,0,0,1.955,1.878h6.439V379.493l8.188,11.733a5.917,5.917,0,0,0,4.378,2.12h9.275c-1.593-.941-3.044-1.233-6.273-5.541" transform="translate(419.254 -357.795)" fill="#003e86"/>
      </g>
    </g>
    <path id="패스_289" data-name="패스 289" d="M-233.633,402.361H-349.015a7.694,7.694,0,0,0-7.692,7.7v1.534a7.693,7.693,0,0,0,7.692,7.689h115.383a7.69,7.69,0,0,0,7.687-7.689v-1.534A7.69,7.69,0,0,0-233.633,402.361Zm-103.254,5.031H-341.4a3.836,3.836,0,0,0-2.694.823,3.362,3.362,0,0,0-.891,2.6c0,2.257,1.19,3.378,3.552,3.378h4.539v1.842h-5.5q-6.9,0-6.891-5.23v-.048q.008-5.206,6.909-5.2h5.486Zm14.819,8.64h-4.026v-4.346h-4.794v4.346h-4.04V405.55h4.04v4.287h4.794V405.55h4.026Zm14.227-8.64h-6.322c-.963,0-1.716.4-1.716,1.428v1.016h7.771v1.85h-7.771v1.081c0,1.034.753,1.423,1.716,1.423h6.322v1.842H-315.4a6.211,6.211,0,0,1-3.608-.866,2.708,2.708,0,0,1-1.167-2.218v-4.3a2.712,2.712,0,0,1,1.167-2.229,6.27,6.27,0,0,1,3.608-.868h7.564Zm14.145,0h-6.316c-.963,0-1.712.4-1.712,1.428v1.016h7.763v1.85h-7.763v4.346h-4.31v-7.385a2.713,2.713,0,0,1,1.166-2.229,6.3,6.3,0,0,1,3.618-.868h7.554Zm17.418,0h-4.073v8.638h-4.32v-8.638h-4.069V405.55h12.462Zm14.98,3.438c0,3.632-2.2,5.451-6.559,5.451h-1.137q-6.545,0-6.554-5.451v-.047c.015-3.609,2.219-5.421,6.587-5.421h1.081q5.628,0,6.43,4.045a18.548,18.548,0,0,1-2.66.356,6.629,6.629,0,0,0-.3-1.115h-7.806c-.522,1.48-1.242,4.752,2.338,4.754h2.992c2.205,0,2.812-1.24,2.86-2.537a21.052,21.052,0,0,0,2.708-.393c.01.107.015.206.019.31Zm14.045-.674a3.471,3.471,0,0,1-2.3,1.845,7.513,7.513,0,0,1-2.214.294h-3.547v3.736h-4.311v-5.947a22.96,22.96,0,0,1,7.2-.36.928.928,0,1,0,0-1.842,20.6,20.6,0,0,0-7.2,1.071v-3.4h7.859a7.571,7.571,0,0,1,2.162.273,3.454,3.454,0,0,1,2.338,1.812A3.153,3.153,0,0,1-247.252,410.157Zm13.889-2.769h-6.32c-.949,0-1.721.4-1.721,1.432v1.016h7.782v1.85h-7.782v4.344h-4.3v-7.388a2.7,2.7,0,0,1,1.162-2.225,6.3,6.3,0,0,1,3.623-.868h7.554Z" transform="translate(3.728 3.469)" fill="#003e86"/>
  </g>
</svg>
