<svg xmlns="http://www.w3.org/2000/svg" width="249.011" height="86.258" viewBox="0 0 249.011 86.258">
  <g id="그룹_181" data-name="그룹 181" transform="translate(-112.483 -180.984)">
    <path id="패스_244" data-name="패스 244" d="M356.838,180.984a4.7,4.7,0,1,0,4.656,4.693,4.7,4.7,0,0,0-4.656-4.693m0,8.5a3.792,3.792,0,1,1,3.723-3.809,3.781,3.781,0,0,1-3.723,3.809" fill="#003e86"/>
    <path id="패스_245" data-name="패스 245" d="M357.975,186.015l-.051-.1.1-.043a1.221,1.221,0,0,0,.694-1.168c0-.885-.574-1.373-1.686-1.389H355.5a.431.431,0,0,0-.426.426v3.89a.427.427,0,0,0,.426.426.433.433,0,0,0,.426-.426v-1.558h1.17l.025.072s.069.15.822,1.693a.4.4,0,0,0,.247.2.245.245,0,0,0,.115.021.411.411,0,0,0,.183-.045.423.423,0,0,0,.235-.369.482.482,0,0,0-.045-.186c-.572-1.181-.7-1.443-.7-1.443m-.807-.664h-1.145a.131.131,0,0,1-.074-.039.09.09,0,0,1-.029-.076.078.078,0,0,1,0-.03v-.986a.055.055,0,0,1,0-.025.094.094,0,0,1,.029-.078.109.109,0,0,1,.074-.028h1.145a.653.653,0,0,1,.7.639.643.643,0,0,1-.7.623" fill="#003e86"/>
    <path id="패스_246" data-name="패스 246" d="M276.727,196.738c-9.282,0-13.623,7-13.623,15.611,0,8.628,4.341,15.6,13.623,15.6s13.619-6.968,13.619-15.6c0-8.607-4.34-15.611-13.619-15.611m0,26.746c-3.345,0-4.908-4.986-4.908-11.135s1.563-11.13,4.908-11.13,4.9,4.986,4.9,11.13-1.568,11.135-4.9,11.135m38.193-25.822a24.038,24.038,0,0,0-6.91-.924c-9.18,0-13.775,7.051-13.775,15.741s4.6,15.743,13.775,15.743a23.623,23.623,0,0,0,6.91-1.189,2.307,2.307,0,0,0,1.432-2.1v-4.044a7.607,7.607,0,0,1-5.93,2.6c-5.332,0-7.441-5.334-7.441-11.135s2.109-11.13,7.441-11.13a7.659,7.659,0,0,1,5.93,2.587v-4.031a1.984,1.984,0,0,0-1.432-2.113m-56.5,23.83v-27.7a3.418,3.418,0,0,0-3.42-3.416h-6.016a9.712,9.712,0,0,1,.8,4.253v27.647c0,4.215,1.643,5.672,6.269,5.672a10.574,10.574,0,0,0,4.246-.873c-1.2-1.148-1.882-2.428-1.882-5.58" fill="#003e86"/>
    <path id="패스_247" data-name="패스 247" d="M160.495,193.789a3.424,3.424,0,0,0-3.424-3.416h-6.027a9.571,9.571,0,0,1,.815,4.254v27.646c0,4.215,1.636,5.672,6.262,5.672a10.71,10.71,0,0,0,4.258-.873c-1.2-1.149-1.884-2.428-1.884-5.58Zm30.29,27.7V205.275c0-5.9-4.964-8.537-12.986-8.537a22.563,22.563,0,0,0-6.856.963,3.577,3.577,0,0,0-2.454,3.314v3.209a14.266,14.266,0,0,1,9.079-2.836c2.992,0,4.6,1.393,4.6,3.594v4.189a30.465,30.465,0,0,0-4.127-.171c-6.005,0-13.128,3.279-13.128,10.054,0,5.729,4.583,8.891,9.126,8.891,3.757,0,6.665-1.281,8.219-3.213.7,2.34,2.584,3.213,6.164,3.213a10.573,10.573,0,0,0,4.243-.873c-1.195-1.149-1.88-2.428-1.88-5.58m-8.617-4.705A4.865,4.865,0,0,1,177.079,222c-2.083,0-3.571-1.381-3.571-3.893,0-2.781,2.744-4.58,5.719-4.58.941,0,2.169.166,2.941.225Zm-35.441-5.723a2.369,2.369,0,0,0-2.326-2.641H130.9v3.594a1.491,1.491,0,0,0,1.548,1.559H137.9v8.383l-.374.126a14.7,14.7,0,0,1-4.934.844,9.539,9.539,0,0,1-7.947-3.767c-1.862-2.455-2.846-5.639-2.846-10.17a14.3,14.3,0,0,1,2.954-9.092c2.06-2.668,5.325-4.211,9.876-4.2a20.491,20.491,0,0,1,10.8,2.707v-3.928a3.649,3.649,0,0,0-2.2-2.717,40.593,40.593,0,0,0-11.038-1.384c-13.238.031-19.682,8.97-19.716,18.791.034,9.843,5.814,18.755,18.581,18.781a37.686,37.686,0,0,0,13.845-2.365,3.287,3.287,0,0,0,1.818-2.961Z" fill="#003e86"/>
    <path id="패스_248" data-name="패스 248" d="M203.751,204.634c0-2.084,1.84-3.238,4.727-3.238a13.459,13.459,0,0,1,8.752,2.84v-4.363a1.985,1.985,0,0,0-1.093-1.706,19.734,19.734,0,0,0-7.879-1.449c-7.728,0-12.5,3.67-12.5,9.607,0,10.151,14.851,9.112,14.851,13.7,0,2.177-2.008,3.378-5.147,3.378a15.258,15.258,0,0,1-9.581-3.234v4.668a2.213,2.213,0,0,0,1.337,1.867,22.566,22.566,0,0,0,8.226,1.379c8.222,0,13.32-3.728,13.32-9.734,0-9.844-15.009-9.389-15.009-13.717" fill="#003e86"/>
    <path id="패스_249" data-name="패스 249" d="M229.983,204.634c0-2.084,1.843-3.238,4.721-3.238a13.441,13.441,0,0,1,8.752,2.84v-4.363a1.98,1.98,0,0,0-1.092-1.706,19.71,19.71,0,0,0-7.875-1.449c-7.732,0-12.509,3.67-12.509,9.607,0,10.151,14.865,9.112,14.865,13.7,0,2.177-2.024,3.378-5.157,3.378a15.225,15.225,0,0,1-9.571-3.234v4.668a2.172,2.172,0,0,0,1.324,1.867,22.557,22.557,0,0,0,8.229,1.379c8.232,0,13.319-3.728,13.319-9.734,0-9.844-15.006-9.389-15.006-13.717" fill="#003e86"/>
    <path id="패스_250" data-name="패스 250" d="M345.736,221.117l-8.186-11.209,11.752-13.1h-6.05a2.893,2.893,0,0,0-2.125,1l-11.336,12.447V193.637a3.392,3.392,0,0,0-3.395-3.25H320.4a9.994,9.994,0,0,1,.781,4.226V225.7a1.917,1.917,0,0,0,2,1.916h6.6V212.594l8.381,12.021a6.052,6.052,0,0,0,4.486,2.172h9.5c-1.633-.963-3.121-1.262-6.418-5.67" fill="#003e86"/>
    <path id="패스_251" data-name="패스 251" d="M209.153,250.225a5.167,5.167,0,0,0,.815-1.237,4.456,4.456,0,0,0,.413-1.9,4.137,4.137,0,0,0-.487-1.93,5.83,5.83,0,0,0-1.3-1.645,6.518,6.518,0,0,0-1.942-1.166,7.051,7.051,0,0,0-4.8-.03,6.533,6.533,0,0,0-1.94,1.108,5.451,5.451,0,0,0-1.342,1.634,4.242,4.242,0,0,0-.506,2.029v11.357a1.612,1.612,0,0,0,.645,1.3,2.276,2.276,0,0,0,1.462.492H204.8a7.734,7.734,0,0,0,2.6-.434,6.856,6.856,0,0,0,2.128-1.207,5.931,5.931,0,0,0,1.442-1.805,4.825,4.825,0,0,0,.535-2.229,4.9,4.9,0,0,0-.748-2.627,5.964,5.964,0,0,0-1.6-1.706m-7.3-3.24a1.811,1.811,0,0,1,.869-1.374,2.818,2.818,0,0,1,1.708-.474,2.2,2.2,0,0,1,1.484.546,1.636,1.636,0,0,1,.6,1.3,1.487,1.487,0,0,1-.615,1.2,2.4,2.4,0,0,1-1.574.532h-2.476Zm4.806,9.049a2.971,2.971,0,0,1-1.86.65h-2.925v-4.225H204.8a2.773,2.773,0,0,1,1.858.636,1.843,1.843,0,0,1,0,2.939" fill="#003e86"/>
    <path id="패스_252" data-name="패스 252" d="M259.965,250.225a5.137,5.137,0,0,0,.815-1.237,4.442,4.442,0,0,0,.414-1.9,4.138,4.138,0,0,0-.488-1.93,5.844,5.844,0,0,0-1.3-1.645,6.523,6.523,0,0,0-1.943-1.166,7.051,7.051,0,0,0-4.8-.03,6.546,6.546,0,0,0-1.94,1.108,5.482,5.482,0,0,0-1.342,1.634,4.242,4.242,0,0,0-.506,2.029v11.357a1.61,1.61,0,0,0,.646,1.3,2.272,2.272,0,0,0,1.462.492h4.632a7.724,7.724,0,0,0,2.6-.434,6.833,6.833,0,0,0,2.128-1.207,5.9,5.9,0,0,0,1.442-1.805,4.813,4.813,0,0,0,.536-2.229,4.9,4.9,0,0,0-.748-2.627,5.954,5.954,0,0,0-1.606-1.706m-7.3-3.24a1.808,1.808,0,0,1,.868-1.374,2.819,2.819,0,0,1,1.709-.474,2.2,2.2,0,0,1,1.483.546,1.636,1.636,0,0,1,.6,1.3,1.489,1.489,0,0,1-.614,1.2,2.4,2.4,0,0,1-1.574.532h-2.476Zm4.806,9.049a2.973,2.973,0,0,1-1.86.65h-2.926v-4.225h2.926a2.77,2.77,0,0,1,1.857.636,1.843,1.843,0,0,1,0,2.939" fill="#003e86"/>
    <path id="패스_253" data-name="패스 253" d="M234.774,243.519a7.06,7.06,0,0,0-2.124-1.176,7.925,7.925,0,0,0-5.166,0,6.772,6.772,0,0,0-2.111,1.192,6.017,6.017,0,0,0-1.442,1.8,4.79,4.79,0,0,0-.553,2.246V258.5a1.6,1.6,0,0,0,.582,1.229,2.3,2.3,0,0,0,2.839.026,1.555,1.555,0,0,0,.63-1.255v-3.2h5.312v3.2a1.583,1.583,0,0,0,.584,1.246,2.147,2.147,0,0,0,1.457.488,2.118,2.118,0,0,0,1.4-.483,1.57,1.57,0,0,0,.609-1.251v-11a4.662,4.662,0,0,0-.554-2.208,5.82,5.82,0,0,0-1.462-1.774m-2.033,8.133h-5.312v-4.069a1.9,1.9,0,0,1,.735-1.508,2.791,2.791,0,0,1,1.889-.645,3.32,3.32,0,0,1,1.074.172,2.743,2.743,0,0,1,.864.475,2.187,2.187,0,0,1,.555.689,1.77,1.77,0,0,1,.195.817Z" fill="#003e86"/>
    <path id="패스_254" data-name="패스 254" d="M288.969,242.861a1.82,1.82,0,0,0-3.516.029,2.076,2.076,0,0,0-.105.635,4.225,4.225,0,1,1-8.416,0,2.032,2.032,0,0,0-.075-.527,1.826,1.826,0,0,0-3.555-.118,2.077,2.077,0,0,0-.108.645,9.2,9.2,0,0,0,.073,1.108,8.43,8.43,0,0,0,5.833,7.2v6.638a1.586,1.586,0,0,0,.648,1.285,2.267,2.267,0,0,0,1.426.476,2.129,2.129,0,0,0,1.379-.479,1.579,1.579,0,0,0,.629-1.282v-6.639a8.422,8.422,0,0,0,5.826-7.2,9.332,9.332,0,0,0,.073-1.1,2.131,2.131,0,0,0-.112-.664" fill="#003e86"/>
    <path id="패스_255" data-name="패스 255" d="M187.5,246.215c-.986-1.023-3.54-1.826-4.744-.672a8.583,8.583,0,0,0-1.588-2.355,8.9,8.9,0,0,0-3.313-2.225,11.38,11.38,0,0,0-3.957-.757,16.224,16.224,0,0,0,.03-5.788.477.477,0,0,0-.942,0c-.113,1.317-.013,2.641-.1,3.959a5.06,5.06,0,0,1-.484,1.872c-.529.044-1.054.12-1.573.215a5.685,5.685,0,0,0,.056-1.016A4.345,4.345,0,0,0,168,235.459a.547.547,0,0,0-.423,1.008,3.361,3.361,0,0,1,2.063,3.547,4.159,4.159,0,0,1-.139.742c-.06.016-.121.028-.179.045-.477.133-.956.3-1.433.488a7.155,7.155,0,0,0-1.524-1.752,6.853,6.853,0,0,0-4.516-1.4c-.5.008-.5.858,0,.879a6.679,6.679,0,0,1,3.635,1.195,4.1,4.1,0,0,1,1.308,1.554c-4.312,2.042-8.124,6.091-7.643,10.974a3.816,3.816,0,0,0-4.9,3.125c-.477,3.283,3.318,4.314,5.975,3.756.226,2.912,2.5,5.433,5.077,6.623,3.047,1.4,6.617,1.169,9.769.3a17.435,17.435,0,0,0,8.681-5.459,11.061,11.061,0,0,0,2.242-4.3,7.927,7.927,0,0,0,.142-4.185c1.738-1.811,3.212-4.473,1.367-6.389m-2.708,8.049a8.189,8.189,0,0,1-.275,2.129,9.8,9.8,0,0,1-2,3.75,15.892,15.892,0,0,1-7.644,4.871,13.563,13.563,0,0,1-8.489.084,7.97,7.97,0,0,1-3.353-2.271,12.7,12.7,0,0,1-1.89-3.484,5.906,5.906,0,0,1-.3-1.03c-1.749.019-5.585.615-5.376-2.283.144-2.012,2.176-2.715,3.855-2.186.006.029.173.07.179.1.39.125.89.125.941-.159a10,10,0,0,1,2.2-7.345,12.935,12.935,0,0,1,4.68-3.458c.36-.163.722-.318,1.092-.454.214-.084.229-.069.387-.135.21-.073.42-.149.632-.213.335-.1.678-.191,1.024-.27.317-.072.64-.132.962-.181a13.418,13.418,0,0,1,1.93-.156,11.2,11.2,0,0,1,3.6.535,7.49,7.49,0,0,1,2.977,1.8,6.861,6.861,0,0,1,1.092,1.433,8.548,8.548,0,0,0,.951,1.85.57.57,0,0,0,1-.268c.01-.054,0-.109.007-.164.072-.034.171-.128.092-.066a1.817,1.817,0,0,1,.417-.287,2.2,2.2,0,0,1,.9-.168,3.19,3.19,0,0,1,2.022.656c1.634,1.242.189,3.291-1.193,4.832-.168.188-.333.367-.493.537a5.506,5.506,0,0,0,.039,1.563c.013.146.028.292.031.437" fill="#003e86"/>
    <path id="패스_256" data-name="패스 256" d="M167.7,253.184l.464-.078a1.173,1.173,0,0,0,.622-.355,1.035,1.035,0,0,0,.264-.835,1.046,1.046,0,0,0-.474-.744,1.178,1.178,0,0,0-.624-.179l-.33.014a1,1,0,0,0-.722.368,1.131,1.131,0,0,0-.257.857,1.11,1.11,0,0,0,1.057.952" fill="#003e86"/>
    <path id="패스_257" data-name="패스 257" d="M177.966,250.341l.142-.01a1.1,1.1,0,0,0,.921-1.262,1.646,1.646,0,0,0-.106-.539,1.051,1.051,0,0,0-.988-.653,1.071,1.071,0,0,0-1.08.925,1.844,1.844,0,0,0,.051.629,1.091,1.091,0,0,0,1.06.91m0-.51h0v0Z" fill="#003e86"/>
    <path id="패스_258" data-name="패스 258" d="M179.917,251.78c-.159.889.321,1.889.276,2.824a4.78,4.78,0,0,1-.729,2.3,6.916,6.916,0,0,1-4,2.7,11.065,11.065,0,0,1-10.667-2.641c-.472-.468-1.253.081-.838.653,2.668,3.674,7.939,4.492,12.08,3.347a8.036,8.036,0,0,0,4.711-3.324,6.287,6.287,0,0,0,.9-2.84c.077-.962.048-2.591-.672-3.31a.6.6,0,0,0-1.059.285" fill="#003e86"/>
  </g>
</svg>
