<svg xmlns="http://www.w3.org/2000/svg" width="1050.345" height="167.744" viewBox="0 0 1050.345 167.744">
  <path id="합치기_8" data-name="합치기 8" d="M794.759,97.39c0-38.284,20.093-69.347,60.235-69.347a104.346,104.346,0,0,1,30.215,4.07c4.919,1.565,6.261,5.348,6.261,9.309V59.18c-6.332-7.063-14.8-11.4-25.931-11.4C842.225,47.784,833,71.273,833,96.817s9.223,49.055,32.537,49.055c11.129,0,19.6-4.3,25.931-11.441v17.816c0,3.9-2.777,8.177-6.261,9.259-8.64,2.627-18.789,5.239-30.215,5.239C814.851,166.744,794.759,135.721,794.759,97.39ZM485.193,160.067a9.579,9.579,0,0,1-5.79-8.226V131.276c10.071,8.34,24.991,14.247,41.853,14.247,13.7,0,22.551-5.29,22.551-14.881,0-20.222-65-15.645-65-60.365,0-26.155,20.889-42.324,54.7-42.324,13.428,0,24.954,2.23,34.434,6.384,2.769,1.129,4.775,4.675,4.775,7.517V61.074c-9.077-7.886-22.78-12.512-38.27-12.512-12.585,0-20.643,5.084-20.643,14.266,0,19.067,65.618,17.063,65.618,60.431,0,26.459-22.244,42.883-58.242,42.883C507.18,166.142,495.114,163.992,485.193,160.067Zm-114.684,0a9.759,9.759,0,0,1-5.847-8.226V131.276c10.093,8.34,25.021,14.247,41.9,14.247,13.726,0,22.507-5.29,22.507-14.881,0-20.222-64.942-15.645-64.942-60.365,0-26.155,20.885-42.324,54.678-42.324,13.428,0,24.967,2.23,34.453,6.384,2.76,1.129,4.78,4.675,4.78,7.517V61.074c-9.114-7.886-22.788-12.512-38.272-12.512-12.624,0-20.669,5.084-20.669,14.266,0,19.067,65.631,17.063,65.631,60.431,0,26.459-22.292,42.883-58.246,42.883C392.516,166.142,380.427,163.992,370.509,160.067ZM658.631,96.817c0-37.918,18.982-68.774,59.569-68.774S777.753,58.9,777.753,96.817c0,38.011-18.978,68.708-59.553,68.708S658.631,134.828,658.631,96.817Zm38.107,0c0,27.089,6.836,49.055,21.462,49.055,14.571,0,21.427-21.966,21.427-49.055,0-27.067-6.857-49.033-21.427-49.033C703.574,47.784,696.738,69.75,696.738,96.817Zm-96.322,43.721V18.737c0-7.061-1.226-14.772-3.512-18.737h26.307a15,15,0,0,1,14.953,15.05V137.1c0,13.886,2.974,19.525,8.23,24.582-4.57,2.454-12.851,3.846-18.567,3.846C607.6,165.525,600.416,159.105,600.416,140.537ZM305.109,151.37c-6.794,8.51-19.51,14.155-35.939,14.155-19.865,0-39.906-13.931-39.906-39.17,0-29.848,31.147-44.293,57.4-44.293,7.1,0,12.559,0,18.048.754V64.361c0-9.7-7.032-15.834-20.115-15.834-16,0-30.2,4.543-39.7,12.5V46.885c0-10.076,8.845-14.023,10.729-14.6a97.952,97.952,0,0,1,29.981-4.243c35.077,0,56.785,11.62,56.785,37.609V137.1c0,13.886,2.995,19.519,8.221,24.582-4.562,2.45-12.844,3.846-18.554,3.846C316.409,165.525,308.148,161.678,305.109,151.37Zm-38.261-29.2c0,11.067,6.507,17.15,15.615,17.15,13.508,0,22.756-9.854,22.254-22.949V102.98c-3.377-.262-8.746-.992-12.861-.992C278.847,101.988,266.848,109.915,266.848,122.165Zm-94.667,18.372V18.742c0-7.066-1.233-14.759-3.562-18.742h26.354a15.026,15.026,0,0,1,14.972,15.05V137.1c0,13.886,2.987,19.519,8.239,24.582-4.631,2.45-12.918,3.846-18.619,3.846C179.335,165.525,172.181,159.105,172.181,140.537ZM0,82.784C.148,39.518,28.326.137,86.214,0c18.628,0,34.663,2.221,48.267,6.1,2.832,1.309,8.567,4.784,9.611,11.969V35.373c-12.236-7.53-28.134-11.952-47.249-11.926-19.9-.026-34.177,6.771-43.185,18.525C44.6,53.717,40.741,67.1,40.741,82.027c0,19.962,4.3,33.989,12.445,44.8,8.134,10.89,20.2,16.6,34.75,16.6a63.857,63.857,0,0,0,21.575-3.718l1.636-.556V102.222H87.325c-2.437-.154-6.683-1.247-6.77-6.868V79.52H139.57c3.106.233,10.171,1.766,10.171,11.635v50.905s.4,8.922-7.949,13.044c-16.556,6.618-36.95,10.42-60.542,10.42C25.424,165.41.148,126.149,0,82.784Zm921.359,81.3c-4.429,0-8.762-3.079-8.762-8.44V18.681c0-6.922-1.194-14.561-3.416-18.618h26.211a14.881,14.881,0,0,1,14.846,14.318V87.6l49.569-54.835c1.885-2.551,5.969-4.4,9.293-4.4h26.455l-51.389,57.7,35.795,49.382c14.417,19.421,20.924,20.737,28.065,24.98H1006.5c-7.125,0-15.931-4.243-19.617-9.569L950.237,97.9v66.193Z" transform="translate(0.5 0.5)" fill="#003e86" stroke="rgba(0,0,0,0)" stroke-miterlimit="10" stroke-width="1"/>
</svg>
