<svg xmlns="http://www.w3.org/2000/svg" width="170.716" height="62.793" viewBox="0 0 170.716 62.793">
  <g id="그룹_194" data-name="그룹 194" transform="translate(-489.574 -175.03)">
    <g id="그룹_192" data-name="그룹 192">
      <path id="패스_276" data-name="패스 276" d="M622.933,203.693m0,0c.205,4.98-4,7.8-8.415,8.472a25.259,25.259,0,0,1-3.921.311,2.7,2.7,0,0,0-2.4,1.344,4.671,4.671,0,0,0-.411,3.011c.265,1.722,1.685,4.766-.3,5.975a3.918,3.918,0,0,1-1.377.521c-4.6.659-4.093-5.2-4.227-8.246-.2-4.436-.057-8.9-.081-13.341a29.245,29.245,0,0,1,.182-3.8,5.851,5.851,0,0,1,1.03-3.1c1.035-1.216,2.721-1.526,4.2-1.679q6.315-.662,10.47,1.59,5,2.687,5.251,8.941m-14.323,3.9c.82.823,2.165.488,3.1.126,1.939-.758,4.2-2.281,4.854-4.363a4.149,4.149,0,0,0,.193-1.377c-.1-2.181-2.9-3.379-4.707-3.808a4.409,4.409,0,0,0-2.153-.043c-1.325.412-1.652,1.852-1.787,3.048-.152,1.323-.185,2.734-.2,4.067A3.405,3.405,0,0,0,608.61,207.6Z" fill="#f4982b"/>
      <path id="패스_277" data-name="패스 277" d="M645.812,199.816a2.418,2.418,0,0,0,2.384-1.11c.575-1.1-.517-2.417.137-3.449a4.124,4.124,0,0,1,1.509-1.243c2.357-1.333,4.005-1.35,3.959.286-.045,1.516-.909,4,.42,5.195,1.262,1.137,3.018-.888,4.331-.014,1.1.739,1.678,3.715.925,4.813-.94,1.371-2.116,1.213-3.573,1.233-1.374.018-1.638,1.711-1.745,2.76-.165,1.6-.3,3.266-.32,4.877-.015,1.279.219,2.909,1.575,3.43s3.009-.2,4.133,1.048a2.868,2.868,0,0,1-.021,3.874,5.4,5.4,0,0,1-4.363,1.878,7.4,7.4,0,0,1-7.249-6.06,24.262,24.262,0,0,1-.117-8.486c.116-.9.959-3.067-.188-3.615-.743-.351-1.677-.143-2.445-.377a1.276,1.276,0,0,1-.852-.987,10.541,10.541,0,0,1,.13-3.159C644.56,199.859,644.95,199.793,645.812,199.816Z" fill="#f4982b"/>
      <path id="패스_278" data-name="패스 278" d="M642.552,210.176a12.239,12.239,0,0,0-.623-2.28,9.011,9.011,0,0,0-2.493-3.556,10.106,10.106,0,0,0-3.936-2.068q-5.948-1.7-9.732,3.724a10.779,10.779,0,0,0-2.14,7.146,10.378,10.378,0,0,0,2.594,6.11,11.777,11.777,0,0,0,5.711,3.683,11.618,11.618,0,0,0,7.221-.178,4.628,4.628,0,0,0,2.772-2.388,2.205,2.205,0,0,0-.455-2.514c-1.356-1.359-3.917-.093-5.469.28-.318.076-.643.168-.968.233-1.341.262-3.474.483-4.256-.982a2.17,2.17,0,0,1-.024-2.209,3.1,3.1,0,0,1,2.128-.776c.508-.04,1.225-.04,2.159-.017.689.023,1.382.106,2.069.16a12.32,12.32,0,0,0,3.742-.042,2.233,2.233,0,0,0,1.287-.713,2.743,2.743,0,0,0,.429-1.249A7.135,7.135,0,0,0,642.552,210.176Zm-12.351.619c-.283.013-.707.069-.591-.855.215-2.047,1.569-3.483,4.067-3.67,2.449-.185,3.707,1.089,3.8,3.785a.538.538,0,0,1-.58.44h0Z" fill="#f4982b"/>
      <path id="패스_279" data-name="패스 279" d="M593.56,191.408c-.193,1.034-.076,1.015-.286,2.05a5.776,5.776,0,0,0-.061,3.05c.34.924,1.284.915,1.919.29a9.909,9.909,0,0,0,1.622-3.014c.439-.952,1-2.2.067-3.055-.652-.594-3.317-1.376-3.2.234Z" fill="#f4982b"/>
      <g id="그룹_191" data-name="그룹 191">
        <path id="패스_280" data-name="패스 280" d="M587.657,196.24a13.466,13.466,0,0,0-10.007-2.361,14.326,14.326,0,0,0-9.348,4.867,14,14,0,0,0-3.183,11.4,18.137,18.137,0,0,0,.726,3.319,12.764,12.764,0,0,0,.652,1.623,16.772,16.772,0,0,0,.9,1.63,18.553,18.553,0,0,0,1.34,1.87,11.748,11.748,0,0,0,6.922,4.127,16.869,16.869,0,0,0,7.373-.325,14.017,14.017,0,0,0,2.759-1.067,12.247,12.247,0,0,0,6.239-8.027,21.566,21.566,0,0,0,.743-6.827Q592.392,199.685,587.657,196.24Zm-8.485,21.274a8.906,8.906,0,1,1,8.787-9.022A8.909,8.909,0,0,1,579.172,217.514Z" fill="#f4982b"/>
      </g>
    </g>
    <g id="그룹_193" data-name="그룹 193">
      <path id="패스_281" data-name="패스 281" d="M514.053,203.007a2,2,0,1,1-1.836-2.157A2,2,0,0,1,514.053,203.007Z" fill="#f4982b"/>
      <path id="패스_282" data-name="패스 282" d="M540.865,208.3c-.389,3.814-3.314,6.666-10.472,6.741a6.885,6.885,0,0,1-4.795-1.46,5.179,5.179,0,0,1-1.448-3.692c-.146-3.646,1.3-7.333,2.334-10.771.368-1.221.732-2.446,1.025-3.685a9.818,9.818,0,0,0,.357-1.78c.03-.682.15-1.4.139-2.074a1.491,1.491,0,0,1,.7-1.495c1.522-.667,4.248,1.424,5.322,2.341a23.231,23.231,0,0,1,4.4,4.915A17.3,17.3,0,0,1,540.865,208.3Z" fill="#f4982b"/>
      <path id="패스_283" data-name="패스 283" d="M520.97,175.03a31.4,31.4,0,1,0,31.4,31.4A31.4,31.4,0,0,0,520.97,175.03Zm21.9,37.3c-1.706,5.3-4.535,8.819-9.552,11.216-5.857,2.8-9.522,2.8-15.71,2.49-6.512-.327-14.535-1.313-17.9-7.61-1.782-3.335-2.148-8.819.262-11.828,2.031-2.536,3.558-3.372,4.608-6.754a19.761,19.761,0,0,1,4.682-8.01,19.012,19.012,0,0,1,17.106-5.423,19.972,19.972,0,0,1,9.973,4.66,27.554,27.554,0,0,1,3.212,3.517C543.239,199.677,544.935,205.908,542.869,212.333Z" fill="#f4982b"/>
    </g>
  </g>
</svg>
