<?xml version="1.0" encoding="UTF-8"?>
<svg id="_레이어_2" data-name="레이어 2" xmlns="http://www.w3.org/2000/svg" viewBox="0 0 85.69 85.69">
  <defs>
    <style>
      .cls-1 {
        fill: none;
        stroke: #231815;
        stroke-miterlimit: 10;
        stroke-width: 3.5px;
      }

      .cls-2 {
        fill: #231815;
        stroke-width: 0px;
      }
    </style>
  </defs>
  <g id="_레이어_1-2" data-name="레이어 1">
    <g>
      <path class="cls-1" d="M15.36,1.75h54.98c7.51,0,13.61,6.1,13.61,13.61v54.98c0,7.51-6.1,13.61-13.61,13.61H15.36c-7.51,0-13.61-6.1-13.61-13.61V15.36C1.75,7.85,7.85,1.75,15.36,1.75Z"/>
      <path class="cls-2" d="M24.55,24.04v-9.39c0-1.15.93-2.08,2.08-2.08s2.08.93,2.08,2.08v9.39c0,7.79,6.34,14.13,14.13,14.13s14.13-6.34,14.13-14.13v-9.39c0-1.15.93-2.08,2.08-2.08s2.08.93,2.08,2.08v9.39c0,10.09-8.21,18.29-18.29,18.29s-18.29-8.21-18.29-18.29Z"/>
      <polygon class="cls-2" points="71.51 72.15 66.8 72.15 58.72 62.23 58.72 72.15 53.28 72.15 53.28 55.45 57.99 55.45 66.07 65.56 66.07 55.45 71.51 55.45 71.51 72.15"/>
    </g>
  </g>
</svg>