<svg xmlns="http://www.w3.org/2000/svg" width="100" height="100" viewBox="0 0 100 100">
  <g id="그룹_693" data-name="그룹 693" transform="translate(-1334 -445)">
    <rect id="사각형_279" data-name="사각형 279" width="100" height="100" transform="translate(1334 445)" fill="none"/>
    <g id="그룹_680" data-name="그룹 680" transform="translate(1330.933 466.479)">
      <path id="패스_985" data-name="패스 985" d="M88.954,58.018H5.015a1.651,1.651,0,0,1-1.3-.657A1.621,1.621,0,0,1,3.5,55.92L13.592,25.264a1.589,1.589,0,0,1,1.515-1.095H78.863a1.566,1.566,0,0,1,1.5,1.095L90.468,55.92a1.627,1.627,0,0,1-.237,1.442A1.59,1.59,0,0,1,88.954,58.018ZM7.2,54.843H86.764l-9.051-27.5H16.256Z" transform="translate(6.082 11.192)"/>
      <path id="패스_986" data-name="패스 986" d="M101.478,38.2H4.656a1.587,1.587,0,0,1-1.223-.566,1.6,1.6,0,0,1-.347-1.277l1.515-9.2A1.573,1.573,0,0,1,6.171,25.85H99.963a1.568,1.568,0,0,1,1.551,1.314l1.533,9.2a1.551,1.551,0,0,1-.365,1.277A1.523,1.523,0,0,1,101.478,38.2ZM6.518,35.029H99.6l-.985-6H7.521Z" transform="translate(0 40.185)"/>
      <path id="패스_987" data-name="패스 987" d="M38.912,37.271H10.957a6.259,6.259,0,1,1,0-12.518H38.912a6.259,6.259,0,1,1,0,12.518ZM10.957,27.928a3.093,3.093,0,0,0,0,6.186H38.912a3.093,3.093,0,0,0,0-6.186Z" transform="translate(28.132 21.264)"/>
      <path id="패스_988" data-name="패스 988" d="M31.311,37.808a1.617,1.617,0,0,1-1.277-.657l-4.325-5.93a1.106,1.106,0,0,1-.255-.529l-.328-1.2-2.5-.584a1.6,1.6,0,0,1-1.2-1.277l-.073-.456-3.7,1.113L15.582,31.6a1.6,1.6,0,0,1-1.241.73l-3.686.255-3.65,4.617a1.584,1.584,0,0,1-2.482-1.971l4.069-5.164a1.665,1.665,0,0,1,1.15-.6l3.558-.237,1.952-3.139a1.642,1.642,0,0,1,.894-.675l6-1.788a1.568,1.568,0,0,1,1.277.164,1.539,1.539,0,0,1,.73,1.077l.219,1.186,2.409.566a1.584,1.584,0,0,1,1.186,1.15l.474,1.825,4.16,5.675A1.618,1.618,0,0,1,32.26,37.5,1.681,1.681,0,0,1,31.311,37.808Z" transform="translate(19.128 0.728)"/>
      <path id="패스_989" data-name="패스 989" d="M42.167,38.536a1.615,1.615,0,0,1-1.332-.748l-3.321-5.219-4.16-2.482a1.611,1.611,0,0,1-.693-.894l-.566-1.879-1.2.547-6.149,3.157a1.524,1.524,0,0,1-1.095.146L20.489,30.4a1.6,1.6,0,0,1-1.168-1.9l.292-1.223-2.993-.328-1.405,2.208a1.617,1.617,0,0,1-.766.62L7.5,32.5a1.586,1.586,0,0,1-1.15-2.956L12.825,27l1.642-2.573a1.582,1.582,0,0,1,1.515-.73l5.73.6a1.531,1.531,0,0,1,1.131.657,1.548,1.548,0,0,1,.255,1.259l-.328,1.46,1.058.255,5.675-2.92,2.9-1.35a1.606,1.606,0,0,1,2.19.985l.931,3.029,3.941,2.372a1.52,1.52,0,0,1,.511.511l3.54,5.529a1.579,1.579,0,0,1-.493,2.19A1.622,1.622,0,0,1,42.167,38.536Z" transform="translate(39.183 0)"/>
    </g>
  </g>
</svg>
