<svg xmlns="http://www.w3.org/2000/svg" width="100" height="100" viewBox="0 0 100 100">
  <g id="그룹_689" data-name="그룹 689" transform="translate(-777 -445)">
    <rect id="사각형_275" data-name="사각형 275" width="100" height="100" transform="translate(777 445)" fill="none"/>
    <g id="그룹_668" data-name="그룹 668" transform="translate(770.654 414.547)">
      <path id="패스_879" data-name="패스 879" d="M83.416,95.586H21.752a8.222,8.222,0,0,1-8.206-8.206v-24.3a1.64,1.64,0,0,1,1.649-1.649h74.8a1.652,1.652,0,0,1,1.649,1.649v24.3A8.225,8.225,0,0,1,83.416,95.586ZM16.843,64.726V87.38a4.917,4.917,0,0,0,4.909,4.909H83.416a4.921,4.921,0,0,0,4.927-4.909V64.726Z" transform="translate(3.505 34.626)"/>
      <path id="패스_880" data-name="패스 880" d="M48.5,71.506H18.362a3.723,3.723,0,0,1-3.723-3.723v-4.7a1.652,1.652,0,0,1,1.649-1.649H50.574a1.652,1.652,0,0,1,1.649,1.649v4.7A3.723,3.723,0,0,1,48.5,71.506Zm-30.563-6.78v3.056a.431.431,0,0,0,.426.426H48.5a.419.419,0,0,0,.426-.426V64.726Z" transform="translate(22.658 34.626)"/>
      <path id="패스_881" data-name="패스 881" d="M96.011,66.392H15.028a1.649,1.649,0,1,1,0-3.3H96.011a1.649,1.649,0,1,1,0,3.3Z" transform="translate(0.578 63.82)"/>
      <path id="패스_882" data-name="패스 882" d="M97.182,69.808H14.995a1.64,1.64,0,0,1-1.649-1.649V62.788a1.652,1.652,0,0,1,1.649-1.649H97.182a1.652,1.652,0,0,1,1.649,1.649v5.372A1.64,1.64,0,0,1,97.182,69.808Zm-80.521-3.3H95.534V64.436H16.662Z" transform="translate(0 29.544)"/>
      <path id="패스_883" data-name="패스 883" d="M72.72,88.9h-51.7a7.154,7.154,0,0,1-7.15-7.15V61.392a1.652,1.652,0,0,1,1.649-1.649h62.7a1.652,1.652,0,0,1,1.649,1.649V81.749A7.154,7.154,0,0,1,72.72,88.9ZM17.169,63.04V81.749A3.862,3.862,0,0,0,21.022,85.6h51.7a3.85,3.85,0,0,0,3.853-3.853V63.04Z" transform="translate(9.217 5.082)"/>
      <path id="패스_884" data-name="패스 884" d="M48.5,69.82H18.362A3.723,3.723,0,0,1,14.639,66.1v-4.7a1.652,1.652,0,0,1,1.649-1.649H50.574a1.652,1.652,0,0,1,1.649,1.649v4.7A3.723,3.723,0,0,1,48.5,69.82ZM17.936,63.04V66.1a.444.444,0,0,0,.426.426H48.5a.431.431,0,0,0,.426-.426V63.04Z" transform="translate(22.658 5.082)"/>
      <path id="패스_885" data-name="패스 885" d="M82.781,68.122H18.024a4.334,4.334,0,1,1,0-8.669H82.781a4.334,4.334,0,0,1,0,8.669ZM18.024,62.75a1.037,1.037,0,0,0,0,2.075H82.781a1.037,1.037,0,0,0,0-2.075Z" transform="translate(5.695)"/>
    </g>
  </g>
</svg>
