<svg xmlns="http://www.w3.org/2000/svg" width="100" height="100" viewBox="0 0 100 100">
  <g id="그룹_690" data-name="그룹 690" transform="translate(-923 -445)">
    <rect id="사각형_276" data-name="사각형 276" width="100" height="100" transform="translate(923 445)" fill="none"/>
    <g id="그룹_676" data-name="그룹 676" transform="translate(900.315 451.437)">
      <path id="패스_955" data-name="패스 955" d="M88.242,59.167H41.331A16.479,16.479,0,0,1,24.872,44.226L23.159,26.518a1.808,1.808,0,0,1,.464-1.357,1.7,1.7,0,0,1,1.3-.571h79.721a1.748,1.748,0,0,1,1.749,1.928l-1.7,17.708A16.491,16.491,0,0,1,88.242,59.167ZM26.854,28.107l1.535,15.78A12.95,12.95,0,0,0,41.331,55.632H88.242a12.95,12.95,0,0,0,12.942-11.746l1.517-15.78Z" transform="translate(7.898 34.156)"/>
      <path id="패스_956" data-name="패스 956" d="M104.645,40.031H24.923a1.785,1.785,0,0,1-1.41-.7,1.732,1.732,0,0,1-.286-1.553,22.274,22.274,0,0,1,10-13.085,9.467,9.467,0,0,1,4.838-1.285H91.506A9.514,9.514,0,0,1,96.344,24.7a22.226,22.226,0,0,1,9.979,13.031l.018.054a1.732,1.732,0,0,1-.286,1.553A1.811,1.811,0,0,1,104.645,40.031ZM27.4,36.5h74.759a18.609,18.609,0,0,0-7.64-8.765,5.857,5.857,0,0,0-3.017-.8H38.061a5.969,5.969,0,0,0-3.035.8A18.668,18.668,0,0,0,27.4,36.5Z" transform="translate(7.901 14.306)"/>
      <path id="패스_957" data-name="패스 957" d="M46.612,32.952H29.922a5.195,5.195,0,1,1,0-10.389h16.69a5.195,5.195,0,1,1,0,10.389ZM29.922,26.08a1.669,1.669,0,0,0,0,3.338h16.69a1.669,1.669,0,1,0,0-3.338Z" transform="translate(34.409 0)"/>
      <path id="패스_958" data-name="패스 958" d="M26.838,34.764a1.752,1.752,0,0,1-1.749-1.749v-8.3a1.758,1.758,0,1,1,3.517,0v8.3A1.756,1.756,0,0,1,26.838,34.764Z" transform="translate(40.509 6.471)"/>
      <path id="패스_959" data-name="패스 959" d="M27.435,34.764a1.752,1.752,0,0,1-1.749-1.749v-8.3a1.758,1.758,0,1,1,3.517,0v8.3A1.756,1.756,0,0,1,27.435,34.764Z" transform="translate(50.569 6.471)"/>
      <path id="패스_960" data-name="패스 960" d="M33.353,38.674H29.336a1.767,1.767,0,1,1,0-3.534h4.016a3.517,3.517,0,0,0,0-7.033H30.247a1.758,1.758,0,1,1,0-3.517h3.106a7.042,7.042,0,0,1,0,14.084Z" transform="translate(82.299 34.156)"/>
      <path id="패스_961" data-name="패스 961" d="M33.735,38.674H29.718a7.042,7.042,0,0,1,0-14.084h3.106a1.758,1.758,0,0,1,0,3.517H29.718a3.517,3.517,0,0,0,0,7.033h4.016a1.767,1.767,0,0,1,0,3.534Z" transform="translate(0 34.156)"/>
    </g>
  </g>
</svg>
