<svg xmlns="http://www.w3.org/2000/svg" width="100" height="100" viewBox="0 0 100 100">
  <g id="그룹_692" data-name="그룹 692" transform="translate(-1206 -445)">
    <rect id="사각형_278" data-name="사각형 278" width="100" height="100" transform="translate(1206 445)" fill="none"/>
    <g id="그룹_673" data-name="그룹 673" transform="translate(1147.734 406.017)">
      <path id="패스_922" data-name="패스 922" d="M98.061,138.741a35.379,35.379,0,1,1,33.111-47.825,1.7,1.7,0,1,1-3.177,1.2,31.974,31.974,0,1,0-29.934,43.21,1.707,1.707,0,0,1,0,3.414Z" transform="translate(6.04 0)"/>
      <path id="패스_923" data-name="패스 923" d="M85.462,112.692a21.929,21.929,0,1,1,17.448-35.213,1.7,1.7,0,1,1-2.7,2.07,18.531,18.531,0,1,0-14.746,29.745,18.781,18.781,0,0,0,4.093-.458,1.7,1.7,0,1,1,.759,3.319A21.844,21.844,0,0,1,85.462,112.692Z" transform="translate(18.615 12.599)"/>
      <path id="패스_924" data-name="패스 924" d="M97.637,138.741a35.379,35.379,0,0,1,0-70.758c1.106,0,2.244.063,3.4.174a1.7,1.7,0,0,1,0,3.382,31.97,31.97,0,0,0,0,63.646,1.7,1.7,0,0,1,0,3.382C99.882,138.678,98.744,138.741,97.637,138.741ZM82.749,75.079a31.966,31.966,0,0,0,0,56.566,35.515,35.515,0,0,1,0-56.566Z" transform="translate(0 0)"/>
      <path id="패스_925" data-name="패스 925" d="M92.245,107.473H71.287a6.205,6.205,0,0,1-6.2-6.2V71.8A1.71,1.71,0,0,1,66.8,70.095H96.733A1.707,1.707,0,0,1,98.424,71.8v29.476A6.192,6.192,0,0,1,92.245,107.473ZM68.506,73.509v27.769a2.786,2.786,0,0,0,2.782,2.782H92.245a2.786,2.786,0,0,0,2.782-2.782V73.509Z" transform="translate(41.776 31.268)"/>
      <path id="패스_926" data-name="패스 926" d="M100.966,78.305H68.281A3.383,3.383,0,0,1,64.9,74.939v-1.8a3.373,3.373,0,0,1,3.382-3.366h32.684a3.369,3.369,0,0,1,3.366,3.366v1.8A3.379,3.379,0,0,1,100.966,78.305ZM68.281,73.169l.032,1.77,32.653-.047-.032-1.723Z" transform="translate(38.919 26.471)"/>
      <path id="패스_927" data-name="패스 927" d="M77.607,93.474H68.693a1.7,1.7,0,0,1-1.707-1.707V72.058a1.7,1.7,0,0,1,1.707-1.707h8.914a6.01,6.01,0,0,1,6.006,5.99V87.468A6.013,6.013,0,0,1,77.607,93.474ZM70.384,90.06h7.223A2.593,2.593,0,0,0,80.2,87.468V76.341a2.59,2.59,0,0,0-2.592-2.576H70.384Z" transform="translate(69.817 35.058)"/>
      <path id="패스_928" data-name="패스 928" d="M77.607,93.8H68.693a1.71,1.71,0,0,1-1.707-1.707V72.368a1.7,1.7,0,0,1,1.707-1.691h8.914a6.01,6.01,0,0,1,6.006,5.99V87.794A6.024,6.024,0,0,1,77.607,93.8Zm-7.223-3.414h7.223A2.6,2.6,0,0,0,80.2,87.794V76.667a2.6,2.6,0,0,0-2.592-2.592H70.384Z" transform="translate(69.817 39.884)"/>
      <path id="패스_929" data-name="패스 929" d="M132.314,75.658H64.649a1.707,1.707,0,0,1,0-3.414h67.664a1.707,1.707,0,0,1,0,3.414Z" transform="translate(10.038 63.083)"/>
    </g>
  </g>
</svg>
