<svg xmlns="http://www.w3.org/2000/svg" width="100" height="100" viewBox="0 0 100 100">
  <g id="그룹_694" data-name="그룹 694" transform="translate(-1471 -445)">
    <rect id="사각형_280" data-name="사각형 280" width="100" height="100" transform="translate(1471 445)" fill="none"/>
    <g id="그룹_682" data-name="그룹 682" transform="translate(1334.747 -523.829)">
      <g id="그룹_681" data-name="그룹 681" transform="translate(150.087 1061.146)">
        <path id="패스_990" data-name="패스 990" d="M152.688,1056.127a4.448,4.448,0,0,1-4.443-4.443v-3.043a1.4,1.4,0,1,1,2.8,0v3.043a1.643,1.643,0,1,0,3.286,0v-3.043a1.4,1.4,0,1,1,2.8,0v3.043A4.448,4.448,0,0,1,152.688,1056.127Z" transform="translate(-149.645 -1048.641)"/>
        <path id="패스_991" data-name="패스 991" d="M203.5,1056.127a4.448,4.448,0,0,1-4.443-4.443v-3.043a1.4,1.4,0,1,1,2.8,0v3.043a1.643,1.643,0,1,0,3.286,0v-3.043a1.4,1.4,0,1,1,2.8,0v3.043A4.448,4.448,0,0,1,203.5,1056.127Z" transform="translate(-138.381 -1048.641)"/>
      </g>
      <path id="패스_992" data-name="패스 992" d="M220.685,1057H147.653a1.4,1.4,0,0,1-1.388-1.584l3.738-28.25a16.519,16.519,0,0,1,16.375-14.352h35.579a16.518,16.518,0,0,1,16.375,14.352l3.74,28.25a1.4,1.4,0,0,1-1.388,1.584Zm-71.434-2.8h69.837l-3.53-26.666a13.758,13.758,0,0,0-13.6-11.919H166.379a13.76,13.76,0,0,0-13.6,11.919Z" transform="translate(0 4.874)"/>
      <path id="패스_993" data-name="패스 993" d="M209.873,1029.475h-5.16a1.4,1.4,0,0,1,0-2.8h5.16a1.776,1.776,0,1,0,0-3.552h-6.351a1.4,1.4,0,0,1,0-2.8h6.351a4.576,4.576,0,1,1,0,9.152Z" transform="translate(12.385 6.538)"/>
      <path id="패스_994" data-name="패스 994" d="M200.743,1019.937a1.4,1.4,0,0,1-1.4-1.4v-9.761a1.4,1.4,0,0,1,.015-.2,3.442,3.442,0,0,1,2.352-2.519,4.959,4.959,0,0,0,2.473-5.059c-1.421-5.162-4.888-7.364-11.6-7.364H171.17c-6.478,0-10.282,2.448-11.629,7.485a4.719,4.719,0,0,0,.466,3.041,3.694,3.694,0,0,0,1.883,1.988,3.437,3.437,0,0,1,2.468,2.479,1.4,1.4,0,0,1,.027.272v9.643a1.4,1.4,0,1,1-2.8,0v-9.382a.924.924,0,0,0-.52-.336,6.315,6.315,0,0,1-3.582-3.451,7.387,7.387,0,0,1-.647-4.977,11.826,11.826,0,0,1,6.011-7.809,17.667,17.667,0,0,1,8.323-1.752h21.418a17.717,17.717,0,0,1,8.48,1.716,11.788,11.788,0,0,1,5.815,7.706,7.681,7.681,0,0,1-4.117,8.395,1.527,1.527,0,0,0-.623.406v9.486A1.4,1.4,0,0,1,200.743,1019.937Z" transform="translate(2.304)"/>
      <path id="선_71" data-name="선 71" d="M0,15.692a1.394,1.394,0,0,1-.913-.339,1.4,1.4,0,0,1-.147-1.974L11.246-.914a1.4,1.4,0,0,1,1.974-.147A1.4,1.4,0,0,1,13.368.914L1.061,15.205A1.4,1.4,0,0,1,0,15.692Z" transform="translate(185.934 1000.274)"/>
      <path id="선_72" data-name="선 72" d="M0,6.164a1.394,1.394,0,0,1-.9-.325,1.4,1.4,0,0,1-.179-1.972L2.894-.9a1.4,1.4,0,0,1,1.972-.179A1.4,1.4,0,0,1,5.045.9L1.076,5.66A1.4,1.4,0,0,1,0,6.164Z" transform="translate(192.683 1010.596)"/>
      <path id="사각형_281" data-name="사각형 281" d="M0-1.4H39.7A1.4,1.4,0,0,1,41.1,0V9.925a1.4,1.4,0,0,1-1.4,1.4H0a1.4,1.4,0,0,1-1.4-1.4V0A1.4,1.4,0,0,1,0-1.4ZM38.3,1.4H1.4V8.525H38.3Z" transform="translate(164.319 1042.355)"/>
      <path id="선_73" data-name="선 73" d="M0,10.134a1.4,1.4,0,0,1-1.4-1.4V0A1.4,1.4,0,0,1,0-1.4,1.4,1.4,0,0,1,1.4,0V8.734A1.4,1.4,0,0,1,0,10.134Z" transform="translate(174.818 1043.149)"/>
      <path id="선_74" data-name="선 74" d="M0,10.134a1.4,1.4,0,0,1-1.4-1.4V0A1.4,1.4,0,0,1,0-1.4,1.4,1.4,0,0,1,1.4,0V8.734A1.4,1.4,0,0,1,0,10.134Z" transform="translate(194.271 1043.149)"/>
    </g>
  </g>
</svg>
