<svg xmlns="http://www.w3.org/2000/svg" xmlns:xlink="http://www.w3.org/1999/xlink" width="70" height="70" viewBox="0 0 70 70">
  <defs>
    <clipPath id="clip-path">
      <rect id="사각형_304" data-name="사각형 304" width="70" height="70" transform="translate(1655 2502)" fill="#fff" stroke="#707070" stroke-width="1"/>
    </clipPath>
  </defs>
  <g id="story_ico4" transform="translate(-1655 -2502)" clip-path="url(#clip-path)">
    <g id="그룹_719" data-name="그룹 719" transform="translate(1641.654 2448.576)">
      <path id="패스_879" data-name="패스 879" d="M70.759,89.4H20.265a6.732,6.732,0,0,1-6.719-6.719v-19.9a1.343,1.343,0,0,1,1.35-1.35H76.144a1.353,1.353,0,0,1,1.35,1.35v19.9A6.735,6.735,0,0,1,70.759,89.4ZM16.246,64.129v18.55A4.026,4.026,0,0,0,20.265,86.7H70.759a4.03,4.03,0,0,0,4.035-4.019V64.129Z" transform="translate(2.834 27.996)" fill="#0356b7"/>
      <path id="패스_880" data-name="패스 880" d="M42.366,69.68H17.688a3.049,3.049,0,0,1-3.049-3.049V62.779a1.353,1.353,0,0,1,1.35-1.35H44.065a1.353,1.353,0,0,1,1.35,1.35v3.853A3.049,3.049,0,0,1,42.366,69.68ZM17.339,64.129v2.5a.353.353,0,0,0,.349.349H42.366a.343.343,0,0,0,.349-.349v-2.5Z" transform="translate(18.319 27.996)" fill="#0356b7"/>
      <path id="패스_881" data-name="패스 881" d="M81.043,65.795H14.729a1.35,1.35,0,1,1,0-2.7H81.043a1.35,1.35,0,1,1,0,2.7Z" transform="translate(0.468 51.599)" fill="#0356b7"/>
      <path id="패스_882" data-name="패스 882" d="M82,68.238H14.7a1.343,1.343,0,0,1-1.35-1.35v-4.4a1.353,1.353,0,0,1,1.35-1.35H82a1.353,1.353,0,0,1,1.35,1.35v4.4A1.343,1.343,0,0,1,82,68.238Zm-65.935-2.7H80.646v-1.7H16.061Z" transform="translate(0 23.887)" fill="#0356b7"/>
      <path id="패스_883" data-name="패스 883" d="M62.06,83.617H19.727a5.858,5.858,0,0,1-5.855-5.855V61.093a1.353,1.353,0,0,1,1.35-1.35H66.565a1.353,1.353,0,0,1,1.35,1.35V77.762A5.858,5.858,0,0,1,62.06,83.617ZM16.572,62.443v15.32a3.162,3.162,0,0,0,3.155,3.155H62.06a3.153,3.153,0,0,0,3.155-3.155V62.443Z" transform="translate(7.452 4.109)" fill="#0356b7"/>
      <path id="패스_884" data-name="패스 884" d="M42.366,67.994H17.688a3.049,3.049,0,0,1-3.049-3.049V61.093a1.353,1.353,0,0,1,1.35-1.35H44.065a1.353,1.353,0,0,1,1.35,1.35v3.853A3.049,3.049,0,0,1,42.366,67.994ZM17.339,62.443v2.5a.363.363,0,0,0,.349.349H42.366a.353.353,0,0,0,.349-.349v-2.5Z" transform="translate(18.319 4.109)" fill="#0356b7"/>
      <path id="패스_885" data-name="패스 885" d="M70.262,66.552H17.235a3.549,3.549,0,1,1,0-7.1H70.262a3.549,3.549,0,0,1,0,7.1Zm-53.027-4.4a.849.849,0,0,0,0,1.7H70.262a.849.849,0,0,0,0-1.7Z" transform="translate(4.605 0)" fill="#0356b7"/>
    </g>
  </g>
</svg>
