<svg xmlns="http://www.w3.org/2000/svg" xmlns:xlink="http://www.w3.org/1999/xlink" width="70" height="70" viewBox="0 0 70 70">
  <defs>
    <clipPath id="clip-path">
      <rect id="사각형_330" data-name="사각형 330" width="70" height="70" transform="translate(210 2318)" fill="#fff" stroke="#707070" stroke-width="1" opacity="0.87"/>
    </clipPath>
  </defs>
  <g id="마스크_그룹_63" data-name="마스크 그룹 63" transform="translate(-210 -2318)" clip-path="url(#clip-path)">
    <g id="그룹_125" data-name="그룹 125" transform="translate(210 2327)">
      <path id="패스_221" data-name="패스 221" d="M66.471,59.483H23.141a7.556,7.556,0,0,1-7.168-5.151l-3.067-9.093a1.113,1.113,0,0,1,.159-1.035,1.134,1.134,0,0,1,.929-.491H75.617a1.134,1.134,0,0,1,.929.491,1.113,1.113,0,0,1,.159,1.035l-3.067,9.093A7.568,7.568,0,0,1,66.471,59.483ZM15.6,46.022l2.562,7.567a5.238,5.238,0,0,0,4.978,3.584H66.471a5.238,5.238,0,0,0,4.978-3.584l2.562-7.567Z" transform="translate(-10.251 -7.259)" fill="#0356b7"/>
      <path id="패스_222" data-name="패스 222" d="M78.386,51.509H16.021a3.377,3.377,0,0,1-3.372-3.372V46.624a3.365,3.365,0,0,1,3.372-3.359H78.386a3.365,3.365,0,0,1,3.372,3.359v1.513A3.377,3.377,0,0,1,78.386,51.509ZM16.021,45.562a1.065,1.065,0,0,0-1.062,1.062v1.513A1.065,1.065,0,0,0,16.021,49.2H78.386a1.065,1.065,0,0,0,1.062-1.062V46.624a1.065,1.065,0,0,0-1.062-1.062Z" transform="translate(-12.649 -12.746)" fill="#0356b7"/>
      <path id="패스_223" data-name="패스 223" d="M58.947,56.143H22.122a6.617,6.617,0,0,1-6.266-4.487l-2.6-7.739A1.152,1.152,0,0,1,14.343,42.4H66.726a1.121,1.121,0,0,1,.929.478,1.158,1.158,0,0,1,.159,1.035l-2.6,7.739A6.617,6.617,0,0,1,58.947,56.143Zm-43-11.43,2.1,6.2a4.311,4.311,0,0,0,4.075,2.934H58.947a4.311,4.311,0,0,0,4.075-2.934l2.1-6.2Z" transform="translate(-5.98 -23.327)" fill="#0356b7"/>
      <path id="패스_224" data-name="패스 224" d="M69.086,49.39H16.066a3.048,3.048,0,0,1-3.04-3.04V45.062a3.048,3.048,0,0,1,3.04-3.04h53.02a3.048,3.048,0,0,1,3.04,3.04V46.35A3.048,3.048,0,0,1,69.086,49.39Zm-53.02-5.058a.737.737,0,0,0-.73.73V46.35a.737.737,0,0,0,.73.73h53.02a.737.737,0,0,0,.73-.73V45.062a.737.737,0,0,0-.73-.73Z" transform="translate(-8.021 -28.004)" fill="#0356b7"/>
      <path id="패스_225" data-name="패스 225" d="M52.552,53.317H21.25a5.781,5.781,0,0,1-5.483-3.943L13.55,42.8a1.152,1.152,0,0,1,1.089-1.513H59.163A1.152,1.152,0,0,1,60.252,42.8l-2.217,6.571A5.781,5.781,0,0,1,52.552,53.317Zm-36.307-9.73,1.7,5.058a3.5,3.5,0,0,0,3.305,2.363h31.3a3.5,3.5,0,0,0,3.305-2.363l1.7-5.058Z" transform="translate(-2.346 -36.989)" fill="#0356b7"/>
      <path id="패스_226" data-name="패스 226" d="M61.163,47.564H16.108a2.756,2.756,0,0,1-2.761-2.748V43.727a2.759,2.759,0,0,1,2.761-2.761H61.163a2.759,2.759,0,0,1,2.761,2.761v1.089A2.756,2.756,0,0,1,61.163,47.564ZM16.108,43.276a.448.448,0,0,0-.451.451v1.089a.448.448,0,0,0,.451.451H61.163a.448.448,0,0,0,.451-.451V43.727a.448.448,0,0,0-.451-.451Z" transform="translate(-4.081 -40.966)" fill="#0356b7"/>
      <path id="패스_227" data-name="패스 227" d="M80.6,47.036H13.8a1.155,1.155,0,0,1,0-2.31H80.6a1.155,1.155,0,0,1,0,2.31Z" transform="translate(-12.649 5.188)" fill="#0356b7"/>
    </g>
  </g>
</svg>
