<svg xmlns="http://www.w3.org/2000/svg" xmlns:xlink="http://www.w3.org/1999/xlink" width="70" height="70" viewBox="0 0 70 70">
  <defs>
    <clipPath id="clip-path">
      <rect id="사각형_329" data-name="사각형 329" width="70" height="70" transform="translate(1204 1972)" fill="#fff" stroke="#707070" stroke-width="1" opacity="0.87"/>
    </clipPath>
  </defs>
  <g id="마스크_그룹_65" data-name="마스크 그룹 65" transform="translate(-1204 -1972)" clip-path="url(#clip-path)">
    <g id="그룹_124" data-name="그룹 124" transform="translate(1209 1974)">
      <line id="선_9" data-name="선 9" x2="60.877" transform="translate(0 65.41)" fill="none" stroke="#0356b7" stroke-linecap="round" stroke-linejoin="round" stroke-width="2"/>
      <path id="패스_213" data-name="패스 213" d="M1049.34,1208.538v-27.975l-17.412,8.706v-8.706l-17.412,8.706v-8.706l-19.125,9.563v18.413" transform="translate(-991.463 -1143.127)" fill="none" stroke="#0356b7" stroke-linecap="round" stroke-linejoin="round" stroke-width="2"/>
      <path id="패스_214" data-name="패스 214" d="M1026.562,1183.511l1.28-28.931h9.261l1.365,31.876" transform="translate(-989.987 -1144.358)" fill="none" stroke="#0356b7" stroke-linecap="round" stroke-linejoin="round" stroke-width="2"/>
      <line id="선_10" data-name="선 10" x2="8.837" transform="translate(37.926 16.168)" fill="none" stroke="#0356b7" stroke-linecap="round" stroke-linejoin="round" stroke-width="2"/>
      <path id="패스_215" data-name="패스 215" d="M1007.759,1184.164l.921-23.958h9.261l1.071,27.212" transform="translate(-990.877 -1144.091)" fill="none" stroke="#0356b7" stroke-linecap="round" stroke-linejoin="round" stroke-width="2"/>
      <line id="선_11" data-name="선 11" x2="9.082" transform="translate(17.92 22.06)" fill="none" stroke="#0356b7" stroke-linecap="round" stroke-linejoin="round" stroke-width="2"/>
      <path id="패스_216" data-name="패스 216" d="M1032.187,1151.448s.74-4.092,5.524-3.681a8,8,0,0,0,7.119-2.946" transform="translate(-989.721 -1144.82)" fill="none" stroke="#0356b7" stroke-linecap="round" stroke-linejoin="round" stroke-width="2"/>
      <path id="패스_217" data-name="패스 217" d="M1012.5,1157.777s.723-3.683,5.523-3.683c4.541,0,6.505-2.209,7.119-2.946" transform="translate(-990.653 -1144.52)" fill="none" stroke="#0356b7" stroke-linecap="round" stroke-linejoin="round" stroke-width="2"/>
      <path id="패스_218" data-name="패스 218" d="M1003.125,1207.816v-10.056l5.4-1.964v12.019" transform="translate(-991.097 -1142.406)" fill="none" stroke="#0356b7" stroke-linecap="round" stroke-linejoin="round" stroke-width="2"/>
      <path id="패스_219" data-name="패스 219" d="M1018.594,1207.816v-10.056l5.4-1.964v12.019" transform="translate(-990.364 -1142.406)" fill="none" stroke="#0356b7" stroke-linecap="round" stroke-linejoin="round" stroke-width="2"/>
      <path id="패스_220" data-name="패스 220" d="M1034.063,1207.816v-10.056l5.4-1.964v12.019" transform="translate(-989.632 -1142.406)" fill="none" stroke="#0356b7" stroke-linecap="round" stroke-linejoin="round" stroke-width="2"/>
    </g>
  </g>
</svg>
