<svg xmlns="http://www.w3.org/2000/svg" xmlns:xlink="http://www.w3.org/1999/xlink" width="70" height="70" viewBox="0 0 70 70">
  <defs>
    <clipPath id="clip-path">
      <rect id="사각형_327" data-name="사각형 327" width="70" height="70" transform="translate(231 1970)" fill="#fff" stroke="#707070" stroke-width="1" opacity="0.81"/>
    </clipPath>
  </defs>
  <g id="마스크_그룹_60" data-name="마스크 그룹 60" transform="translate(-231 -1970)" clip-path="url(#clip-path)">
    <g id="그룹_676" data-name="그룹 676" transform="translate(34 -1)">
      <path id="패스_201" data-name="패스 201" d="M683.9,442.662a21.342,21.342,0,1,1,21.343-21.341A21.364,21.364,0,0,1,683.9,442.662Z" transform="translate(-451.556 1596.713)" fill="none" stroke="#0356b7" stroke-linecap="round" stroke-linejoin="round" stroke-width="2"/>
      <path id="패스_202" data-name="패스 202" d="M683.816,437.5a16.26,16.26,0,1,1,16.262-16.26A16.277,16.277,0,0,1,683.816,437.5Z" transform="translate(-451.475 1596.795)" fill="none" stroke="#0356b7" stroke-linecap="round" stroke-linejoin="round" stroke-width="2"/>
      <g id="그룹_119" data-name="그룹 119" transform="translate(212.693 1973)">
        <path id="패스_203" data-name="패스 203" d="M673.369,376.667l-9.147,18.168,12.986,6.562" transform="translate(-664.222 -376.667)" fill="none" stroke="#0356b7" stroke-linecap="round" stroke-linejoin="round" stroke-width="2"/>
        <path id="패스_204" data-name="패스 204" d="M684.176,400.38l-10.954-23.714H693.21l10.276,18.168L690.274,401.4" transform="translate(-664.075 -376.667)" fill="none" stroke="#0356b7" stroke-linecap="round" stroke-linejoin="round" stroke-width="2"/>
      </g>
      <path id="패스_205" data-name="패스 205" d="M680,417.382l4.065-3.049v12.873" transform="translate(-451.272 1596.947)" fill="none" stroke="#0356b7" stroke-linecap="round" stroke-linejoin="round" stroke-width="2"/>
      <line id="선_7" data-name="선 7" x2="11.518" y2="21.681" transform="translate(232.455 1973)" fill="none" stroke="#0356b7" stroke-linecap="round" stroke-linejoin="round" stroke-width="2"/>
      <line id="선_8" data-name="선 8" y1="10.163" x2="5.251" transform="translate(221.106 1984.518)" fill="none" stroke="#0356b7" stroke-linecap="round" stroke-linejoin="round" stroke-width="2"/>
    </g>
  </g>
</svg>
