<svg xmlns="http://www.w3.org/2000/svg" xmlns:xlink="http://www.w3.org/1999/xlink" width="70" height="70" viewBox="0 0 70 70">
  <defs>
    <clipPath id="clip-path">
      <rect id="사각형_305" data-name="사각형 305" width="70" height="70" transform="translate(1797 2502)" fill="#fff" stroke="#707070" stroke-width="1"/>
    </clipPath>
  </defs>
  <g id="story_ico5" transform="translate(-1797 -2502)" clip-path="url(#clip-path)">
    <g id="그룹_720" data-name="그룹 720" transform="translate(1799 2503.484)">
      <g id="그룹_128" data-name="그룹 128" transform="translate(24.672 26.506)">
        <g id="그룹_126" data-name="그룹 126" transform="translate(0)">
          <circle id="타원_20" data-name="타원 20" cx="20.057" cy="20.057" r="20.057" transform="translate(0 0.573) rotate(-0.818)" fill="none" stroke="#0356b7" stroke-linecap="round" stroke-linejoin="round" stroke-width="2"/>
        </g>
        <path id="패스_1065" data-name="패스 1065" d="M23.456,10.228a1.228,1.228,0,1,0-2.456,0v13.51a1.228,1.228,0,0,0,.619,1.066l8.6,4.913a1.228,1.228,0,0,0,1.218-2.132l-7.978-4.559Z" transform="translate(-2.222 -1.706)" fill="#0356b7"/>
      </g>
      <g id="그룹_129" data-name="그룹 129">
        <path id="패스_229" data-name="패스 229" d="M178.476,1054.287a30.615,30.615,0,1,1,30.368-26.519" transform="translate(-147.833 -993)" fill="none" stroke="#0356b7" stroke-linecap="round" stroke-linejoin="round" stroke-width="2"/>
        <path id="패스_230" data-name="패스 230" d="M166.627,1052.047a2.665,2.665,0,0,1-.216-1.054V995.823a2.664,2.664,0,0,1,.209-1.037" transform="translate(-145.709 -992.796)" fill="none" stroke="#0356b7" stroke-linecap="round" stroke-linejoin="round" stroke-width="2"/>
        <path id="패스_231" data-name="패스 231" d="M184.061,994.771a2.665,2.665,0,0,1,.216,1.054v23.9" transform="translate(-143.692 -992.798)" fill="none" stroke="#0356b7" stroke-linecap="round" stroke-linejoin="round" stroke-width="2"/>
        <path id="패스_232" data-name="패스 232" d="M172.327,1034.579H158.1a9.458,9.458,0,0,0-5.207,1.565" transform="translate(-147.255 -988.247)" fill="none" stroke="#0356b7" stroke-linecap="round" stroke-linejoin="round" stroke-width="2"/>
        <path id="패스_233" data-name="패스 233" d="M152.561,1005.54a9.386,9.386,0,0,0,5.574,1.835h40.4a9.35,9.35,0,0,0,4.77-1.306" transform="translate(-147.293 -991.567)" fill="none" stroke="#0356b7" stroke-linecap="round" stroke-linejoin="round" stroke-width="2"/>
        <line id="선_13" data-name="선 13" x2="32.315" transform="translate(0 30.643)" fill="none" stroke="#0356b7" stroke-linecap="round" stroke-linejoin="round" stroke-width="2"/>
      </g>
    </g>
  </g>
</svg>
