<svg xmlns="http://www.w3.org/2000/svg" width="42" height="42" viewBox="0 0 42 42">
  <g id="_" data-name="&gt;" transform="translate(-244.389 -55)">
    <path id="Icon_ionic-ios-arrow-round-forward" data-name="Icon ionic-ios-arrow-round-forward" d="M20.629,11.507a.908.908,0,0,0-.007,1.278l4.224,4.231H8.771a.9.9,0,0,0,0,1.806H24.839l-4.224,4.231a.914.914,0,0,0,.007,1.278.9.9,0,0,0,1.271-.007l5.724-5.766h0a1.014,1.014,0,0,0,.188-.285.862.862,0,0,0,.069-.347.905.905,0,0,0-.257-.632l-5.724-5.766A.885.885,0,0,0,20.629,11.507Z" transform="translate(247.514 57.748)" fill="#fff"/>
    <g id="타원_1374" data-name="타원 1374" transform="translate(244.389 55)" fill="none" stroke="#fff" stroke-width="1">
      <circle cx="21" cy="21" r="21" stroke="none"/>
      <circle cx="21" cy="21" r="20.5" fill="none"/>
    </g>
  </g>
</svg>
