<?xml version="1.0" encoding="UTF-8"?>
<svg id="Layer_2" data-name="Layer 2" xmlns="http://www.w3.org/2000/svg" viewBox="0 0 28 38.07">
  <defs>
    <style>
      .cls-1 {
        fill: #4285f4;
      }

      .cls-2 {
        fill: #f4b400;
      }

      .cls-3 {
        fill: #34a853;
      }

      .cls-4 {
        fill: #ea4335;
      }
    </style>
  </defs>
  <g id="Layer_1-2" data-name="Layer 1">
    <path class="cls-1" d="M17.58,1.46c-.98-.97-2.18-1.46-3.58-1.46s-2.59,.49-3.58,1.46c-.98,.97-1.47,2.15-1.47,3.54v12.55c0,1.47,.48,2.72,1.45,3.75,.97,1.03,2.17,1.55,3.6,1.55s2.63-.52,3.6-1.55c.97-1.03,1.45-2.28,1.45-3.75V5c0-1.39-.49-2.57-1.47-3.54Z"/>
    <path class="cls-2" d="M6.21,25.2c-2.14-2.07-3.21-4.62-3.21-7.65H0c0,3.53,1.2,6.6,3.6,9.2,.21,.23,.44,.44,.66,.66l2.08-2.1s-.08-.07-.12-.11Z"/>
    <path class="cls-3" d="M12.5,31.29v6.78h3v-6.79c-1.07,.1-2.08,.09-3,0Z"/>
    <path class="cls-4" d="M24.4,26.75c2.4-2.6,3.6-5.67,3.6-9.2h-3c0,3.03-1.08,5.58-3.22,7.65-2.15,2.07-4.75,3.1-7.79,3.1s-5.53-1-7.65-2.99l-2.08,2.1c2.28,2.19,5.02,3.46,8.24,3.79v.02c.92,.08,1.93,.09,3,0h0c3.53-.38,6.5-1.86,8.9-4.46Z"/>
  </g>
</svg>