<svg width="80" height="80" viewBox="0 0 80 80" fill="none" xmlns="http://www.w3.org/2000/svg">
<path d="M60.8672 62.1846V65.7861" stroke="#222222" stroke-width="1.45611" stroke-miterlimit="10"/>
<path d="M11 67.4129C11 67.4129 17.816 73.4447 43.6764 67.4129C43.6764 67.4129 61.1055 63.6992 68.1283 67.8765" stroke="#222222" stroke-width="0.582443" stroke-miterlimit="10"/>
<path d="M11 71.5828C11 71.5828 17.816 77.6146 43.6764 71.5828C43.6764 71.5828 61.1055 67.8691 68.1283 72.0464" stroke="#222222" stroke-width="0.582443" stroke-miterlimit="10"/>
<path d="M63.1331 54.1865H16.9922V61.8434H63.1331V54.1865Z" stroke="#222222" stroke-width="1.45611" stroke-miterlimit="10"/>
<path d="M44.7633 17.0637H47.339V12.8863H44.256V8.71387H36.2975V12.8863H33.2933V17.0637H35.869L31.4219 54.1865H40.0847H48.7475L44.7633 17.0637Z" stroke="#222222" stroke-width="1.45611" stroke-miterlimit="10"/>
<path d="M44.0125 16.5996L34.6602 25.8815" stroke="#222222" stroke-width="0.582443" stroke-miterlimit="10" stroke-linecap="round"/>
<path d="M36.5352 16.5996L45.4294 25.8815" stroke="#222222" stroke-width="0.582443" stroke-miterlimit="10" stroke-linecap="round"/>
<path d="M45.896 27.2725L33.2539 40.2633" stroke="#222222" stroke-width="0.582443" stroke-miterlimit="10"/>
<path d="M34.6602 27.2725L47.3023 40.7269" stroke="#222222" stroke-width="0.582443" stroke-miterlimit="10"/>
<path d="M47.2999 40.2637L31.3828 54.1866" stroke="#222222" stroke-width="0.582443" stroke-miterlimit="10"/>
<path d="M33.2539 40.7285L48.7081 53.7242" stroke="#222222" stroke-width="0.582443" stroke-miterlimit="10"/>
<path d="M16.9922 57.2451H63.1331" stroke="#222222" stroke-width="0.582443" stroke-miterlimit="10"/>
<path d="M40.2695 8.25014V5" stroke="#222222" stroke-width="1.45611" stroke-miterlimit="10"/>
<path d="M34.6484 26.3457H45.4142" stroke="#222222" stroke-width="0.582443" stroke-miterlimit="10" stroke-linecap="round"/>
<path d="M33.2422 40.2617H47.2928" stroke="#222222" stroke-width="0.582443" stroke-miterlimit="10" stroke-linecap="round"/>
<path d="M23.8776 49.0811H20.5977V53.722H23.8776V49.0811Z" stroke="#222222" stroke-width="1.45611" stroke-miterlimit="10"/>
<path d="M59.9323 49.0811H56.6523V53.722H59.9323V49.0811Z" stroke="#222222" stroke-width="1.45611" stroke-miterlimit="10"/>
<path d="M19.1914 62.0723V69.7291" stroke="#222222" stroke-width="1.45611" stroke-miterlimit="10"/>
<path d="M26.2148 62.3252V69.9988" stroke="#222222" stroke-width="1.45611" stroke-miterlimit="10"/>
<path d="M39.7734 65.499L39.7734 68.499" stroke="#222222" stroke-width="0.582443" stroke-miterlimit="10"/>
<path d="M53.8984 62L53.8984 66" stroke="#222222" stroke-width="1.45611" stroke-miterlimit="10"/>
<path d="M42.1406 62.0723H37.457V64.8539H42.1406V62.0723Z" stroke="#222222" stroke-width="1.45611" stroke-miterlimit="10"/>
</svg>
