<svg width="80" height="80" viewBox="0 0 80 80" fill="none" xmlns="http://www.w3.org/2000/svg">
<g clip-path="url(#clip0_3619_75264)">
<path d="M37.8127 19.4287H25.1172V35.4096H37.8127V19.4287Z" stroke="#222222" stroke-width="1.42857" stroke-miterlimit="10"/>
<path d="M20.254 23.2139H12.6367V31.6249H20.254V23.2139Z" stroke="#222222" stroke-width="1.42857" stroke-miterlimit="10"/>
<path d="M27.8711 35.3047V69.3693" stroke="#222222" stroke-width="1.42857" stroke-miterlimit="10"/>
<path d="M35.4883 35.5137V69.5783" stroke="#222222" stroke-width="1.42857" stroke-miterlimit="10"/>
<path d="M23.5742 69.5H38.8089" stroke="#222222" stroke-width="1.42857" stroke-miterlimit="10"/>
<path d="M20.8867 24.3691H24.907" stroke="#222222" stroke-width="1.71429" stroke-miterlimit="10"/>
<path d="M20.8867 30.2568H24.907" stroke="#222222" stroke-width="1.42857" stroke-miterlimit="10"/>
<path d="M38.2383 24.3691H62.783L66.8032 30.2569H38.2383" stroke="#222222" stroke-width="1.42857" stroke-miterlimit="10"/>
<path d="M24.9297 19.499L30.1143 10.499H33.0227L38.0111 19.499" stroke="#222222" stroke-width="1.42857" stroke-miterlimit="10"/>
<path d="M14.0117 22.999L30.1119 10.499" stroke="#222222" stroke-width="1.42857" stroke-miterlimit="10"/>
<path d="M55.7737 24.499L33.1328 10.499" stroke="#222222" stroke-width="1.42857" stroke-miterlimit="10"/>
<path d="M33.6363 34.999L27.8711 39.5091" stroke="#222222" stroke-width="0.571429" stroke-miterlimit="10"/>
<path d="M27.4453 39.5088L35.4858 43.7143" stroke="#222222" stroke-width="0.571429" stroke-miterlimit="10"/>
<path d="M35.0652 43.7148L27.8711 49.6026" stroke="#222222" stroke-width="0.571429" stroke-miterlimit="10"/>
<path d="M35.4884 53.8074L27.8711 50.0225" stroke="#222222" stroke-width="0.571429" stroke-miterlimit="10"/>
<path d="M27.4453 59.6963L35.0626 53.8086" stroke="#222222" stroke-width="0.571429" stroke-miterlimit="10"/>
<path d="M27.8711 59.6953L35.4884 63.4803" stroke="#222222" stroke-width="0.571429" stroke-miterlimit="10"/>
<path d="M27.8711 69.3682L35.0652 63.4805" stroke="#222222" stroke-width="0.571429" stroke-miterlimit="10"/>
<path d="M24.9063 28.576L21.0977 24.791" stroke="#222222" stroke-width="0.571429" stroke-miterlimit="10"/>
<path d="M37.9609 27.249L40.9877 30.257" stroke="#222222" stroke-width="0.571429" stroke-miterlimit="10"/>
<path d="M47.3335 24.3691L40.5625 30.2569" stroke="#222222" stroke-width="0.571429" stroke-miterlimit="10"/>
<path d="M48.1836 23.9492L54.9545 30.2575" stroke="#222222" stroke-width="0.571429" stroke-miterlimit="10"/>
<path d="M61.7267 23.9492L55.3789 29.8369" stroke="#222222" stroke-width="0.571429" stroke-miterlimit="10"/>
<path d="M37.603 23.1074H30.832V28.9951H37.603V23.1074Z" stroke="#222222" stroke-width="0.571429" stroke-miterlimit="10"/>
<path d="M56.6484 30.2568V38.2473" stroke="#222222" stroke-width="1.42857" stroke-miterlimit="10"/>
<path d="M66.3806 45.8184H45.6445V68.1076H66.3806V45.8184Z" stroke="#222222" stroke-width="1.42857" stroke-miterlimit="10"/>
<path d="M54.5313 50.8652H49.4531V55.4913H54.5313V50.8652Z" stroke="#222222" stroke-width="0.571429" stroke-miterlimit="10"/>
<path d="M62.5704 50.8652H57.4922V55.4913H62.5704V50.8652Z" stroke="#222222" stroke-width="0.571429" stroke-miterlimit="10"/>
<path d="M54.5313 58.8545H49.4531V63.4806H54.5313V58.8545Z" stroke="#222222" stroke-width="0.571429" stroke-miterlimit="10"/>
<path d="M62.5704 58.8545H57.4922V63.4806H62.5704V58.8545Z" stroke="#222222" stroke-width="0.571429" stroke-miterlimit="10"/>
<path d="M60.8752 37.8271H51.9883V40.771H60.8752V37.8271Z" stroke="#222222" stroke-width="1.42857" stroke-miterlimit="10"/>
</g>
<defs>
<clipPath id="clip0_3619_75264">
<rect width="56" height="60" fill="white" transform="translate(12 10)"/>
</clipPath>
</defs>
</svg>
