<svg width="80" height="80" viewBox="0 0 80 80" fill="none" xmlns="http://www.w3.org/2000/svg">
<path d="M17.3283 33.5706L16.8566 33.4283C11.6805 31.8791 8.81394 26.1216 10.4688 20.5958C11.2699 17.9244 12.9979 15.7084 15.3319 14.3462C17.6739 12.976 20.3494 12.6385 22.8663 13.3948L23.338 13.5371L17.3324 33.5747L17.3283 33.5706ZM20.1989 13.9803C18.6986 13.9803 17.1982 14.3869 15.8239 15.192C13.7054 16.428 12.1359 18.4489 11.4081 20.8763C9.95651 25.715 12.3108 30.7406 16.6737 32.3345L22.11 14.2039C21.4798 14.0535 20.8373 13.9803 20.1989 13.9803Z" fill="#222222"/>
<path d="M20.1372 13.5061L14.6484 31.8242L14.96 31.9176L20.4488 13.5995L20.1372 13.5061Z" fill="#222222"/>
<path d="M32.2413 65.0277L31.2695 64.8935L36.5554 26.5586H41.9186L47.1191 64.8935L46.1473 65.0277L41.0606 27.5385H37.4134L32.2413 65.0277Z" fill="#222222" stroke="#222222" stroke-width="0.277218"/>
<mask id="path-4-inside-1_3784_72343" fill="white">
<path d="M32.4486 65.0983L32.2656 64.8259L44.903 56.3522H32.3835L43.858 48.6755H33.8839L42.8781 40.6206H34.7907L41.5444 32.1143H36.3032V31.7891H42.2194L35.4697 40.2953H43.7319L34.7419 48.3461H44.9355L33.4611 56.0228H45.9764L32.4486 65.0983Z"/>
</mask>
<path d="M32.4486 65.0983L32.2656 64.8259L44.903 56.3522H32.3835L43.858 48.6755H33.8839L42.8781 40.6206H34.7907L41.5444 32.1143H36.3032V31.7891H42.2194L35.4697 40.2953H43.7319L34.7419 48.3461H44.9355L33.4611 56.0228H45.9764L32.4486 65.0983Z" fill="#222222"/>
<path d="M32.4486 65.0983L31.9883 65.4074L32.2973 65.8675L32.7575 65.5587L32.4486 65.0983ZM32.2656 64.8259L31.9568 64.3654L31.496 64.6744L31.8054 65.135L32.2656 64.8259ZM44.903 56.3522L45.2118 56.8127L46.7254 55.7978H44.903V56.3522ZM32.3835 56.3522L32.0752 55.8914L30.5577 56.9066H32.3835V56.3522ZM43.858 48.6755L44.1663 49.1363L45.6838 48.121H43.858V48.6755ZM33.8839 48.6755L33.514 48.2624L32.4338 49.2299H33.8839V48.6755ZM42.8781 40.6206L43.248 41.0336L44.3282 40.0661H42.8781V40.6206ZM34.7907 40.6206L34.3564 40.2758L33.6425 41.175H34.7907V40.6206ZM41.5444 32.1143L41.9786 32.4591L42.6926 31.5599H41.5444V32.1143ZM36.3032 32.1143H35.7488V32.6688H36.3032V32.1143ZM36.3032 31.7891V31.2346H35.7488V31.7891H36.3032ZM42.2194 31.7891L42.6537 32.1337L43.3671 31.2346H42.2194V31.7891ZM35.4697 40.2953L35.0354 39.9507L34.322 40.8497H35.4697V40.2953ZM43.7319 40.2953L44.1018 40.7083L45.1822 39.7408H43.7319V40.2953ZM34.7419 48.3461L34.372 47.9331L33.2917 48.9005H34.7419V48.3461ZM44.9355 48.3461L45.2438 48.8069L46.7613 47.7917H44.9355V48.3461ZM33.4611 56.0228L33.1528 55.562L31.6353 56.5773H33.4611V56.0228ZM45.9764 56.0228L46.2853 56.4833L47.798 55.4684H45.9764V56.0228ZM32.9089 64.7892L32.7259 64.5168L31.8054 65.135L31.9883 65.4074L32.9089 64.7892ZM32.5744 65.2864L45.2118 56.8127L44.5942 55.8917L31.9568 64.3654L32.5744 65.2864ZM44.903 55.7978H32.3835V56.9066H44.903V55.7978ZM32.6918 56.813L44.1663 49.1363L43.5497 48.2146L32.0752 55.8914L32.6918 56.813ZM43.858 48.121H33.8839V49.2299H43.858V48.121ZM34.2538 49.0885L43.248 41.0336L42.5082 40.2076L33.514 48.2624L34.2538 49.0885ZM42.8781 40.0661H34.7907V41.175H42.8781V40.0661ZM35.2249 40.9653L41.9786 32.4591L41.1102 31.7696L34.3564 40.2758L35.2249 40.9653ZM41.5444 31.5599H36.3032V32.6688H41.5444V31.5599ZM36.8577 32.1143V31.7891H35.7488V32.1143H36.8577ZM36.3032 32.3435H42.2194V31.2346H36.3032V32.3435ZM41.7851 31.4444L35.0354 39.9507L35.904 40.6399L42.6537 32.1337L41.7851 31.4444ZM35.4697 40.8497H43.7319V39.7408H35.4697V40.8497ZM43.3621 39.8823L34.372 47.9331L35.1117 48.7591L44.1018 40.7083L43.3621 39.8823ZM34.7419 48.9005H44.9355V47.7917H34.7419V48.9005ZM44.6272 47.8853L33.1528 55.562L33.7693 56.4837L45.2438 48.8069L44.6272 47.8853ZM33.4611 56.5773H45.9764V55.4684H33.4611V56.5773ZM45.6675 55.5624L32.1397 64.6379L32.7575 65.5587L46.2853 56.4833L45.6675 55.5624Z" fill="#222222" mask="url(#path-4-inside-1_3784_72343)"/>
<mask id="path-6-inside-2_3784_72343" fill="white">
<path d="M11.7461 66.4588V28.8477H12.0754V65.2675L13.4051 63.0271L13.6856 63.1938L11.7461 66.4588Z"/>
</mask>
<path d="M11.7461 66.4588V28.8477H12.0754V65.2675L13.4051 63.0271L13.6856 63.1938L11.7461 66.4588Z" fill="#222222"/>
<path d="M11.7461 66.4588H11.1917V68.4778L12.2228 66.742L11.7461 66.4588ZM11.7461 28.8477V28.2932H11.1917V28.8477H11.7461ZM12.0754 28.8477H12.6299V28.2932H12.0754V28.8477ZM12.0754 65.2675H11.521V67.2881L12.5522 65.5504L12.0754 65.2675ZM13.4051 63.0271L13.6883 62.5504L13.2114 62.267L12.9283 62.7441L13.4051 63.0271ZM13.6856 63.1938L14.1623 63.4769L14.4454 63.0003L13.9688 62.7171L13.6856 63.1938ZM12.3005 66.4588V28.8477H11.1917V66.4588H12.3005ZM11.7461 29.4021H12.0754V28.2932H11.7461V29.4021ZM11.521 28.8477V65.2675H12.6299V28.8477H11.521ZM12.5522 65.5504L13.8818 63.31L12.9283 62.7441L11.5987 64.9845L12.5522 65.5504ZM13.1218 63.5037L13.4024 63.6704L13.9688 62.7171L13.6883 62.5504L13.1218 63.5037ZM13.2089 62.9106L11.2694 66.1757L12.2228 66.742L14.1623 63.4769L13.2089 62.9106Z" fill="#222222" mask="url(#path-6-inside-2_3784_72343)"/>
<mask id="path-8-inside-3_3784_72343" fill="white">
<path d="M13.5467 58.5859H10.2773V58.9112H13.5467V58.5859Z"/>
</mask>
<path d="M13.5467 58.5859H10.2773V58.9112H13.5467V58.5859Z" fill="#222222"/>
<path d="M10.2773 58.5859V58.0315H9.72291V58.5859H10.2773ZM13.5467 58.5859H14.1012V58.0315H13.5467V58.5859ZM13.5467 58.9112V59.4657H14.1012V58.9112H13.5467ZM10.2773 58.9112H9.72291V59.4657H10.2773V58.9112ZM10.2773 59.1404H13.5467V58.0315H10.2773V59.1404ZM12.9923 58.5859V58.9112H14.1012V58.5859H12.9923ZM13.5467 58.3568H10.2773V59.4657H13.5467V58.3568ZM10.8318 58.9112V58.5859H9.72291V58.9112H10.8318Z" fill="#222222" mask="url(#path-8-inside-3_3784_72343)"/>
<mask id="path-10-inside-4_3784_72343" fill="white">
<path d="M13.5467 60.8789H10.2773V61.2042H13.5467V60.8789Z"/>
</mask>
<path d="M13.5467 60.8789H10.2773V61.2042H13.5467V60.8789Z" fill="#222222"/>
<path d="M10.2773 60.8789V60.3245H9.72291V60.8789H10.2773ZM13.5467 60.8789H14.1012V60.3245H13.5467V60.8789ZM13.5467 61.2042V61.7587H14.1012V61.2042H13.5467ZM10.2773 61.2042H9.72291V61.7587H10.2773V61.2042ZM10.2773 61.4333H13.5467V60.3245H10.2773V61.4333ZM12.9923 60.8789V61.2042H14.1012V60.8789H12.9923ZM13.5467 60.6498H10.2773V61.7587H13.5467V60.6498ZM10.8318 61.2042V60.8789H9.72291V61.2042H10.8318Z" fill="#222222" mask="url(#path-10-inside-4_3784_72343)"/>
<path d="M57.002 39L56.002 54" stroke="#222222" stroke-width="0.554435"/>
<path d="M63.002 39L64.002 54" stroke="#222222" stroke-width="0.554435"/>
<path d="M60.1877 40.6098C57.6626 40.6098 55.6133 38.5564 55.6133 36.0354C55.6133 33.5143 57.6667 31.4609 60.1877 31.4609C62.7087 31.4609 64.7621 33.5143 64.7621 36.0354C64.7621 38.5564 62.7087 40.6098 60.1877 40.6098ZM60.1877 32.4368C58.2034 32.4368 56.5932 34.0511 56.5932 36.0313C56.5932 38.0115 58.2075 39.6258 60.1877 39.6258C62.1679 39.6258 63.7822 38.0115 63.7822 36.0313C63.7822 34.0511 62.1679 32.4368 60.1877 32.4368Z" fill="#222222"/>
<path d="M60.1859 63.1609C57.0306 63.1609 54.4648 60.5952 54.4648 57.4398C54.4648 54.2845 57.0306 51.7188 60.1859 51.7188C63.3413 51.7188 65.907 54.2845 65.907 57.4398C65.907 60.5952 63.3413 63.1609 60.1859 63.1609ZM60.1859 52.7028C57.5714 52.7028 55.4448 54.8294 55.4448 57.4439C55.4448 60.0584 57.5714 62.185 60.1859 62.185C62.8005 62.185 64.9271 60.0584 64.9271 57.4439C64.9271 54.8294 62.8005 52.7028 60.1859 52.7028Z" fill="#222222"/>
<path d="M65 56H70V66H50V56H55" stroke="#222222" stroke-width="1.46"/>
<path d="M61.0544 57.4432C61.0544 57.921 60.6671 58.3083 60.1893 58.3083C59.7114 58.3083 59.3241 57.921 59.3241 57.4432C59.3241 56.9653 59.7114 56.578 60.1893 56.578C60.6671 56.578 61.0544 56.9653 61.0544 57.4432Z" stroke="#222222" stroke-width="0.554435"/>
<path d="M20 22L37.5 27.5" stroke="#222222" stroke-width="1.46"/>
<path d="M42 28.6992L57 33.6992" stroke="#222222" stroke-width="1.46"/>
<path d="M19 25L36.5 30.5M42 32L56 36.5" stroke="#222222" stroke-width="1.46"/>
</svg>
