<svg width="4805" height="480" viewBox="0 0 4805 480" fill="none" xmlns="http://www.w3.org/2000/svg">
<path d="M2002 72.5C2002 72.5 1671.83 -36.142 1434 61.5001C1264.43 131.117 1197 193.518 997 181.5C797 169.483 846.5 126 722 100.5C597.5 74.9994 521.302 143.064 361.5 222.783L0.5 476.783H1506.5C1506.5 476.783 2357.22 493.065 2436.22 433.783C2515.22 374.5 2296 241 2296 241L2221 147.5" fill="#016A81"/>
<path d="M2921.17 126.213C2921.17 126.213 3133.56 -68.2127 3371.39 29.4294C3540.96 99.0459 3608.39 161.447 3808.39 149.429C4008.39 137.412 3958.89 93.9297 4083.39 68.4292C4207.89 42.9287 4284.09 110.993 4443.89 190.712L4804.89 444.712L3290.5 468.5C3290.5 468.5 2448.17 460.995 2369.17 401.712C2290.17 342.429 2509.39 208.929 2509.39 208.929L2742 306.5" fill="#016A81"/>
<path d="M3459 67.0011C3459 67.0011 3209.5 -73.4991 2969 53.0018C2806.77 138.333 2716 199.018 2516 187.001C2316 174.983 2309.5 162.784 2185 137.284C2060.5 111.783 1952.8 135.282 1793 215.001L1777.5 465.501L2419.75 480L3033 465.501C3033 465.501 3832.45 488.873 3831 435.501C3829.55 382.129 3815 246.501 3815 246.501L3556 154.5" fill="#016A81"/>
</svg>
