<svg width="8358" height="569" viewBox="0 0 8358 569" fill="none" xmlns="http://www.w3.org/2000/svg">
<path d="M6525.37 100.513C6525.37 100.513 5944.3 -65.3947 5720.37 44.7609C5411.37 196.761 5377.37 181.762 5166.21 90.4067C4951.37 39.7623 4894.38 268.073 4590.37 147.072C4315.73 37.7617 3928.6 140.199 3852 176.895V562.762L6565.57 567.112V410.061" fill="url(#paint0_linear_1401_5827)"/>
<path d="M8323.74 101.513C8323.74 101.513 7834.75 -64.3947 7646.3 45.7609C7386.27 197.761 7357.65 182.762 7179.96 91.4067C6999.16 40.7623 6983.89 235.777 6715 147.5C6151.5 -37.5 5996.96 110.804 5932.5 147.5L6074 563.762L8357.57 568.112V411.061" fill="url(#paint1_linear_1401_5827)"/>
<path d="M2673.37 93.5131C2673.37 93.5131 2092.3 -72.3947 1868.37 37.7609C1559.37 189.761 1525.37 174.762 1314.21 83.4067C1099.37 32.7623 1042.38 261.073 738.367 140.072C463.73 30.7617 76.5971 133.199 0 169.895V555.762L2713.57 560.112V403.061" fill="url(#paint2_linear_1401_5827)"/>
<path d="M4546 132C4546 132 3982.75 -71.3946 3794.3 38.761C3534.27 190.761 3505.65 175.762 3327.96 84.4068C3147.16 33.7624 3131.89 228.777 2863 140.5C2299.5 -44.4999 2144.96 103.804 2080.5 140.5L2222 556.762L4505.57 561.112V404.061" fill="url(#paint3_linear_1401_5827)"/>
<defs>
<linearGradient id="paint0_linear_1401_5827" x1="5246.61" y1="81.072" x2="5246.61" y2="612.763" gradientUnits="userSpaceOnUse">
<stop stop-color="#009DCF"/>
<stop offset="1" stop-color="#22C5C5"/>
</linearGradient>
<linearGradient id="paint1_linear_1401_5827" x1="7247.61" y1="82.072" x2="7247.61" y2="613.763" gradientUnits="userSpaceOnUse">
<stop stop-color="#009DCF"/>
<stop offset="1" stop-color="#22C5C5"/>
</linearGradient>
<linearGradient id="paint2_linear_1401_5827" x1="1394.61" y1="74.072" x2="1394.61" y2="605.763" gradientUnits="userSpaceOnUse">
<stop stop-color="#009DCF"/>
<stop offset="1" stop-color="#22C5C5"/>
</linearGradient>
<linearGradient id="paint3_linear_1401_5827" x1="3395.61" y1="75.072" x2="3395.61" y2="606.763" gradientUnits="userSpaceOnUse">
<stop stop-color="#009DCF"/>
<stop offset="1" stop-color="#22C5C5"/>
</linearGradient>
</defs>
</svg>
