<svg xmlns="http://www.w3.org/2000/svg" width="142" height="142" viewBox="0 0 142 142">
  <defs>
    <style>
      .cls-1 {
        fill: #d97e9d;
        stroke: rgba(0,0,0,0);
        stroke-miterlimit: 10;
      }

      .cls-2 {
        fill: #231815;
      }

      .cls-3 {
        fill: none;
      }
    </style>
  </defs>
  <g id="그룹_3" data-name="그룹 3" transform="translate(-781 -1167)">
    <path id="합치기_5" data-name="합치기 5" class="cls-1" d="M-2514.669,474.146c-12.953-1.834-25.185-6.814-33.593-16.936h0c-.636-.768-1.257-1.556-1.85-2.382-5.594-7.82-6.87-16.4-6.719-24.372.587-.021,1.169-.021,1.742.006-.573-.026-1.156-.027-1.743-.006.024-1.275.081-2.537.166-3.777.127-1.85.152-3.7.14-5.549h0c-.066-9.858-1.753-19.727-1.436-29.612.315-9.784,2.442-20.552,9.052-27.963h0a25.688,25.688,0,0,1,3.483-3.261c11.745-9.036,27.726-9.3,41.839-10.96,14.522-1.707,30.887-2.993,44.237,4.2,18.794,10.132,23.5,31.19,23.689,50.924q.142,14.471.272,28.939c.084,9.724-.262,20-7.089,27.61-6.475,7.216-16.446,11.267-25.746,13.152a106.482,106.482,0,0,1-21.113,1.957A181.894,181.894,0,0,1-2514.669,474.146Zm29.525-86.846c-19.164,7.672-37.615,22.89-42.742,43.677-1.22,4.953-2.569,11.265-.069,16.046,3.032,5.8,10,5.34,15.357,3.493a71.513,71.513,0,0,0,20.543-11.7,88.568,88.568,0,0,0,21.392-23.678,69.981,69.981,0,0,0,4.36-8.488c3.23-7.532,4.472-19.59-6.185-21.54a14.253,14.253,0,0,0-2.577-.228A27.759,27.759,0,0,0-2485.145,387.3Zm-58.838,55.875a14.9,14.9,0,0,0-2.279-8.375A14.9,14.9,0,0,1-2543.982,443.175Zm-2.839-33.1q-.316.707-.662,1.376.345-.669.662-1.376Z" transform="translate(3347.266 827.166)"/>
    <path id="_Path_" data-name="&lt;Path&gt;" class="cls-2" d="M989.255,443.256c-.287,2.116-1.327,3.784-2.325,3.725s-1.571-1.824-1.283-3.938,1.326-3.786,2.323-3.725,1.573,1.821,1.286,3.937" transform="translate(-105 759)"/>
    <path id="_Path_2" data-name="&lt;Path&gt;" class="cls-2" d="M995.67,444.626c-.288,2.116-1.328,3.783-2.326,3.724s-1.572-1.823-1.284-3.938,1.327-3.785,2.323-3.725,1.572,1.822,1.286,3.939" transform="translate(-105 759)"/>
    <rect id="사각형_3" data-name="사각형 3" class="cls-3" width="142" height="142" transform="translate(781 1167)"/>
  </g>
</svg>
