<svg xmlns="http://www.w3.org/2000/svg" width="142" height="142" viewBox="0 0 142 142">
  <defs>
    <style>
      .cls-1 {
        fill: none;
      }

      .cls-2 {
        fill: #f0b74b;
        stroke: rgba(0,0,0,0);
        stroke-miterlimit: 10;
      }

      .cls-3 {
        fill: #231815;
      }
    </style>
  </defs>
  <g id="그룹_5" data-name="그룹 5" transform="translate(-1040 -1228)">
    <g id="그룹_2" data-name="그룹 2" transform="translate(1040 1228)">
      <rect id="사각형_1" data-name="사각형 1" class="cls-1" width="142" height="142"/>
      <path id="합치기_4" data-name="합치기 4" class="cls-2" d="M-2165.506,458.044a70.518,70.518,0,0,1-5.405-9.8c-6.5-14.308-8.972-31.57-5.545-46.337,5.617-24.218,26.348-45.553,50.369-51.906,25.366-6.707,50.885,4.071,67.2,23.187v0a75.32,75.32,0,0,1,10.279,15.567q.748,1.521,1.414,3.06a22.781,22.781,0,0,1-2.3-.725,22.832,22.832,0,0,0,2.3.726,67.509,67.509,0,0,1,2.546,6.953,15.158,15.158,0,0,0-3.659,1.092,12.162,12.162,0,0,0-5.268,4.814,12.157,12.157,0,0,1,5.269-4.813,15.05,15.05,0,0,1,3.657-1.092,65.574,65.574,0,0,1-14.584,64.131c-1.757-5.231-2.05-11.012-2.04-16.549-.011,5.537.282,11.318,2.039,16.55a63.32,63.32,0,0,1-18.56,13.561,78.162,78.162,0,0,1-33.668,7.432C-2132.587,483.894-2153.78,475.709-2165.506,458.044Zm30.946-69.081c-9.954,2.539-12.392,14.457-9.325,23.069,2.234,6.27,6.844,11.427,11.944,15.7,7.75,6.5,16.758,11.285,25.691,16.021,7.751,4.112,25.933,11.693,28.373-2.853.524-3.127-.379-6.309-1.476-9.283a70.292,70.292,0,0,0-20.975-29.544c-1.527-1.272-3.208-2.593-5-3.89-7.033-5.088-15.828-9.831-24.235-9.831A20.17,20.17,0,0,0-2134.561,388.963Zm73.8,45.109q.313-3.585.835-7.147Q-2060.454,430.484-2060.764,434.072Zm.848-7.234.008-.054Zm3.213-14.679q-.587,1.984-1.092,3.989.505-2,1.092-3.988c.244-.823.508-1.661.8-2.5C-2056.2,410.5-2056.46,411.336-2056.7,412.159Zm3.081-7.41.013-.022Zm.02-.032.026-.041Zm-4.124-20.9q-.276-.6-.5-1.248Q-2058,383.214-2057.727,383.814Zm-.507-1.259-.021-.06Zm-.024-.069-.01-.028Z" transform="translate(2181.367 -343.744)"/>
      <path id="_Path_" data-name="&lt;Path&gt;" class="cls-3" d="M704.329,441.453c-.288,2.116-1.327,3.784-2.325,3.725s-1.572-1.824-1.284-3.94,1.328-3.784,2.324-3.725,1.573,1.823,1.285,3.939" transform="translate(-657 -408)"/>
      <path id="_Path_2" data-name="&lt;Path&gt;" class="cls-3" d="M711.519,442.013c-.287,2.116-1.327,3.784-2.325,3.725s-1.571-1.824-1.283-3.938,1.327-3.786,2.323-3.725,1.573,1.822,1.286,3.938" transform="translate(-657 -408)"/>
    </g>
  </g>
</svg>
