<svg xmlns="http://www.w3.org/2000/svg" width="142" height="142.563" viewBox="0 0 142 142.563">
  <defs>
    <style>
      .cls-1 {
        fill: #b6ca32;
        stroke: rgba(0,0,0,0);
        stroke-miterlimit: 10;
      }

      .cls-2 {
        fill: #231815;
      }

      .cls-3 {
        fill: none;
      }
    </style>
  </defs>
  <g id="그룹_4" data-name="그룹 4" transform="translate(-982 -991.437)">
    <g id="그룹_1" data-name="그룹 1" transform="translate(982 991)">
      <path id="합치기_3" data-name="합치기 3" class="cls-1" d="M-2327.179,489.029c-12.126-.916-26.707-3.21-34.786-13.34a24.229,24.229,0,0,1-3.995-7.485h0c-2.027-6.034-2.106-12.8-2.019-19.082a117.546,117.546,0,0,1,4.549-31.658c1.417-4.791,3.533-10.109,8.4-12.3a15.111,15.111,0,0,1,3.657-1.093,66.431,66.431,0,0,1,.625,36.868,66.427,66.427,0,0,0-.625-36.869c4.386-.761,9.083.1,13.446.369,4.65.285,37.407,1.241,33.707-8.847a4.146,4.146,0,0,0-2.389-2.221c-2.9-1.229-6.217-.464-9.289.239-8.437,1.933-26.1,6.61-38.021,3.508q-.528-1.223-1.108-2.431.58,1.21,1.107,2.43c-5.925-1.542-10.436-5-11.676-11.686a18.986,18.986,0,0,1-.018-6.941,76.533,76.533,0,0,1,5.667,7.528,76.7,76.7,0,0,0-5.666-7.529c1.963-10.693,13-18.389,22.581-22.569q2.082-.909,4.2-1.685c14.44-5.3,30.164-6.195,45.376-4.377,14.919,1.781,31.191,4.039,43.325,13.676a38.867,38.867,0,0,1,8.4,9.233h0c8.827,13.488,8.784,31.535,2.086,46.52a23.892,23.892,0,0,1-9.7,11.054h0c-4.981,2.97-11.024,4.216-17.419,4.2-6.238-.02-13.652-1.331-19.7.656-3.928,1.294-7.479,7.433-2.209,9.582a10.654,10.654,0,0,0,4.073.574c7.382-.013,14.585-1.754,21.766-3.275,3.779-.8,8.638-2.247,13.177-2.408-.13,6.895.8,14.233,4.671,21.146-3.866-6.913-4.8-14.251-4.67-21.146a13.48,13.48,0,0,1,8.05,1.847c4.177,2.768,5.255,8.512,4.638,13.486a27.766,27.766,0,0,1-4.119,11.422h0c-5.069,8.088-13.921,13.73-23,16.872-14.006,4.846-29.246,6.489-44.3,6.489C-2314.723,489.785-2321.022,489.495-2327.179,489.029Zm85.645-23.15q-.335-.416-.662-.841Q-2241.87,465.464-2241.535,465.88Zm-.679-.862-.069-.091Z" transform="translate(2373.092 -348.048)"/>
      <path id="_Path_" data-name="&lt;Path&gt;" class="cls-2" d="M800.9,434.221c-.288,2.116-1.327,3.783-2.325,3.725s-1.571-1.824-1.284-3.94,1.327-3.784,2.324-3.724,1.573,1.821,1.285,3.938" transform="translate(-772 -407)"/>
      <path id="_Path_2" data-name="&lt;Path&gt;" class="cls-2" d="M807.317,435.591c-.287,2.116-1.327,3.783-2.325,3.724s-1.571-1.823-1.284-3.94,1.327-3.783,2.324-3.724,1.572,1.822,1.285,3.939" transform="translate(-772 -407)"/>
    </g>
    <rect id="사각형_2" data-name="사각형 2" class="cls-3" width="142" height="142" transform="translate(982 992)"/>
  </g>
</svg>
